<?xml version="1.0" encoding="utf-8"?>
<!-- Generator: Adobe Illustrator 16.0.0, SVG Export Plug-In . SVG Version: 6.00 Build 0)  -->
<!DOCTYPE svg PUBLIC "-//W3C//DTD SVG 1.1//EN" "http://www.w3.org/Graphics/SVG/1.1/DTD/svg11.dtd">
<svg version="1.1" id="Layer_1" xmlns="http://www.w3.org/2000/svg" xmlns:xlink="http://www.w3.org/1999/xlink" x="0px" y="0px"
	 width="600px" height="300.24px" viewBox="0 0 600 300.24" enable-background="new 0 0 600 300.24" xml:space="preserve">
<rect fill="#DADFE1" stroke="#000000" stroke-miterlimit="10" width="600" height="300.24"/>
<path fill="#6ECEEA" d="M416.774,150.849c0,68.342-55.202,123.744-123.544,123.744S169.286,219.19,169.286,150.849
	S224.688,27.104,293.03,27.104S416.774,82.507,416.774,150.849z"/>
<path id="_x32__copy_5" fill="#FFE269" d="M294.236,78.319c30.147,0,53.944,28.173,53.168,62.024l-0.822,35.977
	c-0.729,31.891-24.156,57.098-52.346,57.098c-28.189,0-51.618-25.207-52.348-57.098l-0.822-35.977
	C240.292,106.493,264.088,78.319,294.236,78.319z"/>
<path id="_x32__copy_5_1_" fill="#FFFFFF" d="M349.091,139.858l-0.718,35.978c-0.636,31.891-21.092,57.098-45.702,57.098
	c-7.875,0-4.483-15.009-5.572-69.549l0,0c1.315,65.728-3.592-85.55,5.572-85.55C328.992,77.835,349.767,106.009,349.091,139.858z"/>
<path id="_x32__line" fill="#3C444F" d="M349.828,139.227l-0.863,37.439c-0.764,33.186-25.312,59.418-54.85,59.418
	c-29.538,0-54.088-26.232-54.852-59.418l-0.861-37.439c-0.812-35.226,24.123-64.543,55.713-64.543
	C325.705,74.684,350.639,104.001,349.828,139.227z M293.994,78.562c-29.735,0-53.206,27.952-52.442,61.538l0.811,35.697
	c0.719,31.641,23.827,56.652,51.632,56.652c27.803,0,50.913-25.012,51.631-56.652l0.811-35.697
	C347.199,106.514,323.729,78.562,293.994,78.562z"/>
<path id="Shape_11_copy" fill="#FFE269" d="M238.341,144.687c-0.007,0-0.595-0.47-1.706-0.819c-0.556-0.175-1.245-0.318-2.032-0.354
	c-0.196-0.009-0.398-0.011-0.605-0.005s-0.418,0.02-0.633,0.042c-0.431,0.047-0.875,0.129-1.322,0.258
	c-1.789,0.515-3.615,1.765-4.688,4.346c-0.538,1.291-0.893,2.914-0.987,4.945c-0.023,0.508-0.03,1.041-0.02,1.602
	s0.038,1.146,0.084,1.762c0.093,1.229,0.26,2.568,0.51,4.029c-0.005-0.002-0.233,4.414,1.346,9.486
	c1.483,4.959,5.047,11.051,11.625,12.793C239.156,170.174,239.132,157.34,238.341,144.687L238.341,144.687z"/>
<path id="Shape_3" fill="#3C444F" d="M239.091,145.195c0,0-11.46-3.551-11.057,8.231c0,0,1.706,17.084,2.447,18.658
	c0,0,4.5,9.945,11.928,10.387c7.26,0.432,0,0,0,0l0.091,3.207c0,0-13.055-1.674-15.577-16.719l-1.99-13.668
	c0,0-1.545-18.087,13.444-13.489c14.603,4.48,0,0,0,0L239.091,145.195"/>
<path id="Shape_4" fill="#3C444F" d="M235.309,168.93c0,0-0.642,0.484-1.192,0.484s-1.185-0.484-1.185-0.484l-1.183-11.918
	c0,0,1.632-5.869,8.556-2.768l0.164,3.408c0,0-6.075-2.154-5.949,0.527C234.641,160.764,235.309,168.93,235.309,168.93z"/>
<path id="Shape_11_copy_x5F_1" fill="#FFE269" d="M349.67,144.715c0.008,0,0.598-0.47,1.715-0.819
	c0.557-0.174,1.25-0.317,2.041-0.354c0.197-0.009,0.4-0.011,0.607-0.005s0.42,0.02,0.637,0.043c0.432,0.046,0.877,0.128,1.326,0.257
	c1.797,0.514,3.631,1.764,4.709,4.343c0.541,1.29,0.896,2.912,0.992,4.943c0.023,0.508,0.031,1.039,0.02,1.6
	c-0.01,0.559-0.037,1.146-0.084,1.76c-0.094,1.229-0.262,2.566-0.514,4.027c0.006-0.002,0.234,4.41-1.35,9.479
	c-1.49,4.957-5.07,11.045-11.678,12.785C348.852,170.184,348.875,157.359,349.67,144.715L349.67,144.715z"/>
<path id="Shape_3_x5F_1" fill="#3C444F" d="M348.914,145.222c0,0,11.512-3.548,11.105,8.225c0,0-1.713,17.072-2.457,18.645
	c0,0-4.521,9.941-11.98,10.381c-7.291,0.432,0,0,0,0l-0.092,3.205c0,0,13.113-1.674,15.645-16.707l2-13.658
	c0,0,1.551-18.076-13.504-13.48c-14.666,4.477,0,0,0,0L348.914,145.222"/>
<path id="Shape_4_x5F_1" fill="#3C444F" d="M352.715,168.941c0,0,0.643,0.484,1.197,0.484c0.553,0,1.189-0.484,1.189-0.484
	l1.188-11.91c0,0-1.639-5.865-8.594-2.766l-0.164,3.406c0,0,6.102-2.154,5.975,0.527
	C353.385,160.779,352.715,168.941,352.715,168.941z"/>
<path id="R_copy" fill="#3C444F" d="M309.635,140.784c0,0,14.51-8.296,24.873,0.844l2.742,0.425c0,0-3.512-12.778-29.08-4.469
	l0.711,2.382 M309.449,139.965c0,0,14.76-8.479,24.492,2.23l5.014-0.144c0,0-6.254-13.649-31.922-5.037l2.416,3.518"/>
<path id="R_copy_3" fill="#3C444F" d="M278.459,140.832c0,0-14.461-8.222-24.791,0.837l-2.732,0.421c0,0,3.499-12.665,28.983-4.43
	l-0.709,2.36 M278.644,140.02c0,0-14.711-8.402-24.41,2.211l-4.996-0.142c0,0,6.231-13.529,31.814-4.993l-2.408,3.487"/>
<path id="Shape_6_copy_3" fill="#3C444F" d="M240.013,142.54c0,0,1.87-29.192,19.885-42.167c0,0,26.013,17.694,66.93,0
	c0,0,18.1,8.243,20.855,42.167h0.973c0,0,5.182-38.857-8.246-54.284c0,0-3.309-11.814-20.855-20.356l-6.307,3.877
	c0,0-4.236-5.184-15.519-11.632c0,0-8.346,3.718-12.61,10.178l-6.79-4.362c0,0-9.488,4.343-15.035,12.117l-10.185,1.454
	l-5.336,9.694c0,0-12.734,10.26-8.731,52.346L240.013,142.54z"/>
<defs>
	<filter id="Adobe_OpacityMaskFilter" filterUnits="userSpaceOnUse" x="236.809" y="58.205" width="114.768" height="84.578">
		<feColorMatrix  type="matrix" values="1 0 0 0 0  0 1 0 0 0  0 0 1 0 0  0 0 0 1 0"/>
	</filter>
</defs>
<mask maskUnits="userSpaceOnUse" x="236.809" y="58.205" width="114.768" height="84.578" id="_1_1_">
	<g id="g6704_1_" filter="url(#Adobe_OpacityMaskFilter)">
		<path id="path6706_1_" fill="#FFFFFF" d="M147.004,12.167h290.81v290.811h-290.81V12.167z"/>
		<path id="path6708_1_" fill="#010101" d="M240.072,130.908c0,0,3.362-20.289,19.826-32.717c0,0,26.739,18.18,67.659,0.485
			c0,0,15.117,7.109,20.357,32.474l0,0c0,0,3.111-26.088-8.725-42.167c0,0-2.082-10.603-19.631-19.146l-6.543,3.877
			c0,0-4.225-5.184-15.509-11.632c0,0-7.61,3.961-11.874,10.421l-7.271-4.604c0,0-8.751,4.101-14.299,11.875l-9.693,1.454
			l-5.089,9.208c0,0-10.57,8.074-9.451,40.714L240.072,130.908z"/>
	</g>
</mask>
<path id="Shape_6_copy" mask="url(#_1_1_)" fill="#3C444F" d="M241.709,142.783c0,0,2.454-27.29,18.188-40.714
	c0,0,26.013,17.938,66.93,0.242c0,0,16.402,6.062,19.16,39.986l4.605,0.242c0,0,5.182-39.1-8.246-54.526
	c0,0-4.762-13.511-22.309-22.053l-6.539,3.635c0,0-4.225-4.941-15.509-11.39c0,0-8.821,3.234-13.086,9.694l-6.334-4.12
	c0,0-10.215,4.828-15.762,12.602l-10.67,1.454l-5.819,10.663c0,0-12.735,10.987-8.732,53.073L241.709,142.783z"/>
<path id="new_x5F_vector_x5F_shape_x5F_done_copy" opacity="0.2" fill="#3C444F" enable-background="new    " d="M294.76,71.053
	c0.357,0.265,0.181,0.511,0.104,0.842c-0.116,0.495-0.253,0.985-0.33,1.479c-0.117,0.748-0.224,1.497-0.255,2.235
	c-0.025,0.621-0.015,1.239-0.003,1.854c0.006,0.355,0.066,0.709,0.075,1.064c0.003,0.142,0.042,0.285,0.047,0.429
	c0.008,0.04,0.017,0.079,0.025,0.118c0.006,0.181,0.053,0.354,0.058,0.536c0.03,0.164,0.06,0.328,0.089,0.492
	c0.044,0.26,0.064,0.531,0.145,0.784c0.009,0.065,0.018,0.13,0.026,0.195c0.062,0.201,0.083,0.408,0.146,0.61
	c0.005,0.04,0.009,0.08,0.014,0.12c0.093,0.291,0.134,0.597,0.226,0.886c0.148,0.47,0.271,0.941,0.435,1.41
	c0.109,0.311,0.203,0.636,0.313,0.949c0.195,0.556,0.434,1.099,0.648,1.649c0.13,0.335,0.306,0.645,0.445,0.978
	c0.396,0.944,0.905,1.872,1.393,2.796c0.157,0.299,0.33,0.574,0.504,0.865c0.111,0.187,0.227,0.396,0.33,0.587
	c0.057,0.106,0.127,0.187,0.189,0.289c0.133,0.224,0.278,0.464,0.41,0.689c0.122,0.208,0.259,0.386,0.394,0.589
	c0.145,0.219,0.288,0.465,0.436,0.685c0.255,0.382,0.527,0.751,0.779,1.128c0.264,0.392,0.559,0.738,0.836,1.125
	c0.539,0.748,1.17,1.466,1.75,2.217c0.176,0.226,0.383,0.422,0.557,0.64c0.088,0.108,0.232,0.203,0.291,0.317
	c0.023,0.046,0.037,0.118,0.055,0.171c0.027,0.084,0.02,0.188,0.02,0.278c0.004,0.144,0.01,0.289-0.014,0.438
	c-0.027,0.156-0.127,0.327-0.191,0.48c-0.051,0.123-0.18,0.232-0.252,0.292c-0.061,0.051-0.086,0.098-0.148,0.146
	c-0.162,0.128-0.346,0.232-0.523,0.285c-0.184,0.056-0.422-0.109-0.566-0.284c-0.254-0.305-0.572-0.585-0.816-0.891
	c-0.053-0.065-0.111-0.095-0.162-0.159c-0.281-0.356-0.627-0.692-0.906-1.043c-0.062-0.08-0.133-0.125-0.193-0.205
	c-0.217-0.281-0.47-0.535-0.69-0.822c-0.551-0.72-1.145-1.415-1.642-2.14c-0.116-0.169-0.241-0.303-0.355-0.474
	c-0.806-1.204-1.614-2.387-2.261-3.614c-0.169-0.323-0.356-0.616-0.516-0.94c-0.452-0.92-0.873-1.839-1.26-2.767
	c-0.051-0.122-0.088-0.259-0.135-0.383c-0.211-0.557-0.402-1.106-0.593-1.665c-0.191-0.563-0.301-1.151-0.479-1.716
	c-0.038-0.119-0.05-0.249-0.088-0.371c-0.006-0.043-0.011-0.088-0.016-0.132c-0.042-0.132-0.047-0.273-0.087-0.402
	c-0.098-0.31-0.127-0.646-0.181-0.964c-0.051-0.301-0.119-0.608-0.127-0.915c-0.013-0.056-0.023-0.112-0.035-0.167
	c-0.006-0.199-0.056-0.396-0.061-0.593c-0.009-0.343-0.063-0.685-0.069-1.027c-0.009-0.426-0.024-0.853-0.022-1.279
	c0.003-0.427,0.038-0.844,0.062-1.274c0.067-1.166,0.28-2.336,0.562-3.543c0.103-0.438,0.266-0.866,0.404-1.304
	c0.095-0.302,0.244-0.593,0.351-0.892c0.027-0.078,0.07-0.124,0.101-0.203c0.063-0.168,0.147-0.375,0.304-0.486
	c0.069-0.049,0.229-0.076,0.312-0.052C294.673,71.01,294.709,71.054,294.76,71.053z M283.388,79.407
	c0.258,0.187,0.237,0.46,0.243,0.691c0.007,0.239,0.075,0.477,0.082,0.718c0.028,0.167,0.056,0.333,0.084,0.499
	c0.004,0.135,0.037,0.263,0.06,0.394c0.022,0.136,0.032,0.272,0.074,0.405c0.024,0.15,0.05,0.299,0.075,0.449
	c0.041,0.132,0.046,0.273,0.087,0.402c0.125,0.401,0.173,0.826,0.301,1.227c0.136,0.424,0.235,0.863,0.382,1.283
	c0.193,0.551,0.382,1.105,0.592,1.653c0.106,0.28,0.234,0.542,0.349,0.821c0.088,0.213,0.171,0.445,0.271,0.654
	c0.413,0.865,0.84,1.73,1.294,2.594c0.359,0.684,0.789,1.336,1.184,2.011c0.121,0.208,0.259,0.386,0.394,0.589
	c0.304,0.457,0.628,0.932,0.939,1.396c0.295,0.438,0.648,0.848,0.958,1.277c0.051,0.07,0.109,0.108,0.158,0.179
	c0.157,0.227,0.363,0.445,0.536,0.669c0.086,0.111,0.196,0.189,0.275,0.307c0.173,0.256,0.281,0.733,0.198,1.031
	c-0.143,0.517-0.641,0.864-1.02,0.997c-0.114,0.04-0.293,0.112-0.417,0.075c-0.196-0.059-0.321-0.233-0.436-0.377
	c-0.147-0.186-0.32-0.321-0.463-0.507c-0.265-0.343-0.576-0.649-0.841-0.996c-0.554-0.725-1.121-1.426-1.613-2.163
	c-1.139-1.708-2.084-3.432-2.821-5.202c-0.306-0.734-0.553-1.493-0.799-2.24c-0.088-0.267-0.136-0.551-0.221-0.817
	c-0.115-0.364-0.167-0.739-0.28-1.101c-0.006-0.048-0.012-0.097-0.018-0.145c-0.019-0.081-0.046-0.159-0.06-0.241
	c-0.01-0.068-0.019-0.138-0.028-0.207c-0.043-0.137-0.053-0.277-0.076-0.417c-0.022-0.135-0.058-0.268-0.062-0.406
	c-0.018-0.089-0.034-0.178-0.052-0.267c-0.01-0.364-0.098-0.72-0.104-1.086c-0.002-0.086-0.029-0.178-0.031-0.264
	c-0.009-0.35-0.043-0.701-0.042-1.051c0.002-0.399-0.002-0.804,0.023-1.203c0.01-0.157,0.037-0.305,0.044-0.462
	c0.008-0.173,0.039-0.338,0.062-0.517c0.014-0.106,0.014-0.234,0.045-0.341c0.033-0.109,0.145-0.284,0.247-0.33
	c0.069-0.03,0.205-0.061,0.281-0.04C283.3,79.363,283.336,79.408,283.388,79.407z M274.697,81.218
	c0.291,0.213,0.21,0.481,0.208,0.742c-0.003,0.419,0.04,0.837,0.05,1.255c0.009,0.333,0.094,0.664,0.103,0.997
	c0.021,0.105,0.04,0.211,0.06,0.317c0.006,0.185,0.045,0.423,0.101,0.599c0.005,0.044,0.011,0.088,0.016,0.132
	c0.018,0.102,0.039,0.202,0.07,0.302c0.007,0.057,0.015,0.113,0.021,0.169c0.075,0.238,0.098,0.493,0.174,0.728
	c0.181,0.564,0.325,1.14,0.522,1.703c0.428,1.22,1.016,2.402,1.641,3.589c0.204,0.388,0.458,0.749,0.664,1.134
	c0.088,0.164,0.204,0.298,0.301,0.457c0.268,0.435,0.576,0.868,0.866,1.3c0.401,0.597,0.89,1.14,1.316,1.731
	c0.149,0.207,0.338,0.387,0.483,0.587c0.129,0.178,0.296,0.311,0.434,0.485c0.274,0.348,0.619,0.678,0.909,1.023
	c0.168,0.199,0.367,0.361,0.529,0.554c0.181,0.216,0.408,0.388,0.587,0.596c0.045,0.039,0.091,0.079,0.136,0.118
	c0.182,0.216,0.436,0.406,0.623,0.622c0.08,0.092,0.176,0.135,0.257,0.227c0.263,0.299,0.635,0.542,0.904,0.844
	c0.077,0.087,0.18,0.145,0.249,0.222c0.029,0.021,0.059,0.042,0.088,0.062c0.093,0.104,0.238,0.199,0.333,0.305
	c0.031,0.022,0.062,0.045,0.095,0.067c0.154,0.172,0.393,0.308,0.549,0.479c0.041,0.029,0.082,0.06,0.124,0.089
	c0.198,0.22,0.514,0.377,0.716,0.6c0.091,0.068,0.181,0.137,0.271,0.205c0.045,0.049,0.14,0.091,0.191,0.147
	c0.138,0.151,0.369,0.271,0.519,0.415c0.088,0.085,0.227,0.144,0.301,0.226c0.066,0.072,0.185,0.12,0.243,0.185
	c0.189,0.135,0.379,0.271,0.568,0.406c0.448,0.32,0.895,0.62,1.329,0.928c0.205,0.146,0.461,0.26,0.587,0.441
	c0.071,0.103,0.101,0.25,0.138,0.361c0.085,0.252,0.119,0.552,0.049,0.826c-0.021,0.083-0.065,0.14-0.097,0.228
	c-0.051,0.141-0.134,0.357-0.284,0.489c-0.097,0.086-0.198,0.201-0.307,0.275c-0.166,0.114-0.348,0.054-0.55-0.03
	c-0.065-0.043-0.13-0.086-0.195-0.129c-0.311-0.133-0.602-0.419-0.913-0.554c-0.061-0.025-0.123-0.091-0.173-0.112
	c-0.104-0.07-0.208-0.141-0.312-0.211c-0.114-0.05-0.217-0.17-0.346-0.226c-0.107-0.047-0.218-0.134-0.324-0.209
	c-0.038-0.028-0.077-0.056-0.116-0.083c-0.104-0.046-0.227-0.141-0.324-0.21c-0.141-0.101-0.281-0.201-0.422-0.302
	c-0.151-0.065-0.319-0.217-0.465-0.32c-0.12-0.086-0.283-0.179-0.373-0.278c-0.083-0.06-0.166-0.118-0.248-0.177
	c-0.173-0.124-0.343-0.245-0.492-0.374c-0.083-0.06-0.166-0.118-0.248-0.177c-0.12-0.133-0.327-0.232-0.445-0.362
	c-0.057-0.04-0.112-0.08-0.168-0.12c-0.087-0.096-0.236-0.18-0.321-0.273c-0.049-0.035-0.098-0.07-0.146-0.104
	c-0.065-0.073-0.183-0.149-0.248-0.222c-0.039-0.027-0.078-0.056-0.117-0.084c-0.228-0.252-0.561-0.442-0.783-0.69
	c-0.069-0.057-0.139-0.114-0.208-0.171c-0.287-0.323-0.675-0.583-0.952-0.9c-0.075-0.087-0.161-0.125-0.234-0.211
	c-0.256-0.298-0.583-0.563-0.83-0.856c-0.041-0.049-0.08-0.061-0.121-0.108c-0.116-0.14-0.267-0.284-0.379-0.425
	c-0.053-0.066-0.109-0.094-0.161-0.159c-0.39-0.492-0.849-0.932-1.227-1.426c-0.67-0.875-1.368-1.729-1.897-2.63
	c-0.119-0.204-0.262-0.375-0.379-0.578c-0.205-0.36-0.43-0.715-0.624-1.083c-0.303-0.576-0.586-1.156-0.861-1.736
	c-0.194-0.408-0.348-0.847-0.507-1.263c-0.131-0.342-0.255-0.674-0.375-1.016c-0.118-0.336-0.203-0.686-0.312-1.025
	c-0.113-0.346-0.158-0.712-0.268-1.059c-0.042-0.132-0.037-0.299-0.078-0.43c-0.103-0.324-0.127-0.676-0.183-1.009
	c-0.237-1.42-0.263-2.876-0.158-4.354c0.024-0.341,0.096-0.664,0.151-1.013c0.025-0.159,0.077-0.361,0.254-0.478
	c0.056-0.038,0.234-0.067,0.299-0.05C274.606,81.173,274.648,81.219,274.697,81.218z"/>
<path fill="#3C444F" d="M347.21,160.941c-0.548-5.368-3.09-10.494-7.197-14.253c-4.26-3.88-9.788-6.028-15.616-6.028
	c-10.338,0-19.255,6.687-22.044,16.352c-1.743-1.707-4.607-2.854-7.298-2.854c-2.69,0-5.554,1.147-7.298,2.854
	c-2.79-9.665-11.705-16.352-22.042-16.352c-5.804,0-11.357,2.124-15.616,6.003c-4.111,3.784-6.65,8.91-7.198,14.278h-3.638v4.395
	h3.638c0.547,5.369,3.087,10.494,7.198,14.254c4.259,3.881,9.788,6.027,15.616,6.027c12.652,0,22.939-10.055,22.939-22.453
	c0-0.025,0-0.025,0-0.025l0,0c0-2.417,2.864-5.272,6.401-5.272c3.537,0,6.4,2.855,6.4,5.272l0,0c0,0,0,0,0,0.025
	c0,12.398,10.287,22.453,22.941,22.453c5.802,0,11.356-2.123,15.616-6.027c4.107-3.76,6.649-8.91,7.197-14.279h3.637v-4.393h-3.637
	V160.941z M324.396,181.932c-10.587,0-19.18-8.445-19.18-18.793c0-10.374,8.618-18.794,19.18-18.794
	c10.583,0,19.178,8.445,19.178,18.794C343.574,173.512,334.979,181.932,324.396,181.932z M265.715,181.932
	c-10.585,0-19.179-8.445-19.179-18.793c0-10.374,8.618-18.794,19.179-18.794c10.584,0,19.177,8.445,19.177,18.794
	C284.892,173.512,276.299,181.932,265.715,181.932z"/>
<ellipse fill="#FFE269" cx="297" cy="195.25" rx="5.5" ry="4.75"/>
<ellipse fill="#FFE269" cx="296.802" cy="209.25" rx="7.526" ry="6.5"/>
<text transform="matrix(1 0 0 1 291.5 213.25)" fill="#3C444F" font-family="'Seravek'" font-size="36">3</text>
</svg>
