<?xml version="1.0" encoding="utf-8"?>
<!-- Generator: Adobe Illustrator 16.0.0, SVG Export Plug-In . SVG Version: 6.00 Build 0)  -->
<!DOCTYPE svg PUBLIC "-//W3C//DTD SVG 1.1//EN" "http://www.w3.org/Graphics/SVG/1.1/DTD/svg11.dtd">
<svg version="1.1" xmlns="http://www.w3.org/2000/svg" xmlns:xlink="http://www.w3.org/1999/xlink" x="0px" y="0px" width="600px"
	 height="300.24px" viewBox="0 0 600 300.24" enable-background="new 0 0 600 300.24" xml:space="preserve">
<g id="Layer_1">
	<rect x="0" y="0.119" fill="#65C6BB" stroke="#000000" stroke-miterlimit="10" width="600" height="300.001"/>
</g>
<g id="Layer_3">
	<g>
		<g>
			<path fill="#E57E25" d="M81.849,270.119h8v-8h-8V270.119z M97.849,262.119v-8h-8v8H97.849z M81.849,254.119h8v-8h-8V254.119z
				 M97.849,246.119v-8h-8v8H97.849z M81.849,238.119h8v-8h-8V238.119z M97.849,230.119v-8h-8v8H97.849z M81.849,222.119h8v-7.999
				h-8V222.119z M89.849,214.12h8v-8h-8V214.12z M113.849,230.119h72V198.12h-72V230.119z M121.849,206.12h56v15.999h-56V206.12z
				 M137.849,166.12h-24v24h24V166.12z M145.849,166.12v8h40v-8H145.849z M169.849,182.12h-24v8h24V182.12z M113.849,262.119h32v-8
				h-32V262.119z M113.849,246.119h32v-8h-32V246.119z M153.849,246.119h32v-8h-32V246.119z M153.849,262.119h16v-8h-16V262.119z"/>
		</g>
	</g>
	<path fill="#FFFFFF" d="M177.849,278.119h-48h-40c-8.836,0-16-7.164-16-16V198.12h24v-48h104v103.999
		C201.849,267.377,191.106,278.119,177.849,278.119z M81.849,262.119c0,4.422,3.578,8,8,8s8-3.578,8-8v-8h-8V206.12h-8V262.119z
		 M193.849,158.12h-88v103.999c0,2.805-0.484,5.5-1.367,8h73.367c8.82,0,16-7.18,16-16V158.12z"/>
</g>
<g id="Layer_2">
	<path fill="#E57E25" d="M279.898,231.896c-5.848,7.154-16.388,8.209-23.54,2.359l-6.477-5.295
		c-7.156-5.852-8.212-16.389-2.364-23.541c1.301-1.592,2.498-3.229,3.65-4.889c0.189-0.279,0.395-0.547,0.583-0.828
		c1.066-1.59,2.065-3.217,3-4.863c0.185-0.318,0.356-0.641,0.533-0.963c0.918-1.68,1.783-3.375,2.564-5.107
		c0.116-0.25,0.214-0.498,0.323-0.748c0.789-1.797,1.523-3.605,2.166-5.443c0.011-0.027,0.021-0.062,0.031-0.088
		c0.646-1.85,1.192-3.725,1.682-5.607c0.074-0.273,0.155-0.539,0.222-0.812c0.452-1.812,0.827-3.633,1.142-5.463
		c0.057-0.322,0.109-0.643,0.166-0.969c0.288-1.84,0.519-3.688,0.672-5.537c0.022-0.256,0.038-0.514,0.057-0.764
		c0.14-1.9,0.221-3.801,0.219-5.699c0.001-0.053-0.003-0.117,0-0.17c-0.012-1.896-0.109-3.789-0.259-5.68
		c-0.02-0.314-0.04-0.627-0.07-0.945c-0.166-1.816-0.407-3.633-0.709-5.435c-0.051-0.328-0.108-0.66-0.167-0.979
		c-0.33-1.82-0.708-3.626-1.171-5.415c-0.064-0.255-0.143-0.505-0.209-0.76c-0.495-1.847-1.036-3.679-1.676-5.492
		c-0.012-0.029-0.019-0.058-0.03-0.091c-0.629-1.785-1.353-3.545-2.113-5.289c-0.138-0.313-0.265-0.623-0.407-0.932
		c-0.751-1.651-1.574-3.269-2.45-4.872c-0.185-0.337-0.369-0.675-0.562-1.01c-0.911-1.605-1.877-3.181-2.915-4.727
		c-0.162-0.239-0.336-0.479-0.499-0.716c-3.943-5.733-8.734-11.025-14.395-15.653c-3.576-2.924-8.845-2.398-11.77,1.178
		l-5.296,6.477c-2.924,3.576-2.395,8.848,1.18,11.771c3.555,2.907,6.561,6.232,9.102,9.798c0.776,1.097,1.504,2.213,2.185,3.357
		c0.045,0.065,0.073,0.134,0.114,0.196c3.356,5.684,5.511,11.915,6.442,18.318c0.039,0.279,0.093,0.557,0.125,0.834
		c0.131,1.025,0.225,2.051,0.291,3.082c0.03,0.453,0.057,0.906,0.073,1.361c0.041,0.941,0.055,1.873,0.04,2.818
		c-0.011,0.561-0.044,1.127-0.075,1.691c-0.047,0.889-0.082,1.775-0.171,2.658c-0.07,0.646-0.182,1.281-0.272,1.922
		c-0.181,1.26-0.402,2.506-0.68,3.752c-0.204,0.912-0.404,1.826-0.661,2.732c-0.173,0.627-0.39,1.242-0.592,1.865
		c-0.27,0.826-0.544,1.65-0.86,2.467c-0.232,0.607-0.484,1.207-0.742,1.805c-0.366,0.848-0.756,1.686-1.167,2.516
		c-0.27,0.543-0.538,1.086-0.834,1.625c-0.486,0.9-1.023,1.779-1.566,2.65c-0.292,0.459-0.562,0.926-0.866,1.377
		c-0.553,0.82-1.173,1.611-1.775,2.408c-0.315,0.482-0.658,0.945-1.032,1.402c-5.846,7.148-16.386,8.209-23.542,2.355l-4.858-3.973
		l-1.619-1.322c-7.152-5.85-8.208-16.391-2.361-23.539c2.926-3.578,2.397-8.852-1.178-11.777c-3.577-2.922-8.849-2.393-11.774,1.186
		c-2.923,3.574-2.394,8.844,1.183,11.77c1.79,1.463,2.052,4.096,0.591,5.885c-1.463,1.789-4.097,2.055-5.887,0.592
		c-7.151-5.852-8.209-16.391-2.361-23.542c5.853-7.157,16.392-8.213,23.544-2.364c7.152,5.848,8.213,16.389,2.36,23.545
		c-2.922,3.578-2.396,8.842,1.181,11.768l1.618,1.324l4.858,3.971c3.576,2.924,8.848,2.398,11.77-1.176
		c4.013-4.908,6.678-10.457,8.134-16.221c0.124-0.492,0.254-0.986,0.36-1.486c0.142-0.664,0.263-1.336,0.375-2.008
		c0.086-0.504,0.151-1.016,0.214-1.52c0.083-0.645,0.165-1.291,0.217-1.932c0.077-0.984,0.114-1.971,0.126-2.957
		c0.001-0.58-0.024-1.156-0.041-1.736c-0.023-0.682-0.052-1.373-0.106-2.055c-0.05-0.555-0.104-1.102-0.173-1.654
		c-0.084-0.705-0.201-1.408-0.319-2.109c-0.077-0.445-0.147-0.895-0.238-1.338c-0.234-1.121-0.5-2.242-0.825-3.341
		c-0.095-0.32-0.218-0.628-0.322-0.947c-0.269-0.833-0.554-1.671-0.875-2.491c-0.166-0.421-0.343-0.832-0.522-1.245
		c-0.321-0.754-0.676-1.499-1.042-2.235c-0.184-0.361-0.354-0.726-0.545-1.081c-0.573-1.056-1.183-2.099-1.846-3.114
		c-0.083-0.122-0.174-0.24-0.259-0.363c-0.608-0.901-1.257-1.792-1.943-2.648c-0.254-0.319-0.528-0.637-0.796-0.954
		c-0.57-0.68-1.173-1.341-1.794-1.99c-0.27-0.279-0.528-0.554-0.807-0.829c-0.918-0.9-1.861-1.774-2.875-2.604
		c-7.151-5.849-8.208-16.39-2.357-23.543l5.297-6.478c5.85-7.153,16.389-8.211,23.542-2.362c1.053,0.861,2.069,1.743,3.07,2.645
		c0.364,0.327,0.712,0.672,1.075,1.007c0.655,0.614,1.314,1.224,1.945,1.851c0.33,0.33,0.647,0.661,0.967,0.995
		c0.622,0.641,1.242,1.283,1.838,1.939c0.359,0.391,0.706,0.791,1.052,1.188c0.5,0.567,0.987,1.134,1.473,1.712
		c0.385,0.469,0.763,0.933,1.137,1.403c0.491,0.613,0.971,1.236,1.436,1.86c0.312,0.417,0.62,0.833,0.93,1.255
		c0.449,0.629,0.887,1.264,1.324,1.9c0.312,0.462,0.635,0.927,0.941,1.396c0.395,0.599,0.762,1.203,1.137,1.819
		c0.326,0.527,0.659,1.053,0.965,1.589c0.31,0.533,0.605,1.082,0.906,1.618c0.325,0.588,0.664,1.174,0.973,1.773
		c0.27,0.517,0.515,1.032,0.774,1.553c0.647,1.306,1.259,2.624,1.838,3.958c0.183,0.416,0.371,0.832,0.542,1.249
		c0.296,0.713,0.567,1.435,0.839,2.152c0.181,0.463,0.371,0.926,0.537,1.397c0.274,0.755,0.523,1.521,0.775,2.287
		c0.138,0.42,0.283,0.836,0.415,1.26c0.236,0.755,0.455,1.516,0.665,2.274c0.135,0.487,0.272,0.979,0.401,1.472
		c0.184,0.71,0.359,1.421,0.526,2.127c0.119,0.5,0.228,0.999,0.332,1.497c0.164,0.773,0.323,1.548,0.467,2.326
		c0.076,0.411,0.145,0.823,0.214,1.235c0.144,0.851,0.287,1.701,0.404,2.56c0.043,0.282,0.068,0.561,0.105,0.842
		c1.03,8.083,0.896,16.316-0.454,24.41c-0.012,0.098-0.032,0.199-0.05,0.297c-0.184,1.086-0.392,2.17-0.62,3.25
		c-0.03,0.139-0.06,0.271-0.091,0.412c-0.234,1.096-0.486,2.186-0.772,3.275c-0.015,0.053-0.029,0.107-0.045,0.164
		c-0.295,1.143-0.615,2.275-0.964,3.408c-0.002,0.004-0.005,0.006-0.008,0.018c-1.795,5.832-4.251,11.523-7.375,16.967
		c-2.26,3.936-4.851,7.748-7.821,11.381c-2.924,3.576-2.393,8.846,1.183,11.77l6.477,5.295c3.576,2.926,8.844,2.396,11.768-1.178
		c4.287-5.244,7.975-10.777,11.125-16.506c0.035-0.064,0.072-0.123,0.108-0.191c0.767-1.404,1.501-2.82,2.199-4.248
		c0.03-0.055,0.059-0.104,0.082-0.156c0.669-1.373,1.312-2.756,1.92-4.148c0.082-0.182,0.162-0.365,0.241-0.549
		c0.6-1.395,1.167-2.783,1.707-4.195c0.012-0.027,0.026-0.062,0.042-0.094c4.045-10.6,6.349-21.652,6.955-32.758
		c0.006-0.037,0.011-0.07,0.008-0.109c0.076-1.385,0.114-2.771,0.135-4.162c0.002-0.273,0.016-0.553,0.02-0.83
		c0.01-1.281-0.011-2.566-0.047-3.848c-0.01-0.369-0.023-0.734-0.032-1.102c-0.047-1.266-0.126-2.543-0.215-3.809
		c-0.027-0.35-0.052-0.703-0.08-1.052c-0.099-1.22-0.223-2.442-0.363-3.654c-0.055-0.451-0.109-0.9-0.166-1.354
		c-0.153-1.178-0.325-2.359-0.513-3.538c-0.067-0.429-0.145-0.856-0.221-1.288c-0.197-1.155-0.411-2.313-0.653-3.46
		c-0.111-0.528-0.232-1.05-0.351-1.578c-0.241-1.063-0.476-2.135-0.749-3.194c-0.138-0.524-0.287-1.045-0.43-1.574
		c-0.295-1.082-0.588-2.169-0.912-3.242c-0.074-0.234-0.148-0.459-0.222-0.69c-0.842-2.7-1.786-5.37-2.843-8.004
		c-0.054-0.143-0.104-0.286-0.161-0.425c-0.32-0.782-0.666-1.556-1-2.333c-0.344-0.802-0.684-1.602-1.049-2.391
		c-0.342-0.746-0.712-1.486-1.073-2.222c-0.369-0.75-0.729-1.493-1.115-2.237c-0.405-0.786-0.831-1.554-1.256-2.331
		c-0.405-0.737-0.804-1.463-1.227-2.19c-0.402-0.693-0.821-1.382-1.24-2.062c-0.49-0.802-0.987-1.601-1.498-2.394
		c-0.408-0.632-0.829-1.266-1.255-1.894c-0.525-0.781-1.064-1.55-1.615-2.313c-0.473-0.66-0.948-1.315-1.437-1.964
		c-0.543-0.72-1.101-1.432-1.663-2.146c-0.51-0.65-1.021-1.291-1.552-1.931c-0.603-0.723-1.221-1.446-1.846-2.156
		c-0.505-0.585-1.006-1.164-1.531-1.738c-0.756-0.824-1.541-1.633-2.32-2.443c-0.429-0.44-0.839-0.879-1.272-1.312
		c-0.896-0.89-1.824-1.763-2.754-2.626c-0.384-0.359-0.751-0.725-1.147-1.078c-0.308-0.276-0.632-0.541-0.945-0.815l0.03-0.036
		c-0.811-0.676-1.369-1.652-1.483-2.787c-0.23-2.297,1.448-4.349,3.745-4.579c1.252-0.126,2.401,0.352,3.251,1.148
		C313.733,111.463,319.896,182.986,279.898,231.896L279.898,231.896z M248.362,65.623c-1.786-1.461-2.048-4.097-0.587-5.884
		c1.463-1.79,4.098-2.054,5.883-0.593c1.791,1.464,2.055,4.098,0.591,5.888C252.788,66.82,250.152,67.086,248.362,65.623
		L248.362,65.623z"/>
	<path fill="#FFFFFF" d="M532.028,158.421c-1.606,0-3.17,0.12-4.722,0.287c-1.363-20.875-22.073-37.458-47.416-37.458
		c-20.694,0-36.451,12.577-42.963,27.992c-3.475-0.761-8.952-2.697-12.71-2.697c-23.652,0-42.823,16.001-42.823,35.757
		c0,19.746,19.171,35.756,42.823,35.756c1.579,0,3.41,0,5.421,0v4.331c0,0.133,0.02,0.42,0.032,0.554
		c0.06,0.755,0.244,1.495,0.604,2.305l0,0c0.075,0.193,0.163,0.38,0.319,0.667c0.104,0.173,0.363,0.567,0.487,0.733l0.221,0.289
		c0.104,0.125,0.436,0.492,0.436,0.492c0.128,0.146,0.479,0.48,0.567,0.555c0.096,0.086,0.231,0.2,0.376,0.314
		c0.295,0.239,0.631,0.473,1.083,0.753c0.155,0.093,0.312,0.182,0.468,0.268c0.344,0.173,0.691,0.334,1.051,0.473
		c0.049,0.021,41.092,15.076,41.092,15.076c1.248,0.446,2.547,0.673,3.891,0.673h20.621c11.699-0.013,21.227-7.964,21.23-17.736
		c0,0,0-5.948,0-9.748c4.302,0,7.732,0,9.91,0c19.727,0,35.719-13.352,35.719-29.821
		C567.746,171.766,551.754,158.421,532.028,158.421z"/>
	<path fill="#FFFFFF" d="M523.841,218.945c-0.048,0.072-1.959,2.68-2.012,2.742l-13.265-9.578c0.043-0.072,1.922-2.703,1.975-2.775
		c0.92-1.271,2.654-1.584,3.878-0.703l8.871,6.412C524.512,215.932,524.76,217.674,523.841,218.945z"/>
	<polygon fill="#FFFFFF" points="491.137,236.201 492.516,237.201 504.438,245.805 491.716,249.594 491.176,237.201 	"/>
	<polygon fill="#ADB3B7" points="438.546,259.873 435.06,252.936 438.6,252.848 438.546,156.663 516.053,156.663 516.053,259.873 	
		"/>
	<polygon fill="#D8D9D8" points="510.125,150.119 513.739,157.707 513.753,257.174 510.125,257.174 	"/>
	<polygon fill="#EDEDED" points="438.453,257.174 436.247,252.848 438.453,252.848 438.453,154.445 512.582,154.445 
		511.596,252.848 513.739,257.174 	"/>
	<rect x="435.06" y="150.119" fill="#F37A7C" width="77.522" height="102.729"/>
	<polygon fill="#C42126" points="512.582,216.677 476.906,252.545 512.582,252.545 	"/>
	<rect x="435.06" y="150.119" fill="#CE4F4F" width="12.728" height="102.729"/>
	<g transform="translate(0 -1028.4)">
		<g transform="matrix(1.0607 1.0607 -1.0607 1.0607 1146.8 34.926)">
			<path fill="#EDF0F1" d="M150.354,894.356l42.158,0.002l2.612-0.002l3.73,0l7.463-7.463l-7.463-7.463l-3.73,0l-2.612,0.001h-42.16
				L150.354,894.356z"/>
			<path fill="#BDC3C7" d="M150.354,894.356l42.158,0.002l2.612-0.002l3.73,0l7.463-7.463l-55.963,0.002L150.354,894.356z"/>
			
				<rect x="167.143" y="866.375" transform="matrix(2.698102e-06 1 -1 2.698102e-06 1061.4993 712.2871)" fill="#E57E25" width="14.924" height="41.038"/>
			<path fill="#7F8C8D" d="M146.623,894.356h3.731l-0.002-14.923l-3.73,0c-4.102,0-7.461,3.339-7.461,7.461
				C139.161,891.016,142.519,894.356,146.623,894.356z"/>
			<g transform="translate(-7,1)">
				<path fill="#364A5E" d="M208.092,885.894l0.002,5.247l5.223-5.247l-5.223-5.243L208.092,885.894z"/>
				<path fill="#2D3F50" d="M208.094,891.141l5.223-5.247h-5.225L208.094,891.141z"/>
			</g>
			<path fill="#95A5A6" d="M150.354,886.896l-0.001-7.463l-3.73,0c-4.102,0-7.461,3.339-7.461,7.461L150.354,886.896z"/>
			
				<rect x="170.875" y="870.107" transform="matrix(2.698102e-06 1 -1 2.698102e-06 1065.2313 716.0191)" fill="#D25727" width="7.46" height="41.038"/>
		</g>
	</g>
</g>
</svg>
