<?xml version="1.0" encoding="utf-8"?>
<!-- Generator: Adobe Illustrator 16.0.0, SVG Export Plug-In . SVG Version: 6.00 Build 0)  -->
<!DOCTYPE svg PUBLIC "-//W3C//DTD SVG 1.1//EN" "http://www.w3.org/Graphics/SVG/1.1/DTD/svg11.dtd">
<svg version="1.1" id="Layer_1" xmlns="http://www.w3.org/2000/svg" xmlns:xlink="http://www.w3.org/1999/xlink" x="0px" y="0px"
	 width="600px" height="300.24px" viewBox="0 0 600 300.24" enable-background="new 0 0 600 300.24" xml:space="preserve">
<g id="Layer_3">
	<g>
		<g>
			<path fill="#E57E25" d="M81.849,226.119h8v-8h-8V226.119z M97.849,218.119v-8h-8v8H97.849z M81.849,210.119h8v-8h-8V210.119z
				 M97.849,202.119v-8h-8v8H97.849z M81.849,194.119h8v-8h-8V194.119z M97.849,186.119v-8h-8v8H97.849z M81.849,178.119h8v-7.999
				h-8V178.119z M89.849,170.12h8v-8h-8V170.12z M113.849,186.119h72V154.12h-72V186.119z M121.849,162.12h56v15.999h-56V162.12z
				 M137.849,122.12h-24v24h24V122.12z M145.849,122.12v8h40v-8H145.849z M169.849,138.12h-24v8h24V138.12z M113.849,218.119h32v-8
				h-32V218.119z M113.849,202.119h32v-8h-32V202.119z M153.849,202.119h32v-8h-32V202.119z M153.849,218.119h16v-8h-16V218.119z"/>
		</g>
	</g>
	<path fill="#FFFFFF" d="M177.849,234.119h-48h-40c-8.836,0-16-7.164-16-16V154.12h24v-48h104v103.999
		C201.849,223.377,191.106,234.119,177.849,234.119z M81.849,218.119c0,4.422,3.578,8,8,8c4.422,0,8-3.578,8-8v-8h-8V162.12h-8
		V218.119z M193.849,114.12h-88v103.999c0,2.805-0.484,5.5-1.367,8h73.367c8.82,0,16-7.181,16-16V114.12z"/>
</g>
<path fill="#E57E25" d="M279.898,63.426c39.999,48.91,33.834,120.433-13.142,161.881c-0.85,0.796-1.999,1.273-3.251,1.148
	c-2.297-0.23-3.975-2.283-3.745-4.58c0.114-1.135,0.672-2.111,1.483-2.787l-0.03-0.035c0.313-0.274,0.637-0.539,0.945-0.815
	c0.396-0.353,0.763-0.719,1.147-1.078c0.93-0.862,1.858-1.735,2.754-2.626c0.433-0.433,0.843-0.872,1.272-1.312
	c0.779-0.81,1.564-1.618,2.32-2.442c0.525-0.573,1.026-1.153,1.531-1.737c0.625-0.711,1.243-1.434,1.846-2.156
	c0.531-0.641,1.042-1.281,1.552-1.932c0.562-0.714,1.12-1.426,1.663-2.146c0.489-0.649,0.964-1.304,1.437-1.964
	c0.551-0.764,1.09-1.532,1.615-2.313c0.426-0.628,0.847-1.262,1.255-1.894c0.511-0.793,1.008-1.592,1.498-2.395
	c0.419-0.68,0.838-1.369,1.24-2.062c0.423-0.727,0.822-1.452,1.227-2.189c0.425-0.777,0.851-1.545,1.256-2.331
	c0.386-0.743,0.746-1.487,1.115-2.237c0.361-0.735,0.731-1.476,1.073-2.222c0.365-0.789,0.705-1.589,1.049-2.391
	c0.334-0.777,0.68-1.552,1-2.333c0.057-0.139,0.107-0.282,0.161-0.426c1.057-2.633,2.001-5.303,2.843-8.004
	c0.074-0.23,0.148-0.455,0.222-0.689c0.324-1.073,0.617-2.16,0.912-3.242c0.143-0.529,0.292-1.05,0.43-1.574
	c0.273-1.059,0.508-2.131,0.749-3.193c0.119-0.528,0.24-1.051,0.351-1.578c0.242-1.148,0.456-2.305,0.653-3.46
	c0.076-0.433,0.154-0.859,0.221-1.288c0.188-1.18,0.36-2.36,0.513-3.538c0.057-0.454,0.111-0.903,0.166-1.354
	c0.14-1.212,0.264-2.434,0.363-3.653c0.028-0.35,0.053-0.702,0.08-1.053c0.089-1.266,0.168-2.542,0.215-3.809
	c0.009-0.369,0.022-0.733,0.032-1.103c0.036-1.282,0.057-2.567,0.047-3.849c-0.004-0.276-0.018-0.557-0.02-0.829
	c-0.021-1.392-0.059-2.777-0.135-4.162c0.003-0.039-0.002-0.072-0.008-0.108c-0.606-11.106-2.91-22.158-6.955-32.759
	c-0.016-0.032-0.03-0.067-0.042-0.094c-0.54-1.412-1.107-2.8-1.707-4.195c-0.079-0.184-0.159-0.366-0.241-0.549
	c-0.608-1.392-1.251-2.774-1.92-4.147c-0.023-0.052-0.052-0.101-0.082-0.156c-0.698-1.428-1.432-2.844-2.199-4.247
	c-0.036-0.068-0.073-0.127-0.108-0.19c-3.15-5.73-6.838-11.263-11.125-16.507c-2.924-3.573-8.192-4.104-11.768-1.178l-6.477,5.295
	c-3.576,2.924-4.107,8.194-1.183,11.771c2.97,3.633,5.561,7.444,7.821,11.381c3.124,5.444,5.58,11.136,7.375,16.967
	c0.003,0.013,0.006,0.015,0.008,0.019c0.349,1.134,0.669,2.265,0.964,3.408c0.016,0.058,0.03,0.11,0.045,0.164
	c0.286,1.088,0.538,2.178,0.772,3.274c0.031,0.142,0.061,0.272,0.091,0.412c0.228,1.08,0.436,2.164,0.62,3.25
	c0.018,0.098,0.038,0.198,0.05,0.297c1.35,8.095,1.484,16.327,0.454,24.41c-0.037,0.281-0.062,0.561-0.105,0.842
	c-0.117,0.858-0.26,1.709-0.404,2.56c-0.069,0.412-0.138,0.824-0.214,1.235c-0.144,0.778-0.303,1.554-0.467,2.326
	c-0.104,0.498-0.213,0.997-0.332,1.497c-0.167,0.706-0.342,1.417-0.526,2.127c-0.129,0.493-0.266,0.984-0.401,1.473
	c-0.21,0.758-0.429,1.519-0.665,2.273c-0.132,0.424-0.277,0.84-0.415,1.26c-0.252,0.766-0.501,1.532-0.775,2.287
	c-0.166,0.471-0.356,0.934-0.537,1.396c-0.272,0.717-0.543,1.439-0.839,2.152c-0.171,0.417-0.359,0.833-0.542,1.249
	c-0.579,1.334-1.191,2.652-1.838,3.958c-0.259,0.521-0.504,1.036-0.774,1.553c-0.309,0.6-0.648,1.186-0.973,1.773
	c-0.301,0.536-0.596,1.085-0.906,1.618c-0.306,0.536-0.639,1.062-0.965,1.589c-0.375,0.615-0.742,1.22-1.137,1.818
	c-0.306,0.47-0.629,0.935-0.941,1.396c-0.437,0.637-0.875,1.271-1.324,1.9c-0.31,0.422-0.618,0.838-0.93,1.255
	c-0.465,0.624-0.945,1.247-1.436,1.86c-0.374,0.469-0.752,0.934-1.137,1.402c-0.486,0.578-0.973,1.145-1.473,1.712
	c-0.346,0.397-0.693,0.798-1.052,1.188c-0.596,0.656-1.216,1.298-1.838,1.938c-0.32,0.335-0.637,0.665-0.967,0.995
	c-0.631,0.627-1.29,1.237-1.945,1.852c-0.363,0.334-0.711,0.68-1.075,1.006c-1.001,0.902-2.017,1.785-3.07,2.646
	c-7.153,5.849-17.692,4.791-23.542-2.362l-5.297-6.478c-5.851-7.153-4.794-17.694,2.357-23.543c1.014-0.83,1.957-1.704,2.875-2.604
	c0.279-0.274,0.537-0.549,0.807-0.828c0.621-0.649,1.224-1.311,1.794-1.99c0.268-0.317,0.542-0.635,0.796-0.954
	c0.686-0.856,1.335-1.747,1.943-2.647c0.085-0.123,0.176-0.242,0.259-0.363c0.663-1.016,1.273-2.059,1.846-3.114
	c0.191-0.354,0.361-0.72,0.545-1.081c0.366-0.736,0.721-1.48,1.042-2.234c0.179-0.414,0.356-0.824,0.522-1.246
	c0.321-0.819,0.606-1.658,0.875-2.49c0.104-0.319,0.227-0.627,0.322-0.947c0.325-1.099,0.591-2.22,0.825-3.341
	c0.091-0.443,0.161-0.893,0.238-1.338c0.118-0.701,0.235-1.404,0.319-2.109c0.069-0.551,0.123-1.099,0.173-1.653
	c0.054-0.683,0.083-1.373,0.106-2.056c0.017-0.58,0.042-1.155,0.041-1.735c-0.012-0.986-0.049-1.974-0.126-2.957
	c-0.052-0.642-0.134-1.287-0.217-1.933c-0.063-0.504-0.128-1.017-0.214-1.521c-0.112-0.672-0.233-1.344-0.375-2.008
	c-0.106-0.5-0.236-0.994-0.36-1.485c-1.456-5.765-4.121-11.314-8.134-16.222c-2.922-3.574-8.194-4.101-11.77-1.177l-4.858,3.972
	l-1.618,1.323c-3.577,2.927-4.103,8.191-1.181,11.769c5.853,7.156,4.792,17.697-2.36,23.546c-7.152,5.849-17.691,4.793-23.544-2.364
	c-5.848-7.15-4.79-17.689,2.361-23.542c1.79-1.463,4.424-1.196,5.887,0.592c1.461,1.789,1.199,4.423-0.591,5.886
	c-3.577,2.926-4.106,8.196-1.183,11.771c2.925,3.58,8.197,4.107,11.774,1.187c3.575-2.925,4.104-8.199,1.178-11.776
	c-5.847-7.148-4.791-17.688,2.361-23.539l1.619-1.322l4.858-3.973c7.156-5.855,17.696-4.793,23.542,2.354
	c0.374,0.456,0.717,0.92,1.032,1.401c0.602,0.797,1.222,1.588,1.775,2.407c0.304,0.451,0.574,0.918,0.866,1.378
	c0.543,0.87,1.08,1.75,1.566,2.649c0.296,0.539,0.564,1.082,0.834,1.625c0.411,0.829,0.801,1.668,1.167,2.516
	c0.258,0.599,0.51,1.199,0.742,1.806c0.316,0.817,0.59,1.642,0.86,2.468c0.202,0.622,0.419,1.237,0.592,1.864
	c0.257,0.906,0.457,1.819,0.661,2.731c0.278,1.246,0.499,2.492,0.68,3.752c0.09,0.642,0.202,1.277,0.272,1.923
	c0.089,0.883,0.124,1.768,0.171,2.657c0.031,0.563,0.064,1.129,0.075,1.69c0.015,0.945,0.001,1.877-0.04,2.818
	c-0.016,0.454-0.043,0.907-0.073,1.36c-0.066,1.03-0.16,2.058-0.291,3.082c-0.032,0.276-0.086,0.555-0.125,0.833
	c-0.931,6.403-3.086,12.634-6.442,18.318c-0.041,0.062-0.069,0.131-0.114,0.196c-0.681,1.144-1.409,2.26-2.185,3.356
	c-2.541,3.566-5.547,6.892-9.102,9.798c-3.575,2.924-4.104,8.195-1.18,11.771l5.296,6.477c2.925,3.576,8.194,4.103,11.77,1.178
	c5.661-4.627,10.452-9.92,14.395-15.652c0.163-0.236,0.337-0.477,0.499-0.716c1.038-1.546,2.004-3.122,2.915-4.728
	c0.193-0.334,0.377-0.673,0.562-1.01c0.876-1.604,1.699-3.221,2.45-4.872c0.142-0.309,0.269-0.618,0.407-0.932
	c0.76-1.744,1.484-3.505,2.113-5.289c0.011-0.033,0.018-0.062,0.03-0.091c0.64-1.813,1.181-3.646,1.676-5.492
	c0.066-0.255,0.145-0.505,0.209-0.76c0.463-1.789,0.841-3.596,1.171-5.416c0.059-0.318,0.116-0.65,0.167-0.979
	c0.302-1.802,0.543-3.618,0.709-5.435c0.03-0.318,0.05-0.632,0.07-0.945c0.15-1.892,0.247-3.784,0.259-5.68
	c-0.003-0.054,0.001-0.117,0-0.171c0.002-1.897-0.079-3.799-0.219-5.698c-0.019-0.25-0.035-0.509-0.057-0.765
	c-0.153-1.85-0.384-3.696-0.672-5.537c-0.057-0.325-0.109-0.647-0.166-0.969c-0.315-1.83-0.69-3.651-1.142-5.464
	c-0.067-0.272-0.148-0.54-0.222-0.812c-0.49-1.881-1.036-3.756-1.682-5.607c-0.01-0.025-0.02-0.061-0.031-0.088
	c-0.643-1.838-1.377-3.645-2.166-5.441c-0.109-0.25-0.207-0.498-0.323-0.748c-0.781-1.732-1.646-3.428-2.564-5.107
	c-0.177-0.322-0.348-0.645-0.533-0.963c-0.935-1.646-1.934-3.273-3-4.863c-0.188-0.281-0.394-0.549-0.583-0.828
	c-1.152-1.66-2.349-3.297-3.65-4.889c-5.848-7.152-4.792-17.689,2.364-23.541l6.477-5.295
	C263.51,55.217,274.05,56.271,279.898,63.426L279.898,63.426z M248.362,229.698c1.79-1.463,4.426-1.196,5.887,0.589
	c1.464,1.79,1.2,4.424-0.591,5.889c-1.785,1.461-4.42,1.196-5.883-0.594C246.314,233.795,246.576,231.159,248.362,229.698
	L248.362,229.698z"/>
<path fill="#FFFFFF" d="M509.365,106.424c-1.606,0-3.17,0.12-4.724,0.287c-1.361-20.875-22.071-37.458-47.416-37.458
	c-20.692,0-36.449,12.577-42.963,27.992c-3.475-0.761-8.952-2.697-12.71-2.697c-23.65,0-42.821,16.001-42.821,35.757
	c0,19.746,19.171,35.756,42.821,35.756c1.579,0,3.41,0,5.421,0v4.332c0,0.133,0.021,0.42,0.032,0.553
	c0.062,0.756,0.244,1.496,0.604,2.307l0,0c0.073,0.191,0.162,0.379,0.317,0.666c0.104,0.174,0.363,0.566,0.487,0.732l0.221,0.289
	c0.104,0.125,0.438,0.492,0.438,0.492c0.128,0.146,0.479,0.48,0.565,0.555c0.098,0.086,0.231,0.201,0.376,0.314
	c0.295,0.238,0.631,0.473,1.083,0.752c0.155,0.094,0.312,0.184,0.47,0.27c0.344,0.174,0.689,0.334,1.051,0.473
	c0.049,0.021,41.092,15.076,41.092,15.076c1.248,0.445,2.547,0.674,3.891,0.674h20.621c11.699-0.014,21.229-7.965,21.23-17.734
	c0,0,0-5.949,0-9.748c4.302,0,7.73,0,9.91,0c19.727,0,35.719-13.354,35.719-29.823C545.083,119.77,529.091,106.424,509.365,106.424z
	"/>
<path fill="#FFFFFF" d="M498.841,184.224c-0.048,0.072-1.959,2.68-2.012,2.742l-13.265-9.578c0.043-0.072,1.922-2.703,1.975-2.775
	c0.92-1.27,2.654-1.584,3.878-0.703l8.871,6.412C499.512,181.212,499.76,182.952,498.841,184.224z"/>
<polygon fill="#FFFFFF" points="466.137,201.479 467.516,202.479 479.438,211.085 466.716,214.872 466.176,202.479 "/>
<polygon fill="#ADB3B7" points="413.546,225.151 410.06,218.216 413.6,218.128 413.546,121.942 491.053,121.942 491.053,225.151 "/>
<polygon fill="#D8D9D8" points="485.125,115.398 488.739,122.986 488.753,222.452 485.125,222.452 "/>
<polygon fill="#EDEDED" points="413.453,222.452 411.247,218.128 413.453,218.128 413.453,119.723 487.582,119.723 486.596,218.128 
	488.739,222.452 "/>
<rect x="410.06" y="115.398" fill="#F37A7C" width="77.522" height="102.73"/>
<polygon fill="#C42126" points="487.582,181.956 451.906,217.823 487.582,217.823 "/>
<rect x="410.06" y="115.398" fill="#CE4F4F" width="12.729" height="102.73"/>
<g transform="translate(0 -1028.4)">
	<g transform="matrix(1.0607 1.0607 -1.0607 1.0607 1146.8 34.926)">
		<path fill="#EDF0F1" d="M-5.467,1026.856l42.158,0.002l2.612-0.002h3.73l7.463-7.463l-7.463-7.463h-3.73l-2.612,0.001l-42.16,0
			L-5.467,1026.856z"/>
		<path fill="#BDC3C7" d="M-5.467,1026.856l42.158,0.002l2.612-0.002h3.73l7.463-7.463l-55.963,0.002L-5.467,1026.856z"/>
		
			<rect x="11.323" y="998.875" transform="matrix(2.698102e-06 1 -1 2.698102e-06 1038.1797 1000.6061)" fill="#E57E25" width="14.924" height="41.039"/>
		<path fill="#7F8C8D" d="M-9.197,1026.856l3.731,0l-0.002-14.923l-3.73,0c-4.102,0-7.461,3.339-7.461,7.461
			C-16.659,1023.516-13.302,1026.856-9.197,1026.856z"/>
		<g transform="translate(-7,1)">
			<path fill="#364A5E" d="M52.272,1018.393l0.002,5.247l5.223-5.247l-5.223-5.243L52.272,1018.393z"/>
			<path fill="#2D3F50" d="M52.273,1023.64l5.223-5.247h-5.225L52.273,1023.64z"/>
		</g>
		<path fill="#95A5A6" d="M-5.466,1019.396l-0.001-7.463l-3.73,0c-4.102,0-7.461,3.339-7.461,7.461L-5.466,1019.396z"/>
		
			<rect x="15.055" y="1002.607" transform="matrix(2.698102e-06 1 -1 2.698102e-06 1041.9119 1004.338)" fill="#D25727" width="7.46" height="41.038"/>
	</g>
</g>
</svg>
