<?xml version="1.0" encoding="utf-8"?>
<!-- Generator: Adobe Illustrator 16.0.0, SVG Export Plug-In . SVG Version: 6.00 Build 0)  -->
<!DOCTYPE svg PUBLIC "-//W3C//DTD SVG 1.1//EN" "http://www.w3.org/Graphics/SVG/1.1/DTD/svg11.dtd">
<svg version="1.1" id="Layer_1" xmlns="http://www.w3.org/2000/svg" xmlns:xlink="http://www.w3.org/1999/xlink" x="0px" y="0px"
	 width="600px" height="300.24px" viewBox="0 0 600 300.24" enable-background="new 0 0 600 300.24" xml:space="preserve">
<path fill="#47C7EB" d="M197.003,96.534l-7.721-2.85c0.609-5.63,0.408-11.371-0.65-17.08l7.459-3.433
	c4.652-2.138,6.695-7.678,4.551-12.338l-4.354-9.448c-2.145-4.658-7.676-6.707-12.327-4.558l-7.467,3.443
	c-3.648-4.519-7.883-8.397-12.551-11.599l2.847-7.713c1.772-4.81-0.69-10.169-5.499-11.944l-9.764-3.612
	c-4.655-1.711-10.221,0.851-11.941,5.502l-2.85,7.721c-5.625-0.604-11.369-0.405-17.072,0.646l-3.438-7.452
	c-2.145-4.658-7.676-6.701-12.334-4.557l-9.451,4.352c-4.655,2.146-6.7,7.684-4.558,12.336l3.441,7.457
	c-4.512,3.652-8.398,7.886-11.598,12.562l-7.708-2.848c-4.651-1.733-10.224,0.833-11.946,5.492l-3.604,9.768
	c-0.861,2.33-0.76,4.854,0.274,7.112c1.047,2.253,2.905,3.97,5.226,4.819l7.721,2.858c-0.613,5.623-0.413,11.371,0.647,17.077
	l-7.458,3.433c-4.657,2.146-6.696,7.675-4.553,12.328l4.354,9.458c2.145,4.648,7.677,6.699,12.331,4.552l7.46-3.436
	c3.648,4.519,7.883,8.399,12.561,11.597l-2.852,7.715c-0.866,2.325-0.766,4.851,0.275,7.11c1.034,2.253,2.893,3.974,5.219,4.839
	l9.764,3.6c2.328,0.861,4.854,0.764,7.11-0.27c2.259-1.043,3.972-2.9,4.827-5.229l2.857-7.722
	c5.624,0.612,11.365,0.412,17.078-0.644l3.43,7.456c2.145,4.648,7.68,6.701,12.336,4.551l9.451-4.352
	c4.66-2.147,6.698-7.676,4.553-12.333l-3.436-7.457c4.514-3.657,8.399-7.883,11.594-12.559l7.721,2.857
	c2.331,0.861,4.856,0.758,7.116-0.283c2.25-1.038,3.963-2.896,4.822-5.219l3.609-9.767
	C204.277,103.667,201.81,98.307,197.003,96.534z M145.87,120.817c-4.875,2.242-10.043,3.38-15.368,3.38
	c-14.313,0-27.423-8.396-33.409-21.388c-8.479-18.417-0.399-40.296,18.008-48.774c4.869-2.245,10.041-3.379,15.361-3.379
	c14.312,0,27.43,8.392,33.416,21.38C172.354,90.458,164.278,112.339,145.87,120.817z"/>
<path fill="#FFFFFF" d="M298.757,79.973l-5.932-0.395c-0.729-4.025-2.042-7.961-3.943-11.698l4.465-3.903
	c2.786-2.433,3.067-6.688,0.629-9.478l-4.949-5.655c-2.438-2.788-6.688-3.076-9.47-0.637l-4.468,3.912
	c-3.452-2.385-7.177-4.205-11.066-5.468l0.395-5.926c0.244-3.694-2.558-6.903-6.251-7.149l-7.503-0.505
	c-3.575-0.234-6.906,2.679-7.146,6.252l-0.396,5.931c-4.02,0.731-7.958,2.045-11.694,3.939l-3.905-4.459
	c-2.438-2.788-6.688-3.073-9.476-0.635l-5.657,4.947c-2.786,2.439-3.069,6.693-0.635,9.478l3.908,4.462
	c-2.377,3.452-4.204,7.18-5.466,11.073l-5.921-0.397c-3.576-0.25-6.912,2.668-7.153,6.248l-0.498,7.503
	c-0.122,1.791,0.466,3.519,1.643,4.871c1.187,1.346,2.824,2.157,4.606,2.27l5.933,0.401c0.726,4.02,2.039,7.961,3.94,11.696
	l-4.465,3.904c-2.787,2.438-3.069,6.686-0.633,9.47l4.95,5.661c2.436,2.782,6.687,3.071,9.473,0.632l4.465-3.906
	c3.451,2.384,7.178,4.206,11.072,5.465l-0.397,5.927c-0.125,1.788,0.461,3.518,1.644,4.869c1.178,1.351,2.816,2.163,4.604,2.284
	l7.5,0.499c1.789,0.12,3.518-0.464,4.87-1.641c1.351-1.183,2.158-2.82,2.275-4.608l0.4-5.935c4.021-0.726,7.957-2.039,11.699-3.938
	l3.9,4.463c2.436,2.782,6.689,3.072,9.476,0.63l5.657-4.946c2.789-2.442,3.07-6.688,0.631-9.474l-3.903-4.463
	c2.378-3.456,4.206-7.178,5.462-11.07l5.932,0.4c1.791,0.12,3.52-0.468,4.871-1.651c1.35-1.179,2.152-2.816,2.273-4.602l0.504-7.503
	C305.254,83.427,302.449,80.218,298.757,79.973z M268.302,107.25c-2.918,2.55-6.266,4.396-9.955,5.485
	c-9.915,2.927-20.712-0.209-27.516-7.985c-9.639-11.023-8.516-27.833,2.502-37.468c2.914-2.551,6.264-4.394,9.95-5.481
	c9.914-2.927,20.717,0.204,27.519,7.977C280.44,80.805,279.319,97.613,268.302,107.25z"/>
<path fill="#FAD50D" d="M102.879,163.013l-6.655,2.062c-2.487-4.099-5.578-7.853-9.227-11.146l3.245-6.146
	c2.026-3.831,0.547-8.605-3.292-10.633l-7.789-4.109c-3.838-2.026-8.609-0.558-10.629,3.28l-3.245,6.157
	c-4.779-1.159-9.619-1.586-14.405-1.335l-2.056-6.649c-1.285-4.143-5.698-6.478-9.843-5.196l-8.421,2.599
	c-4.009,1.246-6.43,5.832-5.193,9.842l2.059,6.656c-4.091,2.489-7.849,5.581-11.141,9.222l-6.145-3.238
	c-3.838-2.026-8.608-0.554-10.634,3.285l-4.111,7.788c-2.024,3.838-0.547,8.611,3.286,10.638l6.149,3.239
	c-1.151,4.775-1.584,9.621-1.329,14.411l-6.645,2.053c-4.018,1.228-6.442,5.821-5.203,9.84l2.607,8.418
	c0.62,2.011,1.989,3.653,3.844,4.64c1.864,0.976,3.996,1.174,5.994,0.549l6.659-2.055c2.483,4.099,5.574,7.855,9.224,11.144
	l-3.245,6.146c-2.025,3.84-0.55,8.604,3.285,10.629l7.793,4.114c3.834,2.021,8.606,0.552,10.629-3.288l3.245-6.146
	c4.777,1.157,9.62,1.587,14.41,1.327l2.055,6.652c0.614,2.01,1.981,3.653,3.844,4.637c1.855,0.98,3.989,1.182,5.997,0.563
	l8.415-2.604c2.008-0.619,3.654-1.984,4.64-3.842c0.981-1.861,1.176-3.992,0.553-5.998l-2.055-6.658
	c4.095-2.482,7.851-5.571,11.146-9.225l6.142,3.245c3.834,2.021,8.609,0.552,10.631-3.288l4.112-7.787
	c2.026-3.847,0.551-8.605-3.288-10.633l-6.146-3.242c1.152-4.781,1.588-9.623,1.328-14.406l6.658-2.055
	c2.009-0.623,3.655-1.992,4.638-3.853c0.977-1.854,1.172-3.987,0.555-5.991l-2.602-8.42
	C111.438,164.063,107.021,161.731,102.879,163.013z M81.015,205.649c-2.122,4.017-5.009,7.438-8.588,10.183
	c-9.619,7.364-22.749,8.472-33.46,2.817c-15.175-8.012-21.006-26.873-12.999-42.045c2.117-4.014,5.008-7.438,8.583-10.176
	c9.619-7.365,22.753-8.479,33.46-2.828C83.188,171.616,89.022,190.479,81.015,205.649z"/>
<line fill="none" stroke="#EEDC12" stroke-width="3" stroke-miterlimit="10" x1="490.754" y1="275.261" x2="490.617" y2="260.54"/>
<line fill="none" stroke="#EEDC12" stroke-width="3" stroke-miterlimit="10" x1="480.938" y1="275.353" x2="480.801" y2="260.632"/>
<line fill="none" stroke="#EEDC12" stroke-width="3" stroke-miterlimit="10" x1="471.125" y1="275.442" x2="470.99" y2="260.722"/>
<line fill="none" stroke="#EEDC12" stroke-width="3" stroke-miterlimit="10" x1="461.311" y1="275.532" x2="461.086" y2="250.999"/>
<g>
	<path fill="#333333" d="M328.48,281.54l-0.996,0.001c0.045,0.001,0.086,0.007,0.131,0.007h152.172c6.66,0,14.018-5.373,16.43-12
		l44.137-121.264H376.982L328.48,281.54z M380.158,263.296h-25l2.547-7h25.002L380.158,263.296z M383.799,253.296h-25.002l2.549-7
		h25L383.799,253.296z M387.439,243.296h-25.002l2.547-7h25.002L387.439,243.296z M391.078,233.296h-25l2.547-7h25.002
		L391.078,233.296z M394.719,223.296h-25.002l2.549-7h25L394.719,223.296z M427.139,263.296h-42.646l2.547-7h42.646L427.139,263.296
		z M412.67,233.296l2.547-7h54.74l-2.547,7H412.67z M461.65,236.296l-2.549,7h-30.072l2.547-7H461.65L461.65,236.296z
		 M428.764,236.296l-2.547,7h-17.188l2.547-7H428.764L428.764,236.296z M443.957,223.296l2.549-7h17.668l-2.549,7H443.957z
		 M464.225,236.296h17.668l-2.547,7h-17.668L464.225,236.296z M470.318,233.296l2.547-7h17.668l-2.547,7H470.318z M495.791,184.629
		l-2.547,7h-17.668l2.547-7H495.791z M489.215,181.629l2.549-7h17.668l-2.549,7H489.215z M486.215,181.629h-42.646l2.547-7h42.646
		L486.215,181.629z M474.123,184.629l-2.549,7h-42.646l2.549-7H474.123z M440.068,181.629h-25.854l2.547-7h25.854L440.068,181.629z
		 M428.125,184.629l-2.547,7h-15.002l2.549-7H428.125z M444.246,216.296l-2.549,7h-42.646l2.547-7H444.246z M412.959,226.296
		l-2.547,7H395.41l2.549-7H412.959z M409.318,236.296l-2.547,7h-15l2.547-7H409.318L409.318,236.296z M465.014,246.296l-2.549,7
		h-74.334l2.549-7H465.014z M446.826,263.296h-17.188l2.547-7h17.188L446.826,263.296z M467.492,263.296h-17.668l2.547-7h17.668
		L467.492,263.296z M483.465,253.296h-17.668l2.547-7h17.668L483.465,253.296z M503.402,164.629h17.668l-2.547,7h-17.668
		L503.402,164.629z M485.404,164.629h15l-2.549,7h-15L485.404,164.629z M438.756,164.629h42.646l-2.551,7h-42.646L438.756,164.629z
		 M432.857,171.629h-15.002l2.549-7h15L432.857,171.629z M380.959,154.629h48.086l-2.549,7h-48.084L380.959,154.629z
		 M384.883,181.629l2.547-7h25.002l-2.549,7H384.883z M408.791,184.629l-2.547,7h-25.002l2.549-7H408.791z M388.521,171.629l2.549-7
		h25l-2.547,7H388.521z M366.521,194.296h38.752l-2.551,7h-38.748L366.521,194.296z M419.381,204.629l-2.549,7h-56.619l2.549-7
		H419.381z"/>
	<path fill="#4D4D4D" d="M319.867,281.55L319.867,281.55C319.949,281.55,319.939,281.556,319.867,281.55z"/>
	<path fill="#4D4D4D" d="M376.982,148.284h-12.918l2.049-5.652c0,0.003-0.002,0.006-0.004,0.01l-2.053,5.645L319.92,269.548
		l-2.066,5.676c-2.107,5.799,1.512,6.293,2.016,6.326l7.615-0.009l0.996-0.001L376.982,148.284z"/>
	<path fill="#CCCCCC" d="M367.186,139.675L367.186,139.675C367.156,139.756,367.152,139.749,367.186,139.675z"/>
	<path fill="#CCCCCC" d="M538.287,135.358H376.479c-7.078,0-9.062,3.8-9.293,4.316l-1.07,2.957l-2.051,5.652h12.918h163.371
		l3.092-8.491C544.496,136.898,542.283,135.358,538.287,135.358z M374.357,145.294c-2.072,0-3.141-1.679-2.385-3.75
		c0.754-2.07,3.043-3.75,5.113-3.75s3.141,1.68,2.387,3.75C378.718,143.615,376.428,145.294,374.357,145.294z M384.357,145.294
		c-2.072,0-3.141-1.679-2.385-3.75c0.754-2.07,3.043-3.75,5.113-3.75s3.141,1.68,2.387,3.75
		C388.718,143.615,386.428,145.294,384.357,145.294z M394.357,145.294c-2.072,0-3.141-1.679-2.385-3.75
		c0.754-2.07,3.043-3.75,5.113-3.75s3.139,1.68,2.385,3.75C398.718,143.615,396.428,145.294,394.357,145.294z"/>
	<path fill="#999999" d="M377.088,137.794c-2.072,0-4.361,1.68-5.115,3.75c-0.754,2.071,0.312,3.75,2.385,3.75
		c2.07,0,4.361-1.679,5.115-3.75C380.227,139.474,379.158,137.794,377.088,137.794z"/>
	<path fill="#999999" d="M387.088,137.794c-2.072,0-4.361,1.68-5.115,3.75c-0.754,2.071,0.312,3.75,2.385,3.75
		c2.07,0,4.361-1.679,5.115-3.75C390.227,139.474,389.158,137.794,387.088,137.794z"/>
	<path fill="#999999" d="M397.088,137.794c-2.072,0-4.361,1.68-5.115,3.75c-0.754,2.071,0.312,3.75,2.385,3.75
		c2.07,0,4.361-1.679,5.115-3.75C400.227,139.474,399.158,137.794,397.088,137.794z"/>
	<polygon fill="#F3808B" points="429.045,154.629 380.959,154.629 378.412,161.629 426.496,161.629 	"/>
	<polygon fill="#F3808B" points="405.273,194.296 366.521,194.296 363.975,201.296 402.725,201.296 	"/>
	<polygon fill="#2EBEEF" points="416.07,164.629 391.07,164.629 388.521,171.629 413.523,171.629 	"/>
	<polygon fill="#C2DA69" points="417.855,171.629 432.857,171.629 435.404,164.629 420.404,164.629 	"/>
	<polygon fill="#FAF398" points="481.402,164.629 438.756,164.629 436.207,171.629 478.854,171.629 	"/>
	<polygon fill="#FAF398" points="443.568,181.629 486.215,181.629 488.762,174.629 446.115,174.629 	"/>
	<polygon fill="#FAF398" points="428.928,191.629 471.574,191.629 474.123,184.629 431.477,184.629 	"/>
	<polygon fill="#FAF398" points="399.051,223.296 441.697,223.296 444.246,216.296 401.598,216.296 	"/>
	<polygon fill="#FAF398" points="395.41,233.296 410.412,233.296 412.959,226.296 397.959,226.296 	"/>
	<polygon fill="#FAF398" points="391.771,243.296 406.771,243.296 409.318,236.296 394.318,236.296 	"/>
	<polygon fill="#FAF398" points="388.131,253.296 462.465,253.296 465.014,246.296 390.68,246.296 	"/>
	<polygon fill="#FAF398" points="384.492,263.296 427.139,263.296 429.686,256.296 387.039,256.296 	"/>
	<polygon fill="#C2DA69" points="500.404,164.629 485.404,164.629 482.855,171.629 497.855,171.629 	"/>
	<polygon fill="#C2DA69" points="414.217,181.629 440.068,181.629 442.615,174.629 416.764,174.629 	"/>
	<polygon fill="#C2DA69" points="429.639,263.296 446.826,263.296 449.373,256.296 432.186,256.296 	"/>
	<polygon fill="#C2DA69" points="409.029,243.296 426.217,243.296 428.764,236.296 411.576,236.296 	"/>
	<polygon fill="#C2DA69" points="469.957,226.296 415.217,226.296 412.67,233.296 467.41,233.296 	"/>
	<polygon fill="#C2DA69" points="459.104,243.296 461.65,236.296 431.576,236.296 429.029,243.296 	"/>
	<polygon fill="#C2DA69" points="410.576,191.629 425.578,191.629 428.125,184.629 413.125,184.629 	"/>
	<polygon fill="#2EBEEF" points="412.432,174.629 387.43,174.629 384.883,181.629 409.883,181.629 	"/>
	<polygon fill="#2EBEEF" points="381.242,191.629 406.244,191.629 408.791,184.629 383.791,184.629 	"/>
	<polygon fill="#2BBEEF" points="475.576,191.629 493.244,191.629 495.791,184.629 478.123,184.629 	"/>
	<polygon fill="#2BBEEF" points="465.797,253.296 483.465,253.296 486.012,246.296 468.344,246.296 	"/>
	<polygon fill="#2BBEEF" points="449.824,263.296 467.492,263.296 470.039,256.296 452.371,256.296 	"/>
	<polygon fill="#2BBEEF" points="446.506,216.296 443.957,223.296 461.625,223.296 464.174,216.296 	"/>
	<polygon fill="#2BBEEF" points="490.533,226.296 472.865,226.296 470.318,233.296 487.986,233.296 	"/>
	<polygon fill="#2BBEEF" points="481.893,236.296 464.225,236.296 461.678,243.296 479.346,243.296 	"/>
	<polygon fill="#2BBEEF" points="509.432,174.629 491.764,174.629 489.215,181.629 506.883,181.629 	"/>
	<polygon fill="#2BBEEF" points="521.07,164.629 503.402,164.629 500.855,171.629 518.523,171.629 	"/>
	<polygon fill="#2EBEEF" points="369.717,223.296 394.719,223.296 397.266,216.296 372.266,216.296 	"/>
	<polygon fill="#2EBEEF" points="366.078,233.296 391.078,233.296 393.627,226.296 368.625,226.296 	"/>
	<polygon fill="#2EBEEF" points="362.438,243.296 387.439,243.296 389.986,236.296 364.984,236.296 	"/>
	<polygon fill="#2EBEEF" points="358.797,253.296 383.799,253.296 386.346,246.296 361.346,246.296 	"/>
	<polygon fill="#2EBEEF" points="355.158,263.296 380.158,263.296 382.707,256.296 357.705,256.296 	"/>
	<polygon fill="#F3808B" points="416.832,211.629 419.381,204.629 362.762,204.629 360.213,211.629 	"/>
</g>
<g>
	<path fill="#3F3F40" d="M314.391,239.376c0,3.668-2.969,6.639-6.637,6.639H174.98c-3.668,0-6.639-2.971-6.639-6.639v-92.939
		c0-3.668,2.971-6.64,6.639-6.64h132.773c3.668,0,6.638,2.972,6.638,6.64V239.376L314.391,239.376z"/>
	<rect x="221.453" y="246.015" fill="#E2E4E5" width="39.833" height="17.014"/>
	<path fill="#F1F1F2" d="M274.56,266.347c0,1.832-1.484,3.32-3.321,3.32h-59.745c-1.834,0-3.32-1.484-3.32-3.32
		c0-1.834,1.486-3.32,3.32-3.32h59.748C273.075,263.028,274.56,264.515,274.56,266.347z"/>
	<path fill="#FFFFFF" d="M314.391,239.376v-19.914H168.342v19.914c0,3.668,2.973,6.639,6.639,6.639h132.773
		C311.42,246.015,314.391,243.044,314.391,239.376z"/>
	<path fill="#D0D3D4" d="M241.367,242.075c-4.921,0-8.921-4-8.921-8.922c0-4.916,4.005-8.92,8.921-8.92s8.921,4,8.921,8.92
		C250.288,238.075,246.288,242.075,241.367,242.075z M241.367,228.796c-2.402,0-4.357,1.955-4.357,4.357s1.955,4.355,4.357,4.355
		c2.402,0,4.356-1.953,4.356-4.355C245.724,230.753,243.77,228.796,241.367,228.796z"/>
	<path fill="#5C5D60" d="M168.342,146.229v73.024h45.012l79.663-79.665H174.98C171.314,139.59,168.342,142.563,168.342,146.229z"/>
	<g>
		<path fill="#FFFFFF" d="M185.261,156.681c0-2.521,0.862-3.935,2.519-3.935c1.66,0,2.521,1.414,2.521,3.935
			c0,2.531-0.863,3.945-2.521,3.945C186.123,160.626,185.261,159.212,185.261,156.681z M189.252,156.681
			c0-2.223-0.542-3.129-1.468-3.129c-0.918,0-1.471,0.906-1.471,3.129c0,2.232,0.553,3.143,1.471,3.143
			C188.708,159.817,189.252,158.911,189.252,156.681z M187.779,155.961c0.421,0,0.731,0.319,0.731,0.72
			c0,0.408-0.31,0.73-0.731,0.73c-0.408,0-0.718-0.322-0.718-0.73C187.062,156.28,187.371,155.961,187.779,155.961z"/>
		<path fill="#FFFFFF" d="M194.375,153.994l-1.823,1.104l-0.486-0.709l2.431-1.516h0.894v6.798h1.56v0.819h-4.443v-0.819h1.87v-5.68
			L194.375,153.994L194.375,153.994z"/>
		<path fill="#FFFFFF" d="M209.557,153.905l0.486,0.762l-3.869,2.367l3.869,2.375l-0.533,0.74l-4.214-2.631v-0.982L209.557,153.905z
			"/>
		<path fill="#FFFFFF" d="M215.676,160.493v-3.568h-2.764v3.568h-1.052v-7.614h1.052v3.183h2.764v-3.183h1.05v7.614H215.676z"/>
		<path fill="#FFFFFF" d="M221.43,153.761v6.732h-1.047v-6.732h-2.358v-0.882h5.794l-0.111,0.882H221.43z"/>
		<path fill="#FFFFFF" d="M229.551,160.493l-0.223-3.902c-0.053-1.072-0.053-2.309-0.042-2.553h-0.034l-1.206,5.096h-1.005
			l-1.262-5.096h-0.044c0,0.252,0.024,1.568-0.022,2.553l-0.188,3.902h-0.972l0.433-7.614h1.391l1.172,5.083h0.045l1.116-5.083
			h1.402l0.432,7.614H229.551z"/>
		<path fill="#FFFFFF" d="M232.311,160.493v-7.614h1.049v6.696h3.459l-0.12,0.918H232.311z"/>
		<path fill="#FFFFFF" d="M243.184,156.536v0.982l-4.212,2.631l-0.533-0.74l3.869-2.375l-3.869-2.367l0.486-0.762L243.184,156.536z"
			/>
		<path fill="#FFFFFF" d="M185.261,169.937c0-2.52,0.862-3.934,2.519-3.934c1.66,0,2.521,1.414,2.521,3.934
			c0,2.531-0.863,3.945-2.521,3.945C186.123,173.882,185.261,172.468,185.261,169.937z M189.252,169.937
			c0-2.223-0.542-3.129-1.468-3.129c-0.918,0-1.471,0.906-1.471,3.129c0,2.234,0.553,3.142,1.471,3.142
			C188.708,173.073,189.252,172.168,189.252,169.937z M187.779,169.218c0.421,0,0.731,0.319,0.731,0.719
			c0,0.408-0.31,0.73-0.731,0.73c-0.408,0-0.718-0.322-0.718-0.73C187.062,169.537,187.371,169.218,187.779,169.218z"/>
		<path fill="#FFFFFF" d="M193.204,172.899h3.461l-0.123,0.85h-4.531v-0.807c2.632-2.608,3.438-3.662,3.438-4.811
			c0-0.818-0.553-1.281-1.292-1.281c-0.631,0-1.061,0.23-1.529,0.816l-0.707-0.498c0.6-0.738,1.349-1.172,2.289-1.172
			c1.391,0,2.289,0.884,2.289,2.102C196.497,169.429,195.448,170.754,193.204,172.899z"/>
		<path fill="#FFFFFF" d="M209.557,167.161l0.486,0.763l-3.869,2.366l3.869,2.376l-0.533,0.741l-4.214-2.631v-0.984L209.557,167.161
			z"/>
		<path fill="#FFFFFF" d="M214.094,173.749h-2.099v-7.615h1.935c1.361,0,2.721,0.432,2.721,1.926c0,0.973-0.684,1.48-1.326,1.623
			v0.045c0.762,0.145,1.658,0.586,1.658,1.848C216.978,173.241,215.52,173.749,214.094,173.749z M214.116,166.964h-1.072v2.387
			h1.161c0.887,0,1.373-0.365,1.373-1.229C215.576,167.282,215.023,166.964,214.116,166.964z M214.281,170.19h-1.239v2.709h1.194
			c0.74,0,1.636-0.211,1.636-1.309C215.875,170.478,215.155,170.19,214.281,170.19z"/>
		<path fill="#FFFFFF" d="M220.922,173.882c-1.868,0-2.831-1.559-2.831-3.922c0-2.32,0.963-3.957,2.831-3.957
			c1.867,0,2.83,1.581,2.83,3.945C223.752,172.269,222.79,173.882,220.922,173.882z M220.922,166.862
			c-1.239,0-1.738,1.084-1.738,3.096c0,2.01,0.535,3.062,1.738,3.062c1.239,0,1.734-1.062,1.734-3.076
			C222.656,167.935,222.159,166.862,220.922,166.862z"/>
		<path fill="#FFFFFF" d="M226.897,173.749h-1.781v-7.615h1.658c1.805,0,3.592,0.607,3.592,3.771
			C230.367,173.087,228.513,173.749,226.897,173.749z M227.008,166.976h-0.84v5.945h0.851c1.083,0,2.233-0.551,2.233-3.016
			C229.252,167.315,228.047,166.976,227.008,166.976z"/>
		<path fill="#FFFFFF" d="M234.708,170.819v2.93h-1.061v-2.918l-2.565-4.699h1.161l1.948,3.725h0.033l1.954-3.725h1.095
			L234.708,170.819z"/>
		<path fill="#FFFFFF" d="M243.184,169.792v0.984l-4.212,2.631l-0.533-0.741l3.869-2.376l-3.869-2.366l0.486-0.763L243.184,169.792z
			"/>
		<path fill="#FFFFFF" d="M185.261,183.192c0-2.521,0.862-3.936,2.519-3.936c1.66,0,2.521,1.414,2.521,3.936
			c0,2.531-0.863,3.945-2.521,3.945C186.123,187.138,185.261,185.724,185.261,183.192z M189.252,183.192
			c0-2.225-0.542-3.129-1.468-3.129c-0.918,0-1.471,0.904-1.471,3.129c0,2.232,0.553,3.139,1.471,3.139
			C188.708,186.331,189.252,185.425,189.252,183.192z M187.779,182.474c0.421,0,0.731,0.32,0.731,0.719c0,0.41-0.31,0.73-0.731,0.73
			c-0.408,0-0.718-0.32-0.718-0.73C187.062,182.794,187.371,182.474,187.779,182.474z"/>
		<path fill="#FFFFFF" d="M194.11,187.138c-0.885,0-1.792-0.32-2.375-1.027l0.662-0.549c0.433,0.508,1.061,0.748,1.681,0.748
			c1.025,0,1.647-0.574,1.647-1.504c0-1.061-0.653-1.414-1.549-1.414h-0.583l0.12-0.785h0.399c0.729,0,1.415-0.406,1.415-1.293
			c0-0.809-0.619-1.252-1.404-1.252c-0.651,0-1.105,0.232-1.6,0.697l-0.553-0.607c0.651-0.617,1.402-0.896,2.211-0.896
			c1.458,0,2.367,0.874,2.367,1.912c0,0.931-0.687,1.616-1.449,1.763v0.041c0.84,0.057,1.691,0.687,1.691,1.848
			C196.785,186.132,195.713,187.138,194.11,187.138z"/>
		<path fill="#FFFFFF" d="M209.557,180.418l0.486,0.763l-3.869,2.366l3.869,2.374l-0.533,0.742l-4.214-2.631v-0.983L209.557,180.418
			z"/>
		<path fill="#FFFFFF" d="M215.676,187.005v-3.568h-2.764v3.568h-1.052v-7.615h1.052v3.185h2.764v-3.185h1.05v7.615H215.676
			L215.676,187.005z"/>
		<path fill="#FFFFFF" d="M219.893,180.229v2.484h2.808v0.842h-2.808v2.618h3.441v0.829h-4.491v-7.615h4.402l-0.123,0.842H219.893z"
			/>
		<path fill="#FFFFFF" d="M228.987,185.094h-2.931l-0.586,1.911h-1.05l2.465-7.613h1.324l2.465,7.613h-1.103L228.987,185.094z
			 M226.311,184.242h2.422l-1.184-3.901h-0.042L226.311,184.242z"/>
		<path fill="#FFFFFF" d="M233.527,187.005h-1.781v-7.615h1.66c1.801,0,3.591,0.606,3.591,3.771
			C236.997,186.341,235.141,187.005,233.527,187.005z M233.634,180.229h-0.838v5.944h0.852c1.083,0,2.232-0.553,2.232-3.018
			C235.88,180.573,234.677,180.229,233.634,180.229z"/>
		<path fill="#FFFFFF" d="M239.78,180.229v2.484h2.806v0.842h-2.806v2.618h3.437v0.829h-4.488v-7.615h4.399l-0.121,0.842H239.78z"/>
		<path fill="#FFFFFF" d="M248.263,183.647l2.232,3.355h-1.248l-2.032-3.227h-0.972v3.227h-1.052v-7.615h2.001
			c1.903,0,2.897,0.729,2.897,2.152C250.085,182.685,249.292,183.38,248.263,183.647z M247.291,180.208h-1.053v2.764h1.062
			c1.061,0,1.669-0.396,1.669-1.427C248.971,180.593,248.427,180.208,247.291,180.208z"/>
		<path fill="#FFFFFF" d="M256.441,183.049v0.983l-4.215,2.631l-0.532-0.742l3.868-2.374l-3.868-2.366l0.485-0.763L256.441,183.049z
			"/>
		<path fill="#FFFFFF" d="M185.261,196.449c0-2.519,0.862-3.937,2.519-3.937c1.66,0,2.521,1.418,2.521,3.937
			c0,2.532-0.863,3.944-2.521,3.944C186.123,200.394,185.261,198.981,185.261,196.449z M189.252,196.449
			c0-2.224-0.542-3.13-1.468-3.13c-0.918,0-1.471,0.906-1.471,3.13c0,2.233,0.553,3.14,1.471,3.14
			C188.708,199.589,189.252,198.683,189.252,196.449z M187.779,195.731c0.421,0,0.731,0.316,0.731,0.718
			c0,0.409-0.31,0.731-0.731,0.731c-0.408,0-0.718-0.322-0.718-0.731C187.062,196.054,187.371,195.731,187.779,195.731z"/>
		<path fill="#FFFFFF" d="M195.958,198.438v1.824h-0.985v-1.824h-3.115v-0.721l2.23-5.205l0.849,0.354l-2.01,4.764h2.043l0.1-1.986
			h0.883v1.986h0.962v0.811h-0.957V198.438z"/>
		<path fill="#FFFFFF" d="M209.557,193.675l0.486,0.762l-3.869,2.365l3.869,2.375l-0.533,0.744l-4.214-2.631v-0.982L209.557,193.675
			z"/>
		<path fill="#FFFFFF" d="M212.349,201.413l-0.82-0.363l4.72-9.74l0.809,0.391L212.349,201.413z"/>
		<path fill="#FFFFFF" d="M222.304,200.263v-3.568h-2.763v3.568h-1.052v-7.615h1.052v3.184h2.763v-3.184h1.048v7.615H222.304z"/>
		<path fill="#FFFFFF" d="M226.522,193.487v2.486h2.806v0.842h-2.806v2.619h3.439v0.828h-4.488v-7.615h4.399l-0.12,0.84H226.522
			L226.522,193.487z"/>
		<path fill="#FFFFFF" d="M235.613,198.351h-2.929l-0.588,1.912h-1.048l2.465-7.615h1.323l2.465,7.615h-1.104L235.613,198.351z
			 M232.938,197.499h2.423l-1.184-3.902h-0.045L232.938,197.499z"/>
		<path fill="#FFFFFF" d="M240.152,200.263h-1.78v-7.615h1.66c1.803,0,3.59,0.605,3.59,3.771
			C243.622,199.601,241.769,200.263,240.152,200.263z M240.267,193.487h-0.843v5.947h0.852c1.085,0,2.232-0.554,2.232-3.019
			C242.508,193.829,241.305,193.487,240.267,193.487z"/>
		<path fill="#FFFFFF" d="M246.406,193.487v2.486h2.806v0.842h-2.806v2.619h3.438v0.828h-4.488v-7.615h4.399l-0.121,0.84H246.406
			L246.406,193.487z"/>
		<path fill="#FFFFFF" d="M254.89,196.901l2.233,3.361h-1.248l-2.032-3.229h-0.974v3.229h-1.05v-7.615h2.001
			c1.901,0,2.897,0.727,2.897,2.15C256.718,195.94,255.92,196.638,254.89,196.901z M253.918,193.463h-1.049v2.765h1.061
			c1.062,0,1.669-0.396,1.669-1.428C255.599,193.851,255.057,193.463,253.918,193.463z"/>
		<path fill="#FFFFFF" d="M263.066,196.308v0.982l-4.212,2.631l-0.532-0.744l3.868-2.375l-3.868-2.365l0.485-0.762L263.066,196.308z
			"/>
	</g>
</g>
<g>
	<g>
		<g>
			<path fill="#5BAADE" d="M433.756,162.09L433.756,162.09L433.756,162.09z"/>
		</g>
	</g>
</g>
<path fill="#47C7EB" d="M433.92,12.441c-24.754,0-44.818,20.064-44.818,44.817c0,3.579,0.434,7.054,1.225,10.391
	c5.236,30.77,30,64.295,43.432,94.44c12.896-28.943,36.232-61.002,42.709-90.747c1.467-4.431,2.271-9.162,2.271-14.084
	C478.736,32.506,458.672,12.441,433.92,12.441z M433.918,79.386c-12.889,0-23.336-10.447-23.336-23.335
	c0-12.889,10.447-23.336,23.336-23.336c12.887,0,23.336,10.447,23.336,23.336C457.254,68.938,446.805,79.386,433.918,79.386z"/>
<path fill="#EF4836" d="M444.418,188.532c0.027,0,0.057,0,0.086,0c-0.049-0.135-0.111-0.271-0.166-0.406
	c-0.324-1.534-1.141-2.938-2.334-4.096c-2.518-3.555-6.104-7.228-8.717-10.604c-2.613,3.38-6.199,7.052-8.719,10.607
	c-1.189,1.157-2.01,2.56-2.33,4.093c-0.057,0.137-0.117,0.271-0.166,0.406c0.027,0,0.059,0,0.086,0
	c-0.051,0.345-0.086,0.691-0.086,1.048c0,0.026,0.006,0.053,0.006,0.08c-0.002,0-0.004,0-0.006,0
	c0.002,0.019,0.008,0.038,0.01,0.057c0.016,0.854,0.182,1.685,0.486,2.464c1.785,6.514,7.412,13.561,10.719,19.91
	c3.307-6.352,8.934-13.396,10.719-19.908c0.309-0.781,0.473-1.607,0.488-2.466c0.002-0.019,0.008-0.038,0.01-0.057
	c-0.002,0-0.004,0-0.006,0c0-0.027,0.006-0.054,0.006-0.08C444.504,189.226,444.469,188.877,444.418,188.532z"/>
<g id="Icon">
	<ellipse fill="#FAD50D" cx="53.504" cy="191.128" rx="29.751" ry="29.518"/>
</g>
<circle fill="none" stroke="#F3F3F3" stroke-width="3" stroke-miterlimit="10" cx="69.121" cy="196.454" r="4.467"/>
<path fill="#F3F3F3" d="M37.851,186.79c0,9.32,7.076,19.211,15.804,19.211s15.803-9.891,15.803-19.211"/>
<path fill="#CA8B44" d="M40.07,188.14c0,8.01,6.083,16.512,13.585,16.512c7.502,0,13.584-8.502,13.584-16.512"/>
<path fill="#4C3C2F" d="M42.655,189.71c0,6.486,4.925,13.371,11,13.371c6.075,0,11-6.885,11-13.371"/>
<line fill="none" stroke="#F3F3F3" stroke-width="3" stroke-miterlimit="10" x1="43.243" y1="206.292" x2="63.328" y2="206.292"/>
<g>
	<path fill="#F3F3F3" d="M48.643,184.127c0,0-0.041,0.021-0.119,0.044c-0.078,0.025-0.193,0.057-0.338,0.073
		c-0.147,0.021-0.324,0.028-0.53,0.01c-0.204-0.021-0.437-0.065-0.686-0.169c-0.249-0.102-0.519-0.26-0.771-0.518
		c-0.127-0.125-0.246-0.281-0.351-0.457c-0.049-0.09-0.102-0.18-0.14-0.281c-0.043-0.1-0.08-0.202-0.108-0.311
		c-0.124-0.432-0.118-0.902-0.029-1.314l0.016-0.078l0.009-0.039l0.002-0.01l0.001-0.006c-0.021,0.07-0.006,0.018-0.01,0.033
		l0.002-0.014l0.02-0.096c0.012-0.062,0.026-0.127,0.042-0.188c0.003-0.016,0.009-0.035,0.01-0.043l0.003-0.029
		c0.002-0.021,0.005-0.039,0.009-0.06c0.006-0.039,0.017-0.071,0.022-0.112c0.026-0.146,0.052-0.291,0.077-0.435
		c0.015-0.12,0.044-0.233,0.05-0.376c0.003-0.145,0.002-0.311-0.025-0.497c-0.005-0.048-0.011-0.095-0.016-0.142
		c-0.008-0.049-0.018-0.098-0.025-0.146c-0.012-0.098-0.03-0.194-0.047-0.294c-0.029-0.193-0.063-0.39-0.085-0.566
		c-0.026-0.178-0.041-0.342-0.051-0.48c-0.022-0.277-0.01-0.461-0.01-0.461s0.181,0.014,0.456,0.08
		c0.139,0.031,0.299,0.083,0.477,0.146c0.176,0.071,0.372,0.149,0.571,0.271c0.101,0.06,0.203,0.123,0.307,0.202
		c0.053,0.035,0.104,0.078,0.156,0.119c0.053,0.043,0.103,0.094,0.156,0.143c0.208,0.191,0.412,0.453,0.583,0.77
		c0.171,0.317,0.289,0.705,0.337,1.096c0.044,0.391,0.017,0.769-0.045,1.111c-0.016,0.088-0.042,0.178-0.062,0.268
		c-0.01,0.044-0.023,0.089-0.035,0.133l-0.019,0.064c-0.007,0.021-0.011,0.033-0.017,0.051c-0.021,0.062-0.044,0.121-0.067,0.183
		l-0.035,0.091l-0.004,0.012l-0.012,0.037v0.002l-0.001,0.002c-0.001,0.002-0.002,0.005-0.004,0.008l-0.009,0.015
		c-0.048,0.079-0.096,0.121-0.142,0.173c-0.047,0.053-0.094,0.135-0.105,0.258c-0.015,0.123,0.005,0.277,0.046,0.438
		c0.042,0.159,0.099,0.324,0.162,0.475c0.062,0.151,0.128,0.293,0.185,0.414C48.572,183.979,48.643,184.127,48.643,184.127z"/>
</g>
<g>
	<path fill="#F3F3F3" d="M57.244,184.127c0,0,0.071-0.146,0.197-0.405c0.057-0.121,0.123-0.262,0.186-0.412
		c0.063-0.149,0.121-0.314,0.161-0.476c0.042-0.158,0.062-0.313,0.047-0.437c-0.011-0.123-0.059-0.205-0.106-0.258
		c-0.045-0.053-0.093-0.095-0.141-0.174l-0.009-0.015c-0.001-0.003-0.003-0.005-0.004-0.009l-0.001-0.002v-0.002l-0.012-0.037
		l-0.004-0.012l-0.035-0.09c-0.024-0.061-0.046-0.121-0.067-0.183c-0.006-0.017-0.01-0.027-0.017-0.05l-0.019-0.065
		c-0.013-0.044-0.024-0.089-0.035-0.133c-0.021-0.089-0.046-0.179-0.062-0.267c-0.062-0.346-0.09-0.724-0.045-1.112
		c0.048-0.392,0.167-0.776,0.338-1.095c0.172-0.315,0.375-0.576,0.584-0.771c0.052-0.049,0.102-0.101,0.155-0.144
		c0.053-0.041,0.103-0.082,0.155-0.119c0.104-0.078,0.207-0.145,0.307-0.201c0.2-0.121,0.396-0.199,0.571-0.271
		c0.178-0.063,0.338-0.115,0.477-0.146c0.276-0.067,0.457-0.08,0.457-0.08s0.012,0.184-0.011,0.461
		c-0.01,0.141-0.025,0.305-0.051,0.48c-0.021,0.179-0.055,0.373-0.084,0.566c-0.018,0.098-0.035,0.196-0.048,0.295
		c-0.006,0.049-0.016,0.096-0.023,0.146c-0.006,0.046-0.011,0.093-0.016,0.141c-0.028,0.188-0.028,0.354-0.025,0.497
		c0.006,0.144,0.034,0.256,0.049,0.376c0.026,0.145,0.052,0.287,0.079,0.434c0.004,0.041,0.016,0.075,0.022,0.113
		c0.004,0.02,0.007,0.038,0.009,0.059l0.003,0.028c0.001,0.009,0.007,0.029,0.01,0.044c0.016,0.062,0.029,0.127,0.042,0.188
		l0.02,0.096l0.002,0.013c-0.005-0.017,0.011,0.037-0.01-0.031l0.001,0.005l0.002,0.01l0.009,0.039l0.017,0.078
		c0.088,0.411,0.095,0.885-0.029,1.315c-0.028,0.105-0.065,0.211-0.108,0.31c-0.038,0.103-0.091,0.192-0.141,0.282
		c-0.105,0.175-0.223,0.33-0.351,0.455c-0.252,0.258-0.522,0.416-0.771,0.519c-0.249,0.104-0.482,0.147-0.687,0.169
		c-0.205,0.02-0.382,0.012-0.529-0.01c-0.146-0.018-0.261-0.049-0.338-0.073C57.285,184.146,57.244,184.127,57.244,184.127z"/>
</g>
<g>
	<path fill="#F3F3F3" d="M53.581,183.347c0,0-0.064-0.012-0.179-0.045c-0.115-0.033-0.282-0.09-0.483-0.183
		c-0.203-0.091-0.44-0.222-0.699-0.399c-0.256-0.182-0.535-0.412-0.803-0.721c-0.267-0.307-0.529-0.691-0.715-1.182
		c-0.097-0.24-0.164-0.515-0.208-0.799c-0.015-0.146-0.036-0.293-0.032-0.444c0-0.075-0.001-0.151,0.001-0.229
		c0.005-0.076,0.013-0.152,0.021-0.229c0.062-0.625,0.31-1.238,0.642-1.753l0.063-0.096l0.032-0.049l0.008-0.012l0.004-0.007
		c-0.042,0.058-0.01,0.014-0.019,0.024l0.012-0.019l0.093-0.142c0.061-0.095,0.123-0.188,0.188-0.279
		c0.015-0.021,0.035-0.051,0.045-0.066l0.032-0.057c0.021-0.038,0.043-0.075,0.066-0.111c0.045-0.072,0.095-0.146,0.137-0.223
		c0.084-0.156,0.183-0.312,0.25-0.461l0.058-0.111c0.02-0.038,0.04-0.072,0.053-0.109c0.03-0.072,0.06-0.146,0.094-0.22
		c0.107-0.29,0.203-0.571,0.257-0.884c0.049-0.312,0.088-0.646,0.091-0.992c0.002-0.087,0.005-0.174,0.008-0.258
		c-0.001-0.088-0.004-0.174-0.003-0.26c0-0.088,0-0.174,0-0.258c-0.002-0.086-0.006-0.17-0.006-0.252
		c-0.002-0.332-0.014-0.65-0.012-0.938c-0.004-0.285,0.002-0.541,0.01-0.754c0.013-0.426,0.051-0.686,0.051-0.686
		s0.201,0.164,0.498,0.478c0.149,0.155,0.317,0.354,0.504,0.585c0.178,0.236,0.382,0.502,0.569,0.822
		c0.048,0.078,0.095,0.16,0.144,0.244s0.09,0.175,0.137,0.266c0.047,0.091,0.09,0.186,0.136,0.279
		c0.043,0.099,0.082,0.203,0.123,0.307c0.166,0.414,0.287,0.9,0.343,1.436c0.053,0.539,0.003,1.127-0.136,1.692
		c-0.039,0.14-0.083,0.276-0.125,0.415c-0.041,0.143-0.103,0.264-0.156,0.396c-0.104,0.27-0.244,0.5-0.374,0.742
		c-0.068,0.117-0.15,0.232-0.225,0.352c-0.038,0.059-0.077,0.115-0.118,0.173l-0.059,0.085c-0.02,0.029-0.035,0.047-0.053,0.07
		c-0.068,0.09-0.138,0.178-0.209,0.266l-0.105,0.131l-0.044,0.057l-0.017,0.021l-0.034,0.041c-0.182,0.211-0.323,0.406-0.417,0.617
		c-0.053,0.104-0.084,0.217-0.12,0.336c-0.024,0.121-0.052,0.25-0.058,0.389c-0.02,0.271,0.009,0.568,0.062,0.857
		c0.053,0.29,0.125,0.572,0.206,0.83c0.079,0.257,0.162,0.486,0.232,0.682C53.485,183.104,53.581,183.347,53.581,183.347z"/>
</g>
<circle fill="#47C7EB" cx="130.912" cy="87.427" r="28.865"/>
<g>
	<polygon fill="#DC4427" points="139.95,75.05 139.859,74.961 139.859,74.818 139.727,74.69 122.119,74.69 121.781,75.018 
		121.781,75.163 113.361,83.303 113.416,83.368 130.733,103.893 130.798,103.818 130.901,103.7 148.384,83.368 148.461,83.279 	"/>
	<polygon fill="#F1573B" points="139.727,74.69 122.119,74.69 121.781,75.018 121.781,83.481 139.859,83.481 139.859,74.818 	"/>
	<polygon fill="#F1573B" points="118.146,83.368 113.416,83.368 130.733,103.893 130.798,103.818 123.104,83.368 	"/>
	<polygon fill="#BB3A26" points="138.698,83.368 130.901,103.7 148.384,83.368 143.7,83.368 	"/>
	<polygon fill="#DC4427" points="138.698,83.368 130.966,83.368 130.992,83.343 130.855,83.343 130.881,83.368 123.104,83.368 
		130.798,103.818 130.901,103.7 	"/>
	<polygon fill="#DC4427" points="121.898,75.05 118.146,83.368 123.104,83.368 123.093,83.343 130.855,83.343 122.088,74.866 	"/>
	<polygon fill="#F1573B" points="121.898,75.05 113.361,83.303 113.416,83.368 118.146,83.368 	"/>
	<polygon fill="#BB3A26" points="139.95,75.05 139.761,74.866 130.992,83.343 138.708,83.343 138.698,83.368 143.7,83.368 	"/>
	<polygon fill="#DC4427" points="139.95,75.05 143.7,83.368 148.384,83.368 148.461,83.279 	"/>
</g>
<rect x="303.635" y="90.558" transform="matrix(0.5914 -0.8064 0.8064 0.5914 15.5105 314.7806)" fill="#2BACE2" width="29.445" height="103.055"/>
<rect x="319.251" y="82.651" transform="matrix(0.5911 -0.8066 0.8066 0.5911 24.3248 316.3392)" fill="#1ABFF1" width="9.814" height="103.056"/>
<rect x="307.652" y="98.466" transform="matrix(0.5913 -0.8064 0.8064 0.5913 6.7813 313.3639)" fill="#0493C8" width="9.813" height="103.051"/>
<path fill="#D51180" d="M248.572,103.109l11.605-15.828c1.608-2.19,4.67-2.662,6.861-1.055l7.914,5.803l-17.411,23.744l-7.914-5.804
	C247.45,108.372,246.977,105.286,248.572,103.109z"/>
<path fill="#EA118D" d="M252.53,106.011l11.605-15.828c1.606-2.19,4.67-2.662,6.859-1.056l7.915,5.804l-17.41,23.743l-7.915-5.804
	C251.408,111.274,250.935,108.188,252.53,106.011z"/>
<path fill="#E7E7E7" d="M368.605,160.702l12.258,25.441c0.621,1.2,0.238,3.051-1.084,2.834l-28.581-4.531L368.605,160.702z"/>
<path fill="#2BACE2" d="M371.189,187.606l8.576,1.36c0.577,0.099,0.961-0.207,1.184-0.676c0.115-0.463,0.143-0.992,0.111-1.56
	c-0.045-0.217-0.108-0.405-0.211-0.6l-3.394-7.072L371.189,187.606z"/>
<rect x="258.815" y="105.125" transform="matrix(0.5913 -0.8064 0.8064 0.5913 23.7138 265.2216)" fill="#424143" width="29.44" height="8.178"/>
</svg>
