<?xml version="1.0" encoding="utf-8"?>
<!-- Generator: Adobe Illustrator 16.0.0, SVG Export Plug-In . SVG Version: 6.00 Build 0)  -->
<!DOCTYPE svg PUBLIC "-//W3C//DTD SVG 1.1//EN" "http://www.w3.org/Graphics/SVG/1.1/DTD/svg11.dtd">
<svg version="1.1" id="Layer_1" xmlns="http://www.w3.org/2000/svg" xmlns:xlink="http://www.w3.org/1999/xlink" x="0px" y="0px"
	 width="600px" height="300.24px" viewBox="0 0 600 300.24" enable-background="new 0 0 600 300.24" xml:space="preserve">
<rect x="0.002" y="0.12" fill="#F1646C" width="599.998" height="300"/>
<path fill="#47C7EB" d="M197.003,96.534l-7.721-2.85c0.609-5.63,0.408-11.371-0.65-17.08l7.459-3.433
	c4.652-2.138,6.695-7.678,4.551-12.338l-4.354-9.448c-2.145-4.658-7.676-6.707-12.327-4.558l-7.467,3.443
	c-3.648-4.519-7.883-8.397-12.551-11.599l2.847-7.713c1.772-4.81-0.69-10.169-5.499-11.944l-9.764-3.612
	c-4.655-1.711-10.221,0.851-11.941,5.502l-2.85,7.721c-5.625-0.604-11.369-0.405-17.072,0.646l-3.438-7.452
	c-2.145-4.658-7.676-6.701-12.334-4.557l-9.451,4.352c-4.655,2.146-6.7,7.684-4.558,12.336l3.441,7.457
	c-4.512,3.652-8.398,7.886-11.598,12.562l-7.708-2.848c-4.651-1.733-10.224,0.833-11.946,5.492l-3.604,9.768
	c-0.861,2.33-0.76,4.854,0.274,7.112c1.047,2.253,2.905,3.97,5.226,4.819l7.721,2.858c-0.613,5.623-0.413,11.371,0.647,17.077
	l-7.458,3.433c-4.657,2.146-6.696,7.675-4.553,12.328l4.354,9.458c2.145,4.648,7.677,6.699,12.331,4.552l7.46-3.436
	c3.648,4.519,7.883,8.399,12.561,11.597l-2.852,7.715c-0.866,2.325-0.766,4.851,0.275,7.11c1.034,2.253,2.893,3.974,5.219,4.839
	l9.764,3.6c2.328,0.861,4.854,0.762,7.11-0.27c2.259-1.043,3.972-2.9,4.827-5.229l2.857-7.722
	c5.624,0.612,11.365,0.412,17.078-0.644l3.43,7.456c2.145,4.648,7.68,6.701,12.336,4.551l9.451-4.352
	c4.66-2.147,6.698-7.676,4.553-12.332l-3.436-7.457c4.514-3.657,8.399-7.883,11.594-12.559l7.721,2.857
	c2.331,0.861,4.856,0.758,7.116-0.283c2.25-1.038,3.963-2.896,4.822-5.219l3.609-9.767
	C204.277,103.667,201.81,98.307,197.003,96.534z M145.87,120.817c-4.875,2.242-10.043,3.38-15.368,3.38
	c-14.313,0-27.423-8.396-33.409-21.388c-8.479-18.417-0.399-40.296,18.008-48.774c4.869-2.245,10.041-3.379,15.361-3.379
	c14.312,0,27.43,8.392,33.416,21.38C172.354,90.458,164.278,112.339,145.87,120.817z"/>
<path fill="#FFFFFF" d="M299.757,80.155l-5.932-0.395c-0.729-4.025-2.042-7.961-3.943-11.698l4.465-3.903
	c2.786-2.433,3.067-6.688,0.629-9.478l-4.949-5.655c-2.438-2.788-6.688-3.076-9.47-0.637l-4.468,3.912
	c-3.452-2.385-7.177-4.205-11.066-5.468l0.395-5.926c0.244-3.694-2.558-6.903-6.251-7.149l-7.503-0.505
	c-3.575-0.234-6.906,2.679-7.146,6.252l-0.396,5.931c-4.02,0.731-7.958,2.045-11.694,3.939l-3.905-4.459
	c-2.438-2.788-6.688-3.073-9.476-0.635l-5.657,4.947c-2.786,2.439-3.069,6.693-0.635,9.478l3.908,4.462
	c-2.377,3.452-4.204,7.18-5.466,11.073l-5.921-0.397c-3.576-0.25-6.912,2.668-7.153,6.248l-0.498,7.503
	c-0.122,1.791,0.466,3.519,1.643,4.871c1.187,1.346,2.824,2.157,4.606,2.27l5.933,0.401c0.726,4.02,2.039,7.961,3.94,11.696
	l-4.465,3.904c-2.787,2.438-3.069,6.686-0.633,9.47l4.95,5.661c2.436,2.782,6.687,3.071,9.473,0.632l4.465-3.906
	c3.451,2.384,7.178,4.206,11.072,5.465l-0.397,5.927c-0.125,1.788,0.461,3.518,1.644,4.869c1.178,1.351,2.816,2.163,4.604,2.284
	l7.5,0.499c1.789,0.12,3.518-0.464,4.87-1.641c1.351-1.183,2.158-2.82,2.275-4.608l0.4-5.935c4.021-0.726,7.957-2.039,11.699-3.938
	l3.9,4.463c2.436,2.782,6.689,3.072,9.476,0.63l5.657-4.946c2.789-2.442,3.07-6.688,0.631-9.474l-3.903-4.463
	c2.378-3.456,4.206-7.178,5.462-11.07l5.932,0.4c1.791,0.12,3.52-0.468,4.872-1.651c1.348-1.179,2.152-2.816,2.273-4.602
	l0.504-7.503C306.254,83.609,303.449,80.4,299.757,80.155z M269.302,107.432c-2.918,2.55-6.266,4.396-9.955,5.485
	c-9.915,2.927-20.712-0.209-27.516-7.985c-9.639-11.023-8.516-27.833,2.502-37.468c2.914-2.551,6.264-4.394,9.95-5.481
	c9.914-2.927,20.717,0.204,27.519,7.977C281.44,80.987,280.319,97.795,269.302,107.432z"/>
<path fill="#FAD50D" d="M102.879,163.013l-6.655,2.06c-2.487-4.098-5.578-7.852-9.227-11.144l3.245-6.146
	c2.026-3.831,0.547-8.605-3.292-10.633l-7.789-4.109c-3.838-2.026-8.609-0.558-10.629,3.28l-3.245,6.157
	c-4.779-1.159-9.619-1.586-14.405-1.335l-2.056-6.649c-1.285-4.143-5.698-6.478-9.843-5.196l-8.421,2.599
	c-4.009,1.246-6.43,5.832-5.193,9.842l2.059,6.656c-4.091,2.489-7.849,5.58-11.141,9.222l-6.145-3.238
	c-3.838-2.027-8.608-0.554-10.634,3.285l-4.111,7.788c-2.024,3.838-0.547,8.612,3.286,10.638l6.149,3.239
	c-1.151,4.776-1.584,9.621-1.329,14.411l-6.645,2.053c-4.018,1.228-6.442,5.821-5.203,9.84l2.607,8.418
	c0.62,2.01,1.989,3.653,3.844,4.639c1.864,0.975,3.996,1.174,5.994,0.55l6.659-2.055c2.483,4.097,5.574,7.855,9.224,11.142
	l-3.245,6.147c-2.025,3.84-0.55,8.604,3.285,10.628l7.793,4.115c3.834,2.021,8.606,0.551,10.629-3.288l3.245-6.147
	c4.777,1.158,9.62,1.587,14.41,1.328l2.055,6.652c0.614,2.01,1.981,3.654,3.844,4.637c1.855,0.981,3.989,1.181,5.997,0.564
	l8.415-2.604c2.008-0.62,3.654-1.986,4.64-3.843c0.981-1.861,1.176-3.992,0.553-5.997l-2.055-6.659
	c4.095-2.483,7.851-5.572,11.146-9.224l6.142,3.245c3.834,2.021,8.609,0.552,10.631-3.288l4.112-7.788
	c2.026-3.846,0.551-8.606-3.288-10.632l-6.146-3.243c1.152-4.78,1.588-9.622,1.328-14.405l6.658-2.055
	c2.009-0.623,3.655-1.992,4.638-3.853c0.977-1.855,1.172-3.987,0.555-5.991l-2.602-8.42
	C111.438,164.063,107.021,161.731,102.879,163.013z M81.015,205.649c-2.122,4.017-5.009,7.44-8.588,10.183
	c-9.619,7.365-22.749,8.471-33.46,2.818c-15.175-8.013-21.006-26.874-12.999-42.045c2.117-4.013,5.008-7.437,8.583-10.176
	c9.619-7.366,22.753-8.478,33.46-2.829C83.188,171.616,89.022,190.479,81.015,205.649z"/>
<rect x="451.078" y="-21.87" transform="matrix(-0.0092 -1 1 -0.0092 440.4403 495.7072)" fill="#2BACE2" width="29.443" height="103.049"/>
<rect x="460.801" y="-31.685" transform="matrix(-0.0094 -1 1 -0.0094 450.2242 485.714)" fill="#1ABFF1" width="9.814" height="103.051"/>
<rect x="460.983" y="-12.056" transform="matrix(-0.0092 -1 1 -0.0092 430.6876 505.7005)" fill="#0493C8" width="9.813" height="103.049"/>
<path fill="#D51180" d="M386.561,40.199l-0.182-19.626c-0.023-2.717,2.146-4.928,4.863-4.953l9.814-0.09l0.271,29.441l-9.814,0.09
	C388.812,45.086,386.586,42.897,386.561,40.199z"/>
<path fill="#EA118D" d="M391.469,40.154l-0.182-19.626c-0.025-2.716,2.146-4.928,4.861-4.953l9.814-0.09l0.271,29.441l-9.814,0.091
	C393.721,45.041,391.494,42.852,391.469,40.154z"/>
<path fill="#E7E7E7" d="M517.186,14.459l25.049,13.037c1.217,0.592,2.018,2.303,0.828,2.92l-25.605,13.484L517.186,14.459z"/>
<path fill="#2BACE2" d="M535.363,34.461l7.684-4.044c0.521-0.268,0.646-0.742,0.543-1.25c-0.184-0.44-0.48-0.88-0.844-1.316
	c-0.166-0.147-0.33-0.259-0.527-0.354l-6.953-3.633L535.363,34.461z"/>
<rect x="395.466" y="26.078" transform="matrix(-0.0092 -1 1 -0.0092 383.8039 440.6155)" fill="#424143" width="29.442" height="8.178"/>
<path fill="#EEDC12" d="M600.781,246.353L443.76,247.8l0.33,35.982l157.023-1.445L600.781,246.353z M587.582,264.468
	c-0.016-1.799,1.443-3.285,3.24-3.301c1.801-0.018,3.287,1.441,3.305,3.24c0.016,1.801-1.443,3.285-3.244,3.303
	C589.084,267.726,587.598,266.269,587.582,264.468z"/>
<path fill="#FCEE23" d="M600.826,251.261l-157.021,1.447l0.332,35.982l157.021-1.445L600.826,251.261z M587.627,269.376
	c-0.016-1.799,1.443-3.285,3.24-3.301c1.801-0.018,3.287,1.441,3.305,3.24c0.016,1.799-1.443,3.285-3.244,3.301
	C589.131,272.634,587.645,271.175,587.627,269.376z"/>
<line fill="none" stroke="#EEDC12" stroke-width="3" stroke-miterlimit="10" x1="579.076" y1="287.448" x2="578.85" y2="262.913"/>
<line fill="none" stroke="#EEDC12" stroke-width="3" stroke-miterlimit="10" x1="569.262" y1="287.538" x2="569.125" y2="272.817"/>
<line fill="none" stroke="#EEDC12" stroke-width="3" stroke-miterlimit="10" x1="559.449" y1="287.628" x2="559.314" y2="272.907"/>
<line fill="none" stroke="#EEDC12" stroke-width="3" stroke-miterlimit="10" x1="549.633" y1="287.72" x2="549.498" y2="272.997"/>
<line fill="none" stroke="#EEDC12" stroke-width="3" stroke-miterlimit="10" x1="539.82" y1="287.81" x2="539.594" y2="263.274"/>
<line fill="none" stroke="#EEDC12" stroke-width="3" stroke-miterlimit="10" x1="530.008" y1="287.899" x2="529.871" y2="273.179"/>
<line fill="none" stroke="#EEDC12" stroke-width="3" stroke-miterlimit="10" x1="520.191" y1="287.991" x2="520.057" y2="273.269"/>
<line fill="none" stroke="#EEDC12" stroke-width="3" stroke-miterlimit="10" x1="510.379" y1="288.081" x2="510.244" y2="273.36"/>
<line fill="none" stroke="#EEDC12" stroke-width="3" stroke-miterlimit="10" x1="500.564" y1="288.171" x2="500.34" y2="263.638"/>
<line fill="none" stroke="#EEDC12" stroke-width="3" stroke-miterlimit="10" x1="490.754" y1="288.261" x2="490.617" y2="273.54"/>
<line fill="none" stroke="#EEDC12" stroke-width="3" stroke-miterlimit="10" x1="480.938" y1="288.353" x2="480.801" y2="273.632"/>
<line fill="none" stroke="#EEDC12" stroke-width="3" stroke-miterlimit="10" x1="471.125" y1="288.442" x2="470.99" y2="273.722"/>
<line fill="none" stroke="#EEDC12" stroke-width="3" stroke-miterlimit="10" x1="461.311" y1="288.532" x2="461.086" y2="263.999"/>
<rect x="479.929" y="51.09" transform="matrix(-0.0092 -1 1 -0.0092 432.03 618.5679)" fill="#424143" width="85.056" height="88.328"/>
<g>
	<g>
		<polyline fill="none" stroke="#595A5C" stroke-width="2" stroke-linecap="square" stroke-miterlimit="10" points="
			490.076,131.538 485.17,131.583 485.125,126.677 		"/>
		
			<line fill="none" stroke="#595A5C" stroke-width="2" stroke-linecap="square" stroke-miterlimit="10" stroke-dasharray="6,5" x1="485.049" y1="118.499" x2="484.582" y2="67.794"/>
		<polyline fill="none" stroke="#595A5C" stroke-width="2" stroke-linecap="square" stroke-miterlimit="10" points="484.553,64.523 
			484.506,59.615 489.414,59.57 		"/>
		
			<line fill="none" stroke="#595A5C" stroke-width="2" stroke-linecap="square" stroke-miterlimit="10" stroke-dasharray="6,5" x1="497.594" y1="59.495" x2="549.934" y2="59.013"/>
		<polyline fill="none" stroke="#595A5C" stroke-width="2" stroke-linecap="square" stroke-miterlimit="10" points="554.84,58.968 
			559.744,58.923 559.789,63.83 		"/>
		
			<line fill="none" stroke="#595A5C" stroke-width="2" stroke-linecap="square" stroke-miterlimit="10" stroke-dasharray="6,5" x1="559.865" y1="72.009" x2="560.318" y2="121.077"/>
		<polyline fill="none" stroke="#595A5C" stroke-width="2" stroke-linecap="square" stroke-miterlimit="10" points="
			560.363,125.984 560.408,130.89 555.502,130.936 		"/>
		
			<line fill="none" stroke="#595A5C" stroke-width="2" stroke-linecap="square" stroke-miterlimit="10" stroke-dasharray="6,5" x1="547.324" y1="131.011" x2="494.982" y2="131.493"/>
	</g>
</g>
<polyline fill="none" stroke="#595A5C" stroke-width="2" stroke-linecap="square" stroke-miterlimit="10" points="534.543,105.693 
	521.865,119.797 509.84,106.819 "/>
<polyline fill="none" stroke="#595A5C" stroke-width="2" stroke-linecap="square" stroke-miterlimit="10" points="534.355,85.329 
	521.42,71.463 509.635,84.656 "/>
<line fill="none" stroke="#595A5C" stroke-width="2" stroke-linecap="square" stroke-miterlimit="10" x1="509.703" y1="92.099" x2="534.482" y2="98.955"/>
<g>
	<path fill="#333333" d="M328.48,294.54l-0.996,0.001c0.045,0.001,0.086,0.007,0.131,0.007h152.172c6.66,0,14.018-5.373,16.43-12
		l44.137-121.264H376.982L328.48,294.54z M380.158,276.296h-25l2.547-7h25.002L380.158,276.296z M383.799,266.296h-25.002l2.549-7
		h25L383.799,266.296z M387.439,256.296h-25.002l2.547-7h25.002L387.439,256.296z M391.078,246.296h-25l2.547-7h25.002
		L391.078,246.296z M394.719,236.296h-25.002l2.549-7h25L394.719,236.296z M427.139,276.296h-42.646l2.547-7h42.646L427.139,276.296
		z M412.67,246.296l2.547-7h54.74l-2.547,7H412.67z M461.65,249.296l-2.547,7h-30.074l2.547-7H461.65z M428.764,249.296l-2.547,7
		h-17.188l2.547-7H428.764z M443.957,236.296l2.549-7h17.668l-2.549,7H443.957z M464.225,249.296h17.668l-2.547,7h-17.668
		L464.225,249.296z M470.318,246.296l2.547-7h17.668l-2.547,7H470.318z M495.791,197.629l-2.547,7h-17.668l2.547-7H495.791z
		 M489.215,194.629l2.549-7h17.668l-2.549,7H489.215z M486.215,194.629h-42.646l2.547-7h42.646L486.215,194.629z M474.123,197.629
		l-2.549,7h-42.646l2.549-7H474.123z M440.068,194.629h-25.852l2.547-7h25.852L440.068,194.629z M428.125,197.629l-2.547,7h-15.002
		l2.549-7H428.125z M444.246,229.296l-2.549,7h-42.646l2.547-7H444.246z M412.959,239.296l-2.547,7H395.41l2.549-7H412.959z
		 M409.318,249.296l-2.547,7h-15l2.547-7H409.318z M465.014,259.296l-2.549,7h-74.334l2.549-7H465.014z M446.826,276.296h-17.188
		l2.547-7h17.188L446.826,276.296z M467.492,276.296h-17.668l2.547-7h17.668L467.492,276.296z M483.465,266.296h-17.668l2.547-7
		h17.668L483.465,266.296z M503.402,177.629h17.668l-2.547,7h-17.668L503.402,177.629z M485.404,177.629h15l-2.549,7h-15
		L485.404,177.629z M438.756,177.629h42.646l-2.549,7h-42.646L438.756,177.629z M432.857,184.629h-15.002l2.549-7h15
		L432.857,184.629z M380.959,167.629h48.086l-2.549,7h-48.084L380.959,167.629z M384.883,194.629l2.547-7h25.002l-2.549,7H384.883z
		 M408.791,197.629l-2.547,7h-25.002l2.549-7H408.791z M388.521,184.629l2.549-7h25l-2.547,7H388.521z M366.521,207.296h38.752
		l-2.549,7h-38.75L366.521,207.296z M419.381,217.629l-2.549,7h-56.619l2.549-7H419.381z"/>
	<path fill="#4D4D4D" d="M319.867,294.55L319.867,294.55C319.949,294.55,319.939,294.555,319.867,294.55z"/>
	<path fill="#4D4D4D" d="M376.982,161.284h-12.918l2.049-5.652c0,0.003-0.002,0.006-0.004,0.01l-2.053,5.643L319.92,282.548
		l-2.066,5.675c-2.109,5.8,1.51,6.294,2.014,6.327l7.617-0.009l0.996-0.001L376.982,161.284z"/>
	<path fill="#CCCCCC" d="M367.186,152.675L367.186,152.675C367.156,152.756,367.152,152.749,367.186,152.675z"/>
	<path fill="#CCCCCC" d="M538.287,148.358H376.479c-7.078,0-9.064,3.8-9.293,4.316l-1.072,2.957l-2.049,5.652h12.918h163.371
		l3.09-8.491C544.496,149.898,542.283,148.358,538.287,148.358z M374.357,158.294c-2.072,0-3.139-1.679-2.385-3.75
		s3.043-3.75,5.115-3.75c2.07,0,3.139,1.679,2.385,3.75S376.428,158.294,374.357,158.294z M384.357,158.294
		c-2.072,0-3.139-1.679-2.385-3.75s3.043-3.75,5.115-3.75c2.07,0,3.139,1.679,2.385,3.75S386.428,158.294,384.357,158.294z
		 M394.357,158.294c-2.072,0-3.139-1.679-2.385-3.75s3.043-3.75,5.115-3.75c2.07,0,3.139,1.679,2.385,3.75
		S396.428,158.294,394.357,158.294z"/>
	<path fill="#999999" d="M377.088,150.794c-2.072,0-4.361,1.679-5.115,3.75s0.312,3.75,2.385,3.75c2.07,0,4.361-1.679,5.115-3.75
		S379.158,150.794,377.088,150.794z"/>
	<path fill="#999999" d="M387.088,150.794c-2.072,0-4.361,1.679-5.115,3.75s0.312,3.75,2.385,3.75c2.07,0,4.361-1.679,5.115-3.75
		S389.158,150.794,387.088,150.794z"/>
	<path fill="#999999" d="M397.088,150.794c-2.072,0-4.361,1.679-5.115,3.75s0.312,3.75,2.385,3.75c2.07,0,4.361-1.679,5.115-3.75
		S399.158,150.794,397.088,150.794z"/>
	<polygon fill="#F3808B" points="429.045,167.629 380.959,167.629 378.412,174.629 426.496,174.629 	"/>
	<polygon fill="#F3808B" points="405.273,207.296 366.521,207.296 363.975,214.296 402.725,214.296 	"/>
	<polygon fill="#2EBEEF" points="416.07,177.629 391.07,177.629 388.521,184.629 413.523,184.629 	"/>
	<polygon fill="#C2DA69" points="417.855,184.629 432.857,184.629 435.404,177.629 420.404,177.629 	"/>
	<polygon fill="#FAF398" points="481.402,177.629 438.756,177.629 436.207,184.629 478.854,184.629 	"/>
	<polygon fill="#FAF398" points="443.568,194.629 486.215,194.629 488.762,187.629 446.115,187.629 	"/>
	<polygon fill="#FAF398" points="428.928,204.629 471.574,204.629 474.123,197.629 431.477,197.629 	"/>
	<polygon fill="#FAF398" points="399.051,236.296 441.697,236.296 444.246,229.296 401.598,229.296 	"/>
	<polygon fill="#FAF398" points="395.41,246.296 410.412,246.296 412.959,239.296 397.959,239.296 	"/>
	<polygon fill="#FAF398" points="391.771,256.296 406.771,256.296 409.318,249.296 394.318,249.296 	"/>
	<polygon fill="#FAF398" points="388.131,266.296 462.465,266.296 465.014,259.296 390.68,259.296 	"/>
	<polygon fill="#FAF398" points="384.492,276.296 427.139,276.296 429.686,269.296 387.039,269.296 	"/>
	<polygon fill="#C2DA69" points="500.404,177.629 485.404,177.629 482.855,184.629 497.855,184.629 	"/>
	<polygon fill="#C2DA69" points="414.217,194.629 440.068,194.629 442.615,187.629 416.764,187.629 	"/>
	<polygon fill="#C2DA69" points="429.639,276.296 446.826,276.296 449.373,269.296 432.186,269.296 	"/>
	<polygon fill="#C2DA69" points="409.029,256.296 426.217,256.296 428.764,249.296 411.576,249.296 	"/>
	<polygon fill="#C2DA69" points="469.957,239.296 415.217,239.296 412.67,246.296 467.41,246.296 	"/>
	<polygon fill="#C2DA69" points="459.104,256.296 461.65,249.296 431.576,249.296 429.029,256.296 	"/>
	<polygon fill="#C2DA69" points="410.576,204.629 425.578,204.629 428.125,197.629 413.125,197.629 	"/>
	<polygon fill="#2EBEEF" points="412.432,187.629 387.43,187.629 384.883,194.629 409.883,194.629 	"/>
	<polygon fill="#2EBEEF" points="381.242,204.629 406.244,204.629 408.791,197.629 383.791,197.629 	"/>
	<polygon fill="#2BBEEF" points="475.576,204.629 493.244,204.629 495.791,197.629 478.123,197.629 	"/>
	<polygon fill="#2BBEEF" points="465.797,266.296 483.465,266.296 486.012,259.296 468.344,259.296 	"/>
	<polygon fill="#2BBEEF" points="449.824,276.296 467.492,276.296 470.039,269.296 452.371,269.296 	"/>
	<polygon fill="#2BBEEF" points="446.506,229.296 443.957,236.296 461.625,236.296 464.174,229.296 	"/>
	<polygon fill="#2BBEEF" points="490.533,239.296 472.865,239.296 470.318,246.296 487.986,246.296 	"/>
	<polygon fill="#2BBEEF" points="481.893,249.296 464.225,249.296 461.678,256.296 479.346,256.296 	"/>
	<polygon fill="#2BBEEF" points="509.432,187.629 491.764,187.629 489.215,194.629 506.883,194.629 	"/>
	<polygon fill="#2BBEEF" points="521.07,177.629 503.402,177.629 500.855,184.629 518.523,184.629 	"/>
	<polygon fill="#2EBEEF" points="369.717,236.296 394.719,236.296 397.266,229.296 372.266,229.296 	"/>
	<polygon fill="#2EBEEF" points="366.078,246.296 391.078,246.296 393.627,239.296 368.625,239.296 	"/>
	<polygon fill="#2EBEEF" points="362.438,256.296 387.439,256.296 389.986,249.296 364.984,249.296 	"/>
	<polygon fill="#2EBEEF" points="358.797,266.296 383.799,266.296 386.346,259.296 361.346,259.296 	"/>
	<polygon fill="#2EBEEF" points="355.158,276.296 380.158,276.296 382.707,269.296 357.705,269.296 	"/>
	<polygon fill="#F3808B" points="416.832,224.629 419.381,217.629 362.762,217.629 360.213,224.629 	"/>
</g>
<g>
	<path fill="#3F3F40" d="M314.391,252.376c0,3.668-2.969,6.639-6.637,6.639H174.98c-3.668,0-6.639-2.971-6.639-6.639v-92.939
		c0-3.668,2.971-6.64,6.639-6.64h132.773c3.668,0,6.637,2.972,6.637,6.64V252.376z"/>
	<rect x="221.453" y="259.015" fill="#E2E4E5" width="39.833" height="17.014"/>
	<path fill="#F1F1F2" d="M274.56,279.347c0,1.832-1.484,3.32-3.321,3.32h-59.745c-1.834,0-3.32-1.484-3.32-3.32
		c0-1.834,1.486-3.32,3.32-3.32h59.748C273.075,276.028,274.56,277.515,274.56,279.347z"/>
	<path fill="#FFFFFF" d="M314.391,252.376v-19.914H168.342v19.914c0,3.668,2.973,6.639,6.639,6.639h132.773
		C311.42,259.015,314.391,256.044,314.391,252.376z"/>
	<path fill="#D0D3D4" d="M241.367,255.075c-4.921,0-8.921-4-8.921-8.922c0-4.916,4.005-8.92,8.921-8.92s8.921,4,8.921,8.92
		C250.288,251.075,246.288,255.075,241.367,255.075z M241.367,241.796c-2.402,0-4.357,1.955-4.357,4.357s1.955,4.357,4.357,4.357
		s4.356-1.955,4.356-4.357C245.724,243.753,243.77,241.796,241.367,241.796z"/>
	<path fill="#5C5D60" d="M168.342,159.229v73.026h45.012l79.663-79.665H174.98C171.314,152.59,168.342,155.563,168.342,159.229z"/>
	<g>
		<path fill="#FFFFFF" d="M185.261,169.681c0-2.521,0.862-3.935,2.519-3.935c1.66,0,2.521,1.414,2.521,3.935
			c0,2.531-0.863,3.945-2.521,3.945C186.123,173.626,185.261,172.212,185.261,169.681z M189.252,169.681
			c0-2.223-0.542-3.129-1.468-3.129c-0.918,0-1.471,0.906-1.471,3.129c0,2.232,0.553,3.141,1.471,3.141
			C188.708,172.818,189.252,171.911,189.252,169.681z M187.779,168.961c0.421,0,0.731,0.319,0.731,0.72
			c0,0.408-0.31,0.73-0.731,0.73c-0.408,0-0.718-0.322-0.718-0.73C187.062,169.28,187.371,168.961,187.779,168.961z"/>
		<path fill="#FFFFFF" d="M194.375,166.994l-1.823,1.104l-0.486-0.708l2.431-1.515h0.894v6.798h1.56v0.819h-4.443v-0.819h1.87v-5.68
			H194.375z"/>
		<path fill="#FFFFFF" d="M209.557,166.905l0.486,0.762l-3.869,2.367l3.869,2.375l-0.533,0.741l-4.214-2.631v-0.983L209.557,166.905
			z"/>
		<path fill="#FFFFFF" d="M215.676,173.493v-3.568h-2.764v3.568h-1.052v-7.614h1.052v3.183h2.764v-3.183h1.05v7.614H215.676z"/>
		<path fill="#FFFFFF" d="M221.43,166.761v6.732h-1.047v-6.732h-2.358v-0.882h5.794l-0.111,0.882H221.43z"/>
		<path fill="#FFFFFF" d="M229.551,173.493l-0.223-3.902c-0.053-1.072-0.053-2.309-0.042-2.553h-0.034l-1.206,5.096h-1.005
			l-1.262-5.096h-0.044c0,0.252,0.024,1.569-0.022,2.553l-0.188,3.902h-0.972l0.433-7.614h1.391l1.172,5.083h0.045l1.116-5.083
			h1.402l0.432,7.614H229.551z"/>
		<path fill="#FFFFFF" d="M232.311,173.493v-7.614h1.049v6.696h3.459l-0.12,0.918H232.311z"/>
		<path fill="#FFFFFF" d="M243.184,169.536v0.983l-4.212,2.631l-0.533-0.741l3.869-2.375l-3.869-2.367l0.486-0.762L243.184,169.536z
			"/>
		<path fill="#FFFFFF" d="M185.261,182.937c0-2.52,0.862-3.934,2.519-3.934c1.66,0,2.521,1.414,2.521,3.934
			c0,2.531-0.863,3.945-2.521,3.945C186.123,186.882,185.261,185.468,185.261,182.937z M189.252,182.937
			c0-2.223-0.542-3.129-1.468-3.129c-0.918,0-1.471,0.906-1.471,3.129c0,2.234,0.553,3.14,1.471,3.14
			C188.708,186.073,189.252,185.168,189.252,182.937z M187.779,182.218c0.421,0,0.731,0.319,0.731,0.719
			c0,0.408-0.31,0.73-0.731,0.73c-0.408,0-0.718-0.322-0.718-0.73C187.062,182.537,187.371,182.218,187.779,182.218z"/>
		<path fill="#FFFFFF" d="M193.204,185.899h3.461l-0.123,0.85h-4.531v-0.807c2.632-2.608,3.438-3.662,3.438-4.809
			c0-0.819-0.553-1.283-1.292-1.283c-0.631,0-1.061,0.232-1.529,0.818l-0.707-0.498c0.6-0.739,1.349-1.172,2.289-1.172
			c1.391,0,2.289,0.884,2.289,2.101C196.497,182.429,195.448,183.754,193.204,185.899z"/>
		<path fill="#FFFFFF" d="M209.557,180.161l0.486,0.763l-3.869,2.366l3.869,2.376l-0.533,0.741l-4.214-2.631v-0.984L209.557,180.161
			z"/>
		<path fill="#FFFFFF" d="M214.094,186.749h-2.099v-7.615h1.935c1.361,0,2.721,0.432,2.721,1.925c0,0.972-0.684,1.481-1.326,1.624
			v0.044c0.762,0.144,1.658,0.587,1.658,1.847C216.978,186.241,215.52,186.749,214.094,186.749z M214.116,179.964h-1.072v2.387
			h1.161c0.887,0,1.373-0.366,1.373-1.229C215.576,180.282,215.023,179.964,214.116,179.964z M214.281,183.19h-1.239v2.709h1.194
			c0.74,0,1.636-0.211,1.636-1.307C215.875,183.478,215.155,183.19,214.281,183.19z"/>
		<path fill="#FFFFFF" d="M220.922,186.882c-1.868,0-2.831-1.559-2.831-3.922c0-2.321,0.963-3.957,2.831-3.957
			c1.867,0,2.83,1.581,2.83,3.945C223.752,185.269,222.79,186.882,220.922,186.882z M220.922,179.862
			c-1.239,0-1.738,1.084-1.738,3.096c0,2.01,0.535,3.062,1.738,3.062c1.239,0,1.734-1.062,1.734-3.075
			C222.656,180.935,222.159,179.862,220.922,179.862z"/>
		<path fill="#FFFFFF" d="M226.897,186.749h-1.781v-7.615h1.658c1.805,0,3.592,0.607,3.592,3.771
			C230.367,186.087,228.513,186.749,226.897,186.749z M227.008,179.975h-0.84v5.946h0.851c1.083,0,2.233-0.551,2.233-3.016
			C229.252,180.316,228.047,179.975,227.008,179.975z"/>
		<path fill="#FFFFFF" d="M234.708,183.819v2.93h-1.061v-2.918l-2.565-4.699h1.161l1.948,3.725h0.033l1.954-3.725h1.095
			L234.708,183.819z"/>
		<path fill="#FFFFFF" d="M243.184,182.792v0.984l-4.212,2.631l-0.533-0.741l3.869-2.376l-3.869-2.366l0.486-0.763L243.184,182.792z
			"/>
		<path fill="#FFFFFF" d="M185.261,196.192c0-2.52,0.862-3.934,2.519-3.934c1.66,0,2.521,1.414,2.521,3.934
			c0,2.531-0.863,3.945-2.521,3.945C186.123,200.138,185.261,198.724,185.261,196.192z M189.252,196.192
			c0-2.223-0.542-3.129-1.468-3.129c-0.918,0-1.471,0.906-1.471,3.129c0,2.234,0.553,3.139,1.471,3.139
			C188.708,199.331,189.252,198.425,189.252,196.192z M187.779,195.474c0.421,0,0.731,0.32,0.731,0.719
			c0,0.409-0.31,0.73-0.731,0.73c-0.408,0-0.718-0.321-0.718-0.73C187.062,195.794,187.371,195.474,187.779,195.474z"/>
		<path fill="#FFFFFF" d="M194.11,200.138c-0.885,0-1.792-0.32-2.375-1.027l0.662-0.55c0.433,0.509,1.061,0.749,1.681,0.749
			c1.025,0,1.647-0.575,1.647-1.504c0-1.061-0.653-1.414-1.549-1.414h-0.583l0.12-0.785h0.399c0.729,0,1.415-0.408,1.415-1.293
			c0-0.809-0.619-1.252-1.404-1.252c-0.651,0-1.105,0.232-1.6,0.697l-0.553-0.607c0.651-0.619,1.402-0.897,2.211-0.897
			c1.458,0,2.367,0.874,2.367,1.912c0,0.929-0.687,1.616-1.449,1.761v0.042c0.84,0.056,1.691,0.686,1.691,1.847
			C196.785,199.132,195.713,200.138,194.11,200.138z"/>
		<path fill="#FFFFFF" d="M209.557,193.418l0.486,0.763l-3.869,2.366l3.869,2.374l-0.533,0.742l-4.214-2.631v-0.983L209.557,193.418
			z"/>
		<path fill="#FFFFFF" d="M215.676,200.005v-3.568h-2.764v3.568h-1.052v-7.616h1.052v3.184h2.764v-3.184h1.05v7.616H215.676
			L215.676,200.005z"/>
		<path fill="#FFFFFF" d="M219.893,193.229v2.486h2.808v0.84h-2.808v2.62h3.441v0.829h-4.491v-7.616h4.402l-0.123,0.841H219.893z"/>
		<path fill="#FFFFFF" d="M228.987,198.094h-2.931l-0.586,1.911h-1.05l2.465-7.614h1.324l2.465,7.614h-1.103L228.987,198.094z
			 M226.311,197.242h2.422l-1.184-3.901h-0.042L226.311,197.242z"/>
		<path fill="#FFFFFF" d="M233.527,200.005h-1.781v-7.616h1.66c1.801,0,3.591,0.607,3.591,3.77
			C236.997,199.341,235.141,200.005,233.527,200.005z M233.634,193.229h-0.838v5.946h0.852c1.083,0,2.232-0.553,2.232-3.018
			C235.88,193.573,234.677,193.229,233.634,193.229z"/>
		<path fill="#FFFFFF" d="M239.78,193.229v2.486h2.806v0.84h-2.806v2.62h3.437v0.829h-4.488v-7.616h4.399l-0.121,0.841H239.78z"/>
		<path fill="#FFFFFF" d="M248.263,196.647l2.232,3.357h-1.248l-2.032-3.225h-0.972v3.225h-1.052v-7.616h2.001
			c1.903,0,2.897,0.728,2.897,2.153C250.085,195.684,249.292,196.38,248.263,196.647z M247.291,193.208h-1.053v2.764h1.062
			c1.061,0,1.669-0.397,1.669-1.427C248.971,193.593,248.427,193.208,247.291,193.208z"/>
		<path fill="#FFFFFF" d="M256.441,196.049v0.983l-4.215,2.631l-0.532-0.742l3.868-2.374l-3.868-2.366l0.485-0.763L256.441,196.049z
			"/>
		<path fill="#FFFFFF" d="M185.261,209.449c0-2.519,0.862-3.936,2.519-3.936c1.66,0,2.521,1.417,2.521,3.936
			c0,2.532-0.863,3.944-2.521,3.944C186.123,213.394,185.261,211.981,185.261,209.449z M189.252,209.449
			c0-2.224-0.542-3.129-1.468-3.129c-0.918,0-1.471,0.905-1.471,3.129c0,2.233,0.553,3.14,1.471,3.14
			C188.708,212.589,189.252,211.683,189.252,209.449z M187.779,208.731c0.421,0,0.731,0.318,0.731,0.718
			c0,0.41-0.31,0.731-0.731,0.731c-0.408,0-0.718-0.321-0.718-0.731C187.062,209.053,187.371,208.731,187.779,208.731z"/>
		<path fill="#FFFFFF" d="M195.958,211.439v1.823h-0.985v-1.823h-3.115v-0.72l2.23-5.206l0.849,0.353l-2.01,4.764h2.043l0.1-1.987
			h0.883v1.987h0.962v0.81H195.958z"/>
		<path fill="#FFFFFF" d="M209.557,206.675l0.486,0.762l-3.869,2.365l3.869,2.375l-0.533,0.744l-4.214-2.631v-0.983L209.557,206.675
			z"/>
		<path fill="#FFFFFF" d="M212.349,214.413l-0.82-0.363l4.72-9.74l0.809,0.389L212.349,214.413z"/>
		<path fill="#FFFFFF" d="M222.304,213.263v-3.568h-2.763v3.568h-1.052v-7.615h1.052v3.182h2.763v-3.182h1.048v7.615H222.304z"/>
		<path fill="#FFFFFF" d="M226.522,206.487v2.487h2.806v0.841h-2.806v2.62h3.439v0.827h-4.488v-7.615h4.399l-0.12,0.84H226.522z"/>
		<path fill="#FFFFFF" d="M235.613,211.351h-2.929l-0.588,1.912h-1.048l2.465-7.615h1.323l2.465,7.615h-1.104L235.613,211.351z
			 M232.938,210.499h2.423l-1.184-3.902h-0.045L232.938,210.499z"/>
		<path fill="#FFFFFF" d="M240.152,213.263h-1.78v-7.615h1.66c1.803,0,3.59,0.605,3.59,3.771
			C243.622,212.601,241.769,213.263,240.152,213.263z M240.267,206.487h-0.843v5.948h0.852c1.085,0,2.232-0.553,2.232-3.018
			C242.508,206.829,241.305,206.487,240.267,206.487z"/>
		<path fill="#FFFFFF" d="M246.406,206.487v2.487h2.806v0.841h-2.806v2.62h3.438v0.827h-4.488v-7.615h4.399l-0.121,0.84H246.406z"/>
		<path fill="#FFFFFF" d="M254.89,209.901l2.233,3.361h-1.248l-2.032-3.227h-0.974v3.227h-1.05v-7.615h2.001
			c1.901,0,2.897,0.727,2.897,2.152C256.718,208.941,255.92,209.637,254.89,209.901z M253.918,206.463h-1.049v2.764h1.061
			c1.062,0,1.669-0.397,1.669-1.427C255.599,206.851,255.057,206.463,253.918,206.463z"/>
		<path fill="#FFFFFF" d="M263.066,209.307v0.983l-4.212,2.631l-0.532-0.744l3.868-2.375l-3.868-2.365l0.485-0.762L263.066,209.307z
			"/>
	</g>
</g>
<g>
	<g>
		<g>
			<rect x="433.756" y="175.09" fill="#5BAADE" width="0" height="0"/>
		</g>
	</g>
</g>
<path fill="#47C7EB" d="M433.92,25.441c-24.754,0-44.818,20.064-44.818,44.817c0,3.579,0.432,7.054,1.223,10.391
	c5.238,30.77,30,64.295,43.432,94.44c12.895-28.943,36.232-61.002,42.709-90.747c1.467-4.431,2.271-9.162,2.271-14.084
	C478.736,45.506,458.672,25.441,433.92,25.441z M433.918,92.386c-12.889,0-23.336-10.447-23.336-23.335
	c0-12.889,10.447-23.336,23.336-23.336c12.887,0,23.336,10.447,23.336,23.336C457.254,81.938,446.805,92.386,433.918,92.386z"/>
<path fill="#EF4836" d="M444.418,201.532c0.027,0,0.057,0,0.086,0c-0.049-0.135-0.111-0.271-0.166-0.406
	c-0.324-1.534-1.141-2.937-2.334-4.096c-2.518-3.555-6.104-7.226-8.717-10.604c-2.613,3.38-6.199,7.052-8.719,10.607
	c-1.189,1.158-2.008,2.56-2.33,4.093c-0.055,0.136-0.117,0.271-0.166,0.406c0.029,0,0.059,0,0.086,0
	c-0.051,0.345-0.086,0.692-0.086,1.048c0,0.027,0.006,0.053,0.006,0.08c-0.002,0-0.004,0-0.006,0
	c0.002,0.019,0.008,0.038,0.01,0.057c0.016,0.855,0.182,1.684,0.486,2.464c1.785,6.513,7.412,13.559,10.719,19.91
	c3.307-6.352,8.934-13.396,10.719-19.908c0.307-0.781,0.473-1.609,0.488-2.466c0.002-0.019,0.008-0.038,0.01-0.057
	c-0.002,0-0.004,0-0.006,0c0-0.027,0.006-0.053,0.006-0.08C444.504,202.225,444.469,201.877,444.418,201.532z"/>
<g id="Icon">
	<ellipse fill="#FAD50D" cx="53.504" cy="191.128" rx="29.751" ry="29.518"/>
</g>
<circle fill="none" stroke="#F3F3F3" stroke-width="3" stroke-miterlimit="10" cx="69.121" cy="196.454" r="4.467"/>
<path fill="#F3F3F3" d="M37.851,186.79c0,9.32,7.076,19.211,15.804,19.211c8.728,0,15.803-9.891,15.803-19.211"/>
<path fill="#CA8B44" d="M40.07,188.14c0,8.01,6.083,16.512,13.585,16.512c7.502,0,13.584-8.502,13.584-16.512"/>
<path fill="#4C3C2F" d="M42.655,189.71c0,6.486,4.925,13.371,11,13.371c6.075,0,11-6.885,11-13.371"/>
<line fill="none" stroke="#F3F3F3" stroke-width="3" stroke-miterlimit="10" x1="43.243" y1="206.292" x2="63.328" y2="206.292"/>
<g>
	<path fill="#F3F3F3" d="M48.643,184.127c0,0-0.041,0.02-0.119,0.044c-0.078,0.025-0.193,0.056-0.338,0.073
		c-0.147,0.021-0.324,0.028-0.53,0.01c-0.204-0.021-0.437-0.065-0.686-0.169c-0.249-0.102-0.519-0.26-0.771-0.518
		c-0.127-0.125-0.246-0.281-0.351-0.456c-0.049-0.09-0.102-0.181-0.14-0.282c-0.043-0.099-0.08-0.202-0.108-0.31
		c-0.124-0.431-0.118-0.903-0.029-1.315l0.016-0.078l0.009-0.039l0.002-0.01l0.001-0.005c-0.021,0.069-0.006,0.017-0.01,0.032
		l0.002-0.012l0.02-0.096c0.012-0.062,0.026-0.127,0.042-0.189c0.003-0.014,0.009-0.035,0.01-0.043l0.003-0.029
		c0.002-0.02,0.005-0.039,0.009-0.058c0.006-0.039,0.017-0.073,0.022-0.114c0.026-0.146,0.052-0.29,0.077-0.433
		c0.015-0.12,0.044-0.234,0.05-0.376c0.003-0.143,0.002-0.31-0.025-0.497c-0.005-0.048-0.011-0.095-0.016-0.141
		c-0.008-0.049-0.018-0.097-0.025-0.146c-0.012-0.098-0.03-0.196-0.047-0.294c-0.029-0.194-0.063-0.39-0.085-0.567
		c-0.026-0.178-0.041-0.342-0.051-0.481c-0.022-0.278-0.01-0.461-0.01-0.461s0.181,0.013,0.456,0.08
		c0.139,0.032,0.299,0.083,0.477,0.147c0.176,0.072,0.372,0.15,0.571,0.271c0.101,0.059,0.203,0.123,0.307,0.202
		c0.053,0.037,0.104,0.079,0.156,0.12c0.053,0.043,0.103,0.093,0.156,0.142c0.208,0.192,0.412,0.453,0.583,0.769
		c0.171,0.318,0.289,0.704,0.337,1.095c0.044,0.391,0.017,0.769-0.045,1.112c-0.016,0.088-0.042,0.178-0.062,0.267
		c-0.01,0.044-0.023,0.089-0.035,0.133l-0.019,0.065c-0.007,0.022-0.011,0.033-0.017,0.05c-0.021,0.062-0.044,0.122-0.067,0.183
		l-0.035,0.09l-0.004,0.012l-0.012,0.037l0,0.002l-0.001,0.002c-0.001,0.002-0.002,0.004-0.004,0.007l-0.009,0.015
		c-0.048,0.079-0.096,0.121-0.142,0.172c-0.047,0.053-0.094,0.134-0.105,0.258c-0.015,0.123,0.005,0.278,0.046,0.437
		c0.042,0.159,0.099,0.324,0.162,0.475c0.062,0.151,0.128,0.292,0.185,0.413C48.572,183.98,48.643,184.127,48.643,184.127z"/>
</g>
<g>
	<path fill="#F3F3F3" d="M57.244,184.127c0,0,0.071-0.146,0.197-0.405c0.057-0.121,0.123-0.262,0.186-0.413
		c0.063-0.15,0.121-0.315,0.161-0.475c0.042-0.158,0.062-0.313,0.047-0.437c-0.011-0.123-0.059-0.205-0.106-0.258
		c-0.045-0.051-0.093-0.093-0.141-0.172l-0.009-0.015c-0.001-0.003-0.003-0.005-0.004-0.007l-0.001-0.002l0-0.002l-0.012-0.037
		l-0.004-0.012l-0.035-0.09c-0.024-0.061-0.046-0.121-0.067-0.183c-0.006-0.017-0.01-0.027-0.017-0.05l-0.019-0.065
		c-0.013-0.044-0.024-0.089-0.035-0.133c-0.021-0.089-0.046-0.179-0.062-0.267c-0.062-0.344-0.09-0.722-0.045-1.112
		c0.048-0.391,0.167-0.776,0.338-1.095c0.172-0.315,0.375-0.576,0.584-0.769c0.052-0.049,0.102-0.099,0.155-0.142
		c0.053-0.041,0.103-0.083,0.155-0.12c0.104-0.079,0.207-0.144,0.307-0.202c0.2-0.121,0.396-0.199,0.571-0.271
		c0.178-0.064,0.338-0.115,0.477-0.147c0.276-0.067,0.457-0.08,0.457-0.08s0.012,0.183-0.011,0.461
		c-0.01,0.14-0.025,0.304-0.051,0.481c-0.021,0.178-0.055,0.373-0.084,0.567c-0.018,0.098-0.035,0.196-0.048,0.294
		c-0.006,0.049-0.016,0.097-0.023,0.146c-0.006,0.046-0.011,0.093-0.016,0.141c-0.028,0.188-0.028,0.354-0.025,0.497
		c0.006,0.142,0.034,0.256,0.049,0.376c0.026,0.143,0.052,0.287,0.079,0.433c0.004,0.041,0.016,0.075,0.022,0.114
		c0.004,0.019,0.007,0.038,0.009,0.058l0.003,0.029c0.001,0.008,0.007,0.029,0.01,0.043c0.016,0.062,0.029,0.127,0.042,0.189
		l0.02,0.096l0.002,0.012c-0.005-0.016,0.011,0.037-0.01-0.032l0.001,0.005l0.002,0.01l0.009,0.039l0.017,0.078
		c0.088,0.412,0.095,0.885-0.029,1.315c-0.028,0.107-0.065,0.211-0.108,0.31c-0.038,0.102-0.091,0.192-0.141,0.282
		c-0.105,0.175-0.223,0.331-0.351,0.456c-0.252,0.258-0.522,0.416-0.771,0.518c-0.249,0.104-0.482,0.148-0.687,0.169
		c-0.205,0.019-0.382,0.011-0.529-0.01c-0.146-0.018-0.261-0.048-0.338-0.073C57.285,184.146,57.244,184.127,57.244,184.127z"/>
</g>
<g>
	<path fill="#F3F3F3" d="M53.581,183.346c0,0-0.064-0.011-0.179-0.044c-0.115-0.033-0.282-0.09-0.483-0.183
		c-0.203-0.091-0.44-0.221-0.699-0.399c-0.256-0.182-0.535-0.412-0.803-0.721c-0.267-0.307-0.529-0.692-0.715-1.182
		c-0.097-0.24-0.164-0.513-0.208-0.799c-0.015-0.145-0.036-0.293-0.032-0.444c0-0.075-0.001-0.151,0.001-0.229
		c0.005-0.076,0.013-0.153,0.021-0.231c0.062-0.625,0.31-1.238,0.642-1.751l0.063-0.097l0.032-0.048l0.008-0.012l0.004-0.007
		c-0.042,0.058-0.01,0.014-0.019,0.025l0.012-0.018l0.093-0.141c0.061-0.094,0.123-0.188,0.188-0.28
		c0.015-0.021,0.035-0.049,0.045-0.066l0.032-0.057c0.021-0.038,0.043-0.075,0.066-0.111c0.045-0.074,0.095-0.145,0.137-0.223
		c0.084-0.156,0.183-0.312,0.25-0.461l0.058-0.111c0.02-0.038,0.04-0.074,0.053-0.111c0.03-0.072,0.06-0.146,0.094-0.218
		c0.107-0.29,0.203-0.573,0.257-0.884c0.049-0.312,0.088-0.645,0.091-0.992c0.002-0.087,0.005-0.174,0.008-0.258
		c-0.001-0.088-0.004-0.174-0.003-0.26c0-0.086,0-0.172,0-0.256c-0.002-0.086-0.006-0.17-0.006-0.253
		c-0.002-0.332-0.014-0.651-0.012-0.937c-0.004-0.285,0.002-0.541,0.01-0.754c0.013-0.426,0.051-0.686,0.051-0.686
		s0.201,0.164,0.498,0.478c0.149,0.156,0.317,0.354,0.504,0.585c0.178,0.237,0.382,0.502,0.569,0.822
		c0.048,0.078,0.095,0.16,0.144,0.244c0.049,0.084,0.09,0.175,0.137,0.266c0.047,0.091,0.09,0.185,0.136,0.28
		c0.043,0.098,0.082,0.202,0.123,0.306c0.166,0.414,0.287,0.9,0.343,1.436c0.053,0.538,0.003,1.127-0.136,1.692
		c-0.039,0.139-0.083,0.276-0.125,0.415c-0.041,0.143-0.103,0.264-0.156,0.396c-0.104,0.27-0.244,0.5-0.374,0.742
		c-0.068,0.119-0.15,0.234-0.225,0.352c-0.038,0.059-0.077,0.115-0.118,0.173l-0.059,0.085c-0.02,0.029-0.035,0.047-0.053,0.07
		c-0.068,0.09-0.138,0.178-0.209,0.266l-0.105,0.131l-0.044,0.057l-0.017,0.02l-0.034,0.041c-0.182,0.211-0.323,0.406-0.417,0.617
		c-0.053,0.105-0.084,0.217-0.12,0.336c-0.024,0.121-0.052,0.25-0.058,0.387c-0.02,0.271,0.009,0.57,0.062,0.859
		c0.053,0.29,0.125,0.574,0.206,0.83c0.079,0.257,0.162,0.487,0.232,0.682C53.485,183.104,53.581,183.346,53.581,183.346z"/>
</g>
<circle fill="#47C7EB" cx="130.912" cy="87.427" r="28.865"/>
<g>
	<polygon fill="#DC4427" points="139.95,75.05 139.859,74.961 139.859,74.818 139.727,74.69 122.119,74.69 121.781,75.018 
		121.781,75.163 113.361,83.303 113.416,83.368 130.733,103.893 130.798,103.818 130.901,103.7 148.384,83.368 148.461,83.279 	"/>
	<polygon fill="#F1573B" points="139.727,74.69 122.119,74.69 121.781,75.018 121.781,83.481 139.859,83.481 139.859,74.818 	"/>
	<polygon fill="#F1573B" points="118.146,83.368 113.416,83.368 130.733,103.893 130.798,103.818 123.104,83.368 	"/>
	<polygon fill="#BB3A26" points="138.698,83.368 130.901,103.7 148.384,83.368 143.7,83.368 	"/>
	<polygon fill="#DC4427" points="138.698,83.368 130.966,83.368 130.992,83.343 130.855,83.343 130.881,83.368 123.104,83.368 
		130.798,103.818 130.901,103.7 	"/>
	<polygon fill="#DC4427" points="121.898,75.05 118.146,83.368 123.104,83.368 123.093,83.343 130.855,83.343 122.088,74.866 	"/>
	<polygon fill="#F1573B" points="121.898,75.05 113.361,83.303 113.416,83.368 118.146,83.368 	"/>
	<polygon fill="#BB3A26" points="139.95,75.05 139.761,74.866 130.992,83.343 138.708,83.343 138.698,83.368 143.7,83.368 	"/>
	<polygon fill="#DC4427" points="139.95,75.05 143.7,83.368 148.384,83.368 148.461,83.279 	"/>
</g>
</svg>
