<?xml version="1.0" encoding="utf-8"?>
<!-- Generator: Adobe Illustrator 16.0.0, SVG Export Plug-In . SVG Version: 6.00 Build 0)  -->
<!DOCTYPE svg PUBLIC "-//W3C//DTD SVG 1.1//EN" "http://www.w3.org/Graphics/SVG/1.1/DTD/svg11.dtd">
<svg version="1.1" id="Layer_1" xmlns="http://www.w3.org/2000/svg" xmlns:xlink="http://www.w3.org/1999/xlink" x="0px" y="0px"
	 width="600px" height="300.24px" viewBox="0 0 600 300.24" enable-background="new 0 0 600 300.24" xml:space="preserve">
<ellipse transform="matrix(-0.0291 -0.9996 0.9996 -0.0291 130.0509 262.2215)" fill="#CCCCCC" cx="192.375" cy="67.95" rx="29.034" ry="28.111"/>
<ellipse transform="matrix(0.2009 -0.9796 0.9796 0.2009 79.3216 195.9419)" fill="#CCCCCC" cx="159.763" cy="49.351" rx="22.851" ry="22.83"/>
<ellipse transform="matrix(0.2009 -0.9796 0.9796 0.2009 49.4219 226.3591)" fill="#CCCCCC" cx="163.458" cy="82.886" rx="22.851" ry="22.83"/>
<ellipse transform="matrix(0.2009 -0.9796 0.9796 0.2009 42.1001 170.1801)" fill="#CCCCCC" cx="125.361" cy="59.285" rx="35.427" ry="35.393"/>
<ellipse transform="matrix(-0.0291 -0.9996 0.9996 -0.0291 382.8236 590.4062)" fill="#CCCCCC" cx="478.146" cy="109.283" rx="28.054" ry="30.526"/>
<path fill="#CCCCCC" d="M552.745,108.088c0.509,17.478-16.112,32.144-37.118,32.754c-21.004,0.614-38.45-13.063-38.955-30.542
	c-0.509-17.477,16.108-32.145,37.113-32.755C534.792,76.935,552.234,90.608,552.745,108.088z"/>
<ellipse transform="matrix(-0.0291 -0.9996 0.9996 -0.0291 437.6896 676.0688)" fill="#CCCCCC" cx="547.182" cy="125.468" rx="20.993" ry="20.326"/>
<ellipse transform="matrix(-0.0291 -0.9996 0.9996 -0.0291 422.8287 585.9419)" fill="#CCCCCC" cx="495.981" cy="87.621" rx="20.993" ry="20.326"/>
<g id="Layer_2">
	<circle fill="#CCCCCC" cx="360.129" cy="117.807" r="26.05"/>
	
		<ellipse transform="matrix(0.2009 -0.9796 0.9796 0.2009 208.1284 430.436)" fill="#CCCCCC" cx="367.901" cy="87.645" rx="19.674" ry="19.654"/>
	
		<ellipse transform="matrix(0.2009 -0.9796 0.9796 0.2009 194.8004 404.6008)" fill="#CCCCCC" cx="345.4" cy="82.897" rx="22.851" ry="22.83"/>
	
		<ellipse transform="matrix(0.2009 -0.9796 0.9796 0.2009 240.8401 385.4833)" fill="#CCCCCC" cx="356.702" cy="45.119" rx="22.851" ry="22.83"/>
	
		<ellipse transform="matrix(0.2009 -0.9796 0.9796 0.2009 276.9634 413.9124)" fill="#CCCCCC" cx="392.189" cy="37.191" rx="22.851" ry="22.83"/>
	<circle fill="#EAE8E9" cx="374.125" cy="116.682" r="27.85"/>
	<circle fill="#E5E5E5" cx="365.725" cy="87.635" r="20.287"/>
	<circle fill="#E5E5E5" cx="387.037" cy="67.348" r="20.287"/>
	<circle fill="#A5A4A4" cx="387.57" cy="95.959" r="21.847"/>
	<circle fill="#A5A4A4" cx="372.217" cy="74.113" r="14.604"/>
	<circle fill="#E5E5E5" cx="388.889" cy="116.415" r="11.925"/>
</g>
<g id="Layer_1_1_">
	<polygon fill="#6C5862" points="228.5,300.24 335.932,116.965 384.098,121.74 401.956,116.415 509.71,300.24 	"/>
	<path fill="#727373" d="M211.011,214.623c4.983-0.115,9.652-1.356,13.698-3.454l110.509,42.264
		c3.087,11.241,14.447,19.582,27.989,19.582c15.914,0,28.816-11.52,28.816-25.728c0-14.21-12.902-25.729-28.816-25.729
		c-5.631,0-10.886,1.442-15.325,3.937l-109.291-41.313c-2.482-11.955-14.223-21.007-28.332-21.007
		c-15.525,0-28.184,10.964-28.792,24.691l-38.166,25.858c-19.563,1.228-35.006,15.784-35.006,33.562
		c0,18.58,16.872,33.645,37.684,33.645c20.601,0,37.339-14.76,37.677-33.08L211.011,214.623L211.011,214.623z"/>
	<path fill="#4B4B4B" d="M208.962,207.034c5.154-0.135,9.983-1.605,14.167-4.088l114.292,50.025
		c3.19,13.305,14.942,23.178,28.947,23.178c16.459,0,29.803-13.635,29.803-30.451c0-16.82-13.344-30.455-29.803-30.455
		c-5.823,0-11.259,1.707-15.851,4.658l-113.032-48.9c-2.567-14.148-14.709-24.864-29.301-24.864
		c-16.057,0-29.148,12.977-29.778,29.227l-39.473,30.607c-20.232,1.452-36.204,18.684-36.204,39.728
		c0,21.993,17.449,39.821,38.974,39.821c21.305,0,38.617-17.469,38.967-39.153L208.962,207.034L208.962,207.034z"/>
	<path fill="#C11F43" d="M259.393,214.108c55.029,0,101.644,36.168,117.606,86.132H141.786
		C157.748,250.276,204.362,214.108,259.393,214.108z"/>
	<path fill="#F07E22" d="M259.393,214.108c55.029,0,101.644,36.168,117.606,86.132H245.144
		C236.666,259.463,239.821,223.392,259.393,214.108z"/>
	<path fill="#BFBFBF" d="M140.557,218.758c-15.194,0-27.509,12.585-27.509,28.109s12.315,28.11,27.509,28.11
		c15.194,0,27.51-12.586,27.51-28.11C168.066,231.343,155.751,218.758,140.557,218.758L140.557,218.758L140.557,218.758z"/>
	<path fill="#4B4B4B" d="M140.557,226.956c-10.763,0-19.486,8.914-19.486,19.911c0,10.999,8.724,19.913,19.486,19.913
		c10.762,0,19.487-8.914,19.487-19.913C160.044,235.87,151.319,226.956,140.557,226.956L140.557,226.956L140.557,226.956z"/>
	<path fill="#C11F43" d="M155.461,258.646c60.006,0,110.869,17.447,128.536,41.596H26.926
		C44.592,276.093,95.455,258.646,155.461,258.646z"/>
	<path fill="#F04D4D" d="M154.011,258.175c60.685,0,112.12,17.645,129.986,42.065H121.13
		C120.84,279.317,133.043,265.673,154.011,258.175L154.011,258.175z"/>
	<path fill="#C6C6C5" d="M373.105,229.679c7.244,3.262,13.347,13.32,9.027,23.784c-4.177,10.127-14.549,12.244-20.691,10.603
		c-9.244-2.472-11.101-10.265-14.547-7.972c-3.937,2.619,2.59,10.78,11.906,13.707c9.756,3.064,24.391-1.206,29.452-15.366
		c5.331-14.916-5.433-26.885-11.832-29.867c-6.396-2.982-16.72-5.01-16.375,0.717C360.332,230.024,365.857,226.416,373.105,229.679
		L373.105,229.679L373.105,229.679z"/>
	<polygon fill="#997995" points="427.704,300.24 384.098,121.74 401.956,116.415 509.71,300.24 	"/>
	<path fill="#D8D8D8" d="M202.245,194.074c-7.403-2.871-14.014-12.589-10.236-23.271c3.654-10.337,13.904-13.005,20.122-11.693
		c9.359,1.975,11.611,9.656,14.933,7.184c3.8-2.826-3.137-10.627-12.589-13.052c-9.901-2.538-24.296,2.508-28.626,16.922
		c-4.56,15.179,6.802,26.555,13.345,29.19c6.541,2.639,16.954,4.106,16.317-1.59C214.98,193.046,209.649,196.944,202.245,194.074
		L202.245,194.074L202.245,194.074z"/>
	<polygon fill="#818B8D" points="358.068,300.24 430.677,209.938 462.533,212.24 474.347,209.672 547.166,300.24 	"/>
	<polygon fill="#97A1A3" points="492.022,300.24 462.533,212.24 474.347,209.672 547.167,300.24 	"/>
	<polygon fill="#CDD4D5" points="462.533,212.24 430.677,209.938 452.618,182.647 	"/>
	<polygon fill="#FFFFFF" points="452.618,182.647 474.347,209.672 462.533,212.24 	"/>
	<path fill="#C11F43" d="M437.988,232.806c39.204,0,72.415,28.312,83.812,67.436H354.178
		C365.575,261.117,398.786,232.806,437.988,232.806z"/>
	<path fill="#F04D4D" d="M439.091,232.815c38.725,0.527,71.42,28.668,82.709,67.425h-81.276
		C427.448,267.556,424.782,240.662,439.091,232.815z"/>
	<path fill="#C11F43" d="M333.078,254.151c39.025,0,72.091,19.345,83.49,46.089H249.589
		C260.988,273.496,294.054,254.151,333.078,254.151z"/>
	<path fill="#C11F43" d="M481.288,270.338c43.138,0,79.702,12.543,92.401,29.902H388.889
		C401.588,282.881,438.152,270.338,481.288,270.338z"/>
	<path fill="#F07E22" d="M481.289,270.338c43.138,0,79.701,12.543,92.4,29.902H457.916
		C457.711,285.367,466.384,275.666,481.289,270.338z"/>
	<path fill="#F07E22" d="M333.078,254.151c39.025,0,72.092,19.345,83.49,46.089h-103.75
		C304.509,275.946,313.326,261.215,333.078,254.151z"/>
	<g>
		<path fill="#744425" d="M172.258,269.14h2.991v10.604c-1.058,0.76-2.06,0.824-2.991,0V269.14z"/>
		<path fill="#8D5E40" d="M173.753,269.14h1.495v10.604c-0.512,0.367-1.011,0.572-1.495,0.594V269.14z"/>
		<ellipse fill="#9BCB3F" cx="173.753" cy="259.371" rx="8.554" ry="13.801"/>
		<path fill="#B7D661" d="M173.986,245.574c4.617,0.198,8.322,6.301,8.322,13.795c0,7.623-3.83,13.803-8.554,13.803
			c-2.495-5.303-2.797-21.512,0-27.603C173.832,245.569,173.908,245.574,173.986,245.574z"/>
	</g>
	<g>
		<path fill="#744425" d="M192.368,284.045h3.939v7.877c-1.394,0.563-2.714,0.613-3.939,0V284.045z"/>
		<path fill="#8D5E40" d="M194.338,284.045h1.97v7.877c-0.675,0.272-1.332,0.429-1.97,0.441V284.045z"/>
		<path fill="#9BCB3F" d="M194.338,245.074c7.273,11.577,11.353,24.573,11.417,39.354c-7.462,2.391-15.058,2.625-22.833,0
			C183.64,271.312,188.011,258.192,194.338,245.074z"/>
		<path fill="#B7D661" d="M194.338,245.074c7.273,11.577,11.353,24.573,11.417,39.354c-3.771,1.209-7.576,1.865-11.42,1.881
			C193.422,281.278,193.169,256.692,194.338,245.074z"/>
	</g>
	<g>
		<path fill="#744425" d="M218.775,225.256h2.871v10.181c-1.015,0.729-1.978,0.791-2.871,0V225.256z"/>
		<path fill="#8D5E40" d="M220.21,225.256h1.436v10.181c-0.492,0.352-0.97,0.549-1.436,0.567V225.256z"/>
		<ellipse fill="#9BCB3F" cx="220.21" cy="215.879" rx="8.212" ry="13.25"/>
		<path fill="#B7D661" d="M220.434,202.633c4.432,0.191,7.989,6.05,7.989,13.246c0,7.315-3.676,13.25-8.212,13.25
			c-2.395-5.092-2.685-20.651,0-26.5C220.286,202.629,220.359,202.633,220.434,202.633z"/>
	</g>
	<g>
		<path fill="#744425" d="M238.062,214.791h1.716v6.082c-0.607,0.438-1.182,0.476-1.716,0V214.791z"/>
		<path fill="#8D5E40" d="M238.92,214.791h0.858v6.082c-0.294,0.213-0.581,0.33-0.858,0.342V214.791z"/>
		<ellipse fill="#9BCB3F" cx="238.92" cy="209.188" rx="4.908" ry="7.919"/>
		<path fill="#B7D661" d="M239.054,201.271c2.649,0.113,4.774,3.613,4.774,7.914c0,4.375-2.197,7.92-4.908,7.92
			c-1.432-3.043-1.605-12.342,0-15.838C238.965,201.269,239.009,201.271,239.054,201.271z"/>
	</g>
	<g>
		<path fill="#744425" d="M385.123,275.435h3.826v7.651c-1.354,0.549-2.637,0.595-3.826,0V275.435z"/>
		<path fill="#8D5E40" d="M387.036,275.435h1.913v7.651c-0.655,0.267-1.293,0.412-1.913,0.429V275.435z"/>
		<path fill="#9BCB3F" d="M387.036,237.584c7.063,11.246,11.027,23.869,11.089,38.226c-7.248,2.321-14.625,2.549-22.177,0
			C376.646,263.067,380.893,250.326,387.036,237.584z"/>
		<path fill="#B7D661" d="M387.036,237.584c7.063,11.246,11.027,23.869,11.089,38.226c-3.662,1.174-7.357,1.812-11.093,1.828
			C386.146,272.748,385.9,248.869,387.036,237.584z"/>
	</g>
	<g>
		<path fill="#744425" d="M297.297,232.002h2.738v5.479c-0.969,0.393-1.887,0.426-2.738,0V232.002z"/>
		<path fill="#8D5E40" d="M298.667,232.002h1.368v5.479c-0.469,0.19-0.926,0.297-1.368,0.307V232.002z"/>
		<path fill="#9BCB3F" d="M298.667,204.912c5.056,8.049,7.894,17.084,7.937,27.36c-5.188,1.66-10.47,1.822-15.874,0
			C291.229,223.151,294.268,214.031,298.667,204.912z"/>
		<path fill="#B7D661" d="M298.667,204.912c5.056,8.049,7.894,17.084,7.937,27.36c-2.621,0.84-5.267,1.295-7.939,1.308
			C298.03,230.08,297.854,212.987,298.667,204.912z"/>
	</g>
	<g>
		<path fill="#744425" d="M283.124,223.793h1.963v3.926c-0.694,0.281-1.353,0.306-1.963,0V223.793z"/>
		<path fill="#8D5E40" d="M284.105,223.793h0.981v3.926c-0.337,0.138-0.664,0.212-0.981,0.22V223.793z"/>
		<path fill="#9BCB3F" d="M284.105,204.375c3.623,5.771,5.656,12.244,5.688,19.61c-3.719,1.189-7.503,1.308-11.378,0
			C278.774,217.449,280.953,210.912,284.105,204.375z"/>
		<path fill="#B7D661" d="M284.105,204.375c3.623,5.771,5.656,12.244,5.688,19.61c-1.879,0.603-3.774,0.929-5.69,0.937
			C283.648,222.416,283.522,210.166,284.105,204.375z"/>
	</g>
	<g>
		<path fill="#744425" d="M365.087,278.045h3.825v13.562c-1.354,0.974-2.637,1.056-3.825,0V278.045z"/>
		<path fill="#8D5E40" d="M367,278.045h1.912v13.562c-0.655,0.472-1.293,0.732-1.912,0.761V278.045z"/>
		<ellipse fill="#9BCB3F" cx="367" cy="268.959" rx="13.589" ry="14.246"/>
		<path fill="#B7D661" d="M367.369,254.719c7.333,0.205,13.22,6.503,13.22,14.24c0,7.867-6.084,14.246-13.589,14.246
			c-3.963-5.474-4.443-22.205,0-28.492C367.125,254.713,367.244,254.717,367.369,254.719z"/>
	</g>
</g>
</svg>
