<?xml version="1.0" encoding="utf-8"?>
<!-- Generator: Adobe Illustrator 16.0.0, SVG Export Plug-In . SVG Version: 6.00 Build 0)  -->
<!DOCTYPE svg PUBLIC "-//W3C//DTD SVG 1.1//EN" "http://www.w3.org/Graphics/SVG/1.1/DTD/svg11.dtd">
<svg version="1.1" xmlns="http://www.w3.org/2000/svg" xmlns:xlink="http://www.w3.org/1999/xlink" x="0px" y="0px" width="600px"
	 height="300.24px" viewBox="0 0 600 300.24" enable-background="new 0 0 600 300.24" xml:space="preserve">
<g id="Layer_3">
	<rect fill-rule="evenodd" clip-rule="evenodd" fill="#48B0E4" width="600" height="300.24"/>
	
		<ellipse transform="matrix(0.9996 -0.0291 0.0291 0.9996 -1.8931 5.6175)" fill-rule="evenodd" clip-rule="evenodd" fill="#CCCCCC" cx="192.368" cy="67.958" rx="28.11" ry="29.033"/>
	
		<ellipse transform="matrix(0.9796 0.2009 -0.2009 0.9796 13.1694 -31.0876)" fill-rule="evenodd" clip-rule="evenodd" fill="#CCCCCC" cx="159.767" cy="49.348" rx="22.83" ry="22.851"/>
	
		<ellipse transform="matrix(0.9796 0.2009 -0.2009 0.9796 19.9814 -31.1462)" fill-rule="evenodd" clip-rule="evenodd" fill="#CCCCCC" cx="163.462" cy="82.884" rx="22.83" ry="22.851"/>
	
		<ellipse transform="matrix(0.9796 0.2009 -0.2009 0.9796 14.4638 -23.9744)" fill-rule="evenodd" clip-rule="evenodd" fill="#CCCCCC" cx="125.365" cy="59.283" rx="35.394" ry="35.427"/>
	
		<ellipse transform="matrix(0.9996 -0.0291 0.0291 0.9996 -2.9748 13.9432)" fill-rule="evenodd" clip-rule="evenodd" fill="#CCCCCC" cx="478.131" cy="109.297" rx="30.525" ry="28.053"/>
	<path fill-rule="evenodd" clip-rule="evenodd" fill="#CCCCCC" d="M552.745,108.088c0.509,17.478-16.112,32.144-37.118,32.754
		c-21.004,0.614-38.45-13.063-38.955-30.542c-0.509-17.477,16.108-32.145,37.113-32.755
		C534.792,76.935,552.234,90.608,552.745,108.088z"/>
	
		<ellipse transform="matrix(0.9996 -0.0291 0.0291 0.9996 -3.4164 15.9584)" fill-rule="evenodd" clip-rule="evenodd" fill="#CCCCCC" cx="547.166" cy="125.482" rx="20.325" ry="20.992"/>
	
		<ellipse transform="matrix(0.9996 -0.0291 0.0291 0.9996 -2.3378 14.4541)" fill-rule="evenodd" clip-rule="evenodd" fill="#CCCCCC" cx="495.967" cy="87.635" rx="20.325" ry="20.992"/>
</g>
<g id="Layer_2">
	<circle fill-rule="evenodd" clip-rule="evenodd" fill="#CCCCCC" cx="360.129" cy="117.807" r="26.05"/>
	
		<ellipse transform="matrix(0.9796 0.2009 -0.2009 0.9796 25.101 -72.1143)" fill-rule="evenodd" clip-rule="evenodd" fill="#CCCCCC" cx="367.911" cy="87.634" rx="19.655" ry="19.674"/>
	
		<ellipse transform="matrix(0.9796 0.2009 -0.2009 0.9796 23.687 -67.6889)" fill-rule="evenodd" clip-rule="evenodd" fill="#CCCCCC" cx="345.411" cy="82.884" rx="22.83" ry="22.851"/>
	
		<ellipse transform="matrix(0.9796 0.2009 -0.2009 0.9796 16.3289 -70.7286)" fill-rule="evenodd" clip-rule="evenodd" fill="#CCCCCC" cx="356.712" cy="45.104" rx="22.83" ry="22.851"/>
	
		<ellipse transform="matrix(0.9796 0.2009 -0.2009 0.9796 15.4596 -78.0181)" fill-rule="evenodd" clip-rule="evenodd" fill="#CCCCCC" cx="392.199" cy="37.175" rx="22.83" ry="22.851"/>
	<circle fill-rule="evenodd" clip-rule="evenodd" fill="#EAE8E9" cx="374.125" cy="116.682" r="27.85"/>
	<circle fill-rule="evenodd" clip-rule="evenodd" fill="#E5E5E5" cx="365.724" cy="87.635" r="20.287"/>
	<circle fill-rule="evenodd" clip-rule="evenodd" fill="#E5E5E5" cx="387.037" cy="67.348" r="20.287"/>
	<circle fill-rule="evenodd" clip-rule="evenodd" fill="#A5A4A4" cx="387.571" cy="95.959" r="21.847"/>
	<circle fill-rule="evenodd" clip-rule="evenodd" fill="#A5A4A4" cx="372.217" cy="74.113" r="14.604"/>
	<circle fill-rule="evenodd" clip-rule="evenodd" fill="#E5E5E5" cx="388.889" cy="116.415" r="11.925"/>
</g>
<g id="Layer_1">
	<polygon fill-rule="evenodd" clip-rule="evenodd" fill="#6C5862" points="228.5,300.24 335.932,116.965 384.097,121.74 
		401.956,116.415 509.71,300.24 	"/>
	<path fill="#727373" d="M211.011,214.623c4.983-0.115,9.652-1.357,13.698-3.454l110.509,42.263
		c3.087,11.242,14.447,19.582,27.989,19.582c15.914,0,28.816-11.519,28.816-25.727c0-14.21-12.902-25.729-28.816-25.729
		c-5.631,0-10.886,1.442-15.325,3.936L238.591,184.18c-2.482-11.954-14.223-21.006-28.332-21.006
		c-15.525,0-28.184,10.963-28.792,24.691l-38.166,25.859c-19.563,1.227-35.006,15.784-35.006,33.562
		c0,18.58,16.872,33.644,37.684,33.644c20.601,0,37.339-14.759,37.677-33.079L211.011,214.623L211.011,214.623z"/>
	<path fill="#4B4B4B" d="M208.962,207.034c5.154-0.135,9.983-1.605,14.167-4.088l114.292,50.025
		c3.191,13.306,14.942,23.179,28.947,23.179c16.459,0,29.803-13.635,29.803-30.452c0-16.82-13.344-30.455-29.803-30.455
		c-5.823,0-11.259,1.707-15.85,4.659l-113.032-48.901c-2.567-14.149-14.709-24.864-29.301-24.864
		c-16.057,0-29.148,12.977-29.778,29.227l-39.473,30.608c-20.232,1.452-36.204,18.683-36.204,39.727
		c0,21.993,17.449,39.822,38.974,39.822c21.305,0,38.617-17.469,38.967-39.154L208.962,207.034L208.962,207.034z"/>
	<path fill-rule="evenodd" clip-rule="evenodd" fill="#C11F43" d="M259.393,214.109c55.029,0,101.644,36.168,117.606,86.131H141.786
		C157.748,250.277,204.362,214.109,259.393,214.109z"/>
	<path fill-rule="evenodd" clip-rule="evenodd" fill="#F07E22" d="M259.393,214.109c55.029,0,101.644,36.168,117.606,86.131H245.144
		C236.666,259.463,239.821,223.391,259.393,214.109z"/>
	<path fill="#BFBFBF" d="M140.557,218.758c-15.194,0-27.509,12.585-27.509,28.109c0,15.525,12.315,28.111,27.509,28.111
		c15.194,0,27.51-12.586,27.51-28.111C168.066,231.343,155.751,218.758,140.557,218.758L140.557,218.758L140.557,218.758z"/>
	<path fill="#4B4B4B" d="M140.557,226.956c-10.763,0-19.486,8.914-19.486,19.911c0,10.999,8.724,19.913,19.486,19.913
		c10.762,0,19.487-8.914,19.487-19.913C160.044,235.87,151.319,226.956,140.557,226.956L140.557,226.956L140.557,226.956z"/>
	<path fill-rule="evenodd" clip-rule="evenodd" fill="#C11F43" d="M155.461,258.645c60.006,0,110.869,17.448,128.536,41.596H26.926
		C44.592,276.093,95.455,258.645,155.461,258.645z"/>
	<path fill-rule="evenodd" clip-rule="evenodd" fill="#F04D4D" d="M154.011,258.175c60.685,0,112.12,17.645,129.986,42.065H121.13
		C120.84,279.317,133.043,265.673,154.011,258.175L154.011,258.175z"/>
	<path fill="#C6C6C5" d="M373.105,229.678c7.245,3.263,13.347,13.321,9.028,23.785c-4.177,10.127-14.549,12.244-20.692,10.602
		c-9.244-2.471-11.1-10.264-14.546-7.971c-3.937,2.619,2.589,10.78,11.906,13.707c9.756,3.064,24.391-1.206,29.452-15.367
		c5.331-14.915-5.432-26.884-11.832-29.866c-6.396-2.983-16.72-5.01-16.375,0.716C360.332,230.024,365.858,226.416,373.105,229.678
		L373.105,229.678L373.105,229.678z"/>
	<polygon fill-rule="evenodd" clip-rule="evenodd" fill="#997995" points="427.704,300.24 384.097,121.74 401.956,116.415 
		509.71,300.24 	"/>
	<path fill="#D8D8D8" d="M202.245,194.074c-7.403-2.871-14.014-12.588-10.236-23.271c3.654-10.336,13.904-13.004,20.122-11.692
		c9.359,1.974,11.611,9.656,14.933,7.183c3.8-2.826-3.137-10.627-12.589-13.052c-9.901-2.538-24.296,2.508-28.626,16.922
		c-4.56,15.179,6.802,26.555,13.345,29.191c6.541,2.638,16.954,4.106,16.317-1.591C214.98,193.046,209.649,196.944,202.245,194.074
		L202.245,194.074L202.245,194.074z"/>
	<polygon fill-rule="evenodd" clip-rule="evenodd" fill="#818B8D" points="358.069,300.24 430.677,209.938 462.533,212.24 
		474.347,209.672 547.166,300.24 	"/>
	<polygon fill-rule="evenodd" clip-rule="evenodd" fill="#97A1A3" points="492.022,300.24 462.533,212.24 474.347,209.672 
		547.167,300.24 	"/>
	<polygon fill-rule="evenodd" clip-rule="evenodd" fill="#CDD4D5" points="462.533,212.24 430.677,209.938 452.618,182.648 	"/>
	<polygon fill-rule="evenodd" clip-rule="evenodd" fill="#FFFFFF" points="452.618,182.648 474.347,209.672 462.533,212.24 	"/>
	<path fill-rule="evenodd" clip-rule="evenodd" fill="#C11F43" d="M437.988,232.805c39.204,0,72.415,28.312,83.812,67.436H354.178
		C365.575,261.117,398.786,232.805,437.988,232.805z"/>
	<path fill-rule="evenodd" clip-rule="evenodd" fill="#F04D4D" d="M439.091,232.816c38.724,0.527,71.42,28.668,82.709,67.424
		h-81.277C427.448,267.555,424.782,240.662,439.091,232.816z"/>
	<path fill-rule="evenodd" clip-rule="evenodd" fill="#C11F43" d="M333.078,254.152c39.025,0,72.091,19.344,83.49,46.088H249.589
		C260.988,273.496,294.054,254.152,333.078,254.152z"/>
	<path fill-rule="evenodd" clip-rule="evenodd" fill="#C11F43" d="M481.288,270.338c43.138,0,79.702,12.543,92.401,29.902H388.889
		C401.588,282.881,438.152,270.338,481.288,270.338z"/>
	<path fill-rule="evenodd" clip-rule="evenodd" fill="#F07E22" d="M481.289,270.338c43.138,0,79.701,12.543,92.4,29.902H457.916
		C457.711,285.367,466.384,275.666,481.289,270.338z"/>
	<path fill-rule="evenodd" clip-rule="evenodd" fill="#F07E22" d="M333.078,254.152c39.025,0,72.092,19.344,83.49,46.088H312.819
		C304.509,275.947,313.326,261.215,333.078,254.152z"/>
	<g>
		<path fill-rule="evenodd" clip-rule="evenodd" fill="#744425" d="M172.258,269.139h2.991v10.604c-1.058,0.76-2.06,0.824-2.991,0
			V269.139z"/>
		<path fill-rule="evenodd" clip-rule="evenodd" fill="#8D5E40" d="M173.753,269.139h1.495v10.604
			c-0.512,0.367-1.011,0.572-1.495,0.594V269.139z"/>
		<ellipse fill-rule="evenodd" clip-rule="evenodd" fill="#9BCB3F" cx="173.753" cy="259.371" rx="8.554" ry="13.801"/>
		<path fill-rule="evenodd" clip-rule="evenodd" fill="#B7D661" d="M173.986,245.574c4.617,0.199,8.322,6.301,8.322,13.795
			c0,7.623-3.83,13.803-8.554,13.803c-2.495-5.303-2.797-21.512,0-27.602C173.832,245.57,173.908,245.574,173.986,245.574z"/>
	</g>
	<g>
		<path fill-rule="evenodd" clip-rule="evenodd" fill="#744425" d="M192.368,284.045h3.939v7.877c-1.394,0.564-2.714,0.613-3.939,0
			V284.045z"/>
		<path fill-rule="evenodd" clip-rule="evenodd" fill="#8D5E40" d="M194.338,284.045h1.97v7.877
			c-0.675,0.273-1.332,0.428-1.97,0.441V284.045z"/>
		<path fill-rule="evenodd" clip-rule="evenodd" fill="#9BCB3F" d="M194.338,245.074c7.273,11.578,11.353,24.574,11.417,39.355
			c-7.462,2.391-15.058,2.625-22.833,0C183.64,271.312,188.011,258.193,194.338,245.074z"/>
		<path fill-rule="evenodd" clip-rule="evenodd" fill="#B7D661" d="M194.338,245.074c7.273,11.578,11.353,24.574,11.417,39.355
			c-3.771,1.209-7.576,1.865-11.42,1.881C193.422,281.279,193.169,256.693,194.338,245.074z"/>
	</g>
	<g>
		<path fill-rule="evenodd" clip-rule="evenodd" fill="#744425" d="M218.775,225.256h2.871v10.18c-1.015,0.729-1.978,0.791-2.871,0
			V225.256z"/>
		<path fill-rule="evenodd" clip-rule="evenodd" fill="#8D5E40" d="M220.21,225.256h1.436v10.18
			c-0.492,0.352-0.97,0.549-1.436,0.568V225.256z"/>
		<ellipse fill-rule="evenodd" clip-rule="evenodd" fill="#9BCB3F" cx="220.21" cy="215.879" rx="8.212" ry="13.25"/>
		<path fill-rule="evenodd" clip-rule="evenodd" fill="#B7D661" d="M220.434,202.633c4.432,0.191,7.989,6.049,7.989,13.246
			c0,7.316-3.676,13.25-8.212,13.25c-2.395-5.092-2.685-20.652,0-26.5C220.286,202.629,220.359,202.633,220.434,202.633z"/>
	</g>
	<g>
		<path fill-rule="evenodd" clip-rule="evenodd" fill="#744425" d="M238.062,214.791h1.716v6.082c-0.607,0.438-1.182,0.475-1.716,0
			V214.791z"/>
		<path fill-rule="evenodd" clip-rule="evenodd" fill="#8D5E40" d="M238.92,214.791h0.858v6.082
			c-0.294,0.213-0.581,0.33-0.858,0.342V214.791z"/>
		<ellipse fill-rule="evenodd" clip-rule="evenodd" fill="#9BCB3F" cx="238.92" cy="209.187" rx="4.908" ry="7.919"/>
		<path fill-rule="evenodd" clip-rule="evenodd" fill="#B7D661" d="M239.054,201.271c2.649,0.113,4.774,3.613,4.774,7.914
			c0,4.375-2.197,7.92-4.908,7.92c-1.432-3.043-1.605-12.342,0-15.838C238.965,201.268,239.009,201.271,239.054,201.271z"/>
	</g>
	<g>
		<path fill-rule="evenodd" clip-rule="evenodd" fill="#744425" d="M385.123,275.434h3.826v7.652c-1.353,0.549-2.636,0.594-3.826,0
			V275.434z"/>
		<path fill-rule="evenodd" clip-rule="evenodd" fill="#8D5E40" d="M387.036,275.434h1.913v7.652
			c-0.655,0.266-1.293,0.412-1.913,0.428V275.434z"/>
		<path fill-rule="evenodd" clip-rule="evenodd" fill="#9BCB3F" d="M387.036,237.584c7.064,11.246,11.027,23.869,11.089,38.225
			c-7.248,2.322-14.625,2.549-22.177,0C376.646,263.068,380.892,250.326,387.036,237.584z"/>
		<path fill-rule="evenodd" clip-rule="evenodd" fill="#B7D661" d="M387.036,237.584c7.064,11.246,11.027,23.869,11.089,38.225
			c-3.662,1.174-7.358,1.812-11.093,1.828C386.146,272.748,385.901,248.869,387.036,237.584z"/>
	</g>
	<g>
		<path fill-rule="evenodd" clip-rule="evenodd" fill="#744425" d="M297.297,232.002h2.738v5.479c-0.969,0.393-1.887,0.426-2.738,0
			V232.002z"/>
		<path fill-rule="evenodd" clip-rule="evenodd" fill="#8D5E40" d="M298.667,232.002h1.368v5.479
			c-0.469,0.191-0.926,0.297-1.368,0.307V232.002z"/>
		<path fill-rule="evenodd" clip-rule="evenodd" fill="#9BCB3F" d="M298.667,204.912c5.056,8.049,7.894,17.084,7.937,27.361
			c-5.188,1.66-10.47,1.822-15.874,0C291.229,223.152,294.268,214.031,298.667,204.912z"/>
		<path fill-rule="evenodd" clip-rule="evenodd" fill="#B7D661" d="M298.667,204.912c5.056,8.049,7.894,17.084,7.937,27.361
			c-2.622,0.84-5.267,1.295-7.94,1.307C298.03,230.08,297.854,212.988,298.667,204.912z"/>
	</g>
	<g>
		<path fill-rule="evenodd" clip-rule="evenodd" fill="#744425" d="M283.124,223.793h1.963v3.926c-0.694,0.281-1.353,0.305-1.963,0
			V223.793z"/>
		<path fill-rule="evenodd" clip-rule="evenodd" fill="#8D5E40" d="M284.105,223.793h0.981v3.926
			c-0.337,0.137-0.664,0.211-0.981,0.219V223.793z"/>
		<path fill-rule="evenodd" clip-rule="evenodd" fill="#9BCB3F" d="M284.105,204.375c3.623,5.77,5.656,12.244,5.688,19.611
			c-3.719,1.189-7.503,1.307-11.378,0C278.774,217.449,280.953,210.912,284.105,204.375z"/>
		<path fill-rule="evenodd" clip-rule="evenodd" fill="#B7D661" d="M284.105,204.375c3.623,5.77,5.656,12.244,5.688,19.611
			c-1.879,0.602-3.774,0.928-5.69,0.936C283.648,222.416,283.522,210.166,284.105,204.375z"/>
	</g>
	<g>
		<path fill-rule="evenodd" clip-rule="evenodd" fill="#744425" d="M365.087,278.045h3.825v13.562c-1.354,0.973-2.636,1.055-3.825,0
			V278.045z"/>
		<path fill-rule="evenodd" clip-rule="evenodd" fill="#8D5E40" d="M367,278.045h1.912v13.562c-0.655,0.471-1.293,0.732-1.912,0.76
			V278.045z"/>
		<ellipse fill-rule="evenodd" clip-rule="evenodd" fill="#9BCB3F" cx="367" cy="268.959" rx="13.589" ry="14.246"/>
		<path fill-rule="evenodd" clip-rule="evenodd" fill="#B7D661" d="M367.369,254.719c7.333,0.205,13.22,6.502,13.22,14.24
			c0,7.867-6.084,14.246-13.589,14.246c-3.963-5.473-4.443-22.205,0-28.492C367.125,254.713,367.244,254.717,367.369,254.719z"/>
	</g>
</g>
</svg>
