<?xml version="1.0" encoding="utf-8"?>
<!-- Generator: Adobe Illustrator 16.0.0, SVG Export Plug-In . SVG Version: 6.00 Build 0)  -->
<!DOCTYPE svg PUBLIC "-//W3C//DTD SVG 1.1//EN" "http://www.w3.org/Graphics/SVG/1.1/DTD/svg11.dtd">
<svg version="1.1" id="Layer_1" xmlns="http://www.w3.org/2000/svg" xmlns:xlink="http://www.w3.org/1999/xlink" x="0px" y="0px"
	 width="216px" height="161px" viewBox="0 0 216 161" enable-background="new 0 0 216 161" xml:space="preserve">
<text transform="matrix(1.1345 0 0 1 47 143.6387)" font-family="'MyanmarSangamMN'" font-size="156">T</text>
<text transform="matrix(1.1345 0 0 1 47 143.6387)" fill="none" stroke="#000000" stroke-miterlimit="10" font-family="'MyanmarSangamMN'" font-size="156">T</text>
<g>
	<g>
		
			<linearGradient id="SVGID_1_" gradientUnits="userSpaceOnUse" x1="233.7295" y1="-33.0781" x2="356.0566" y2="-33.0781" gradientTransform="matrix(1 0 0 -1 -96 5.8799)">
			<stop  offset="0" style="stop-color:#FFFFFF"/>
			<stop  offset="1" style="stop-color:#000000"/>
		</linearGradient>
		<path fill="url(#SVGID_1_)" d="M189.173,26.995c-1.231-4.378-3.159-7.472-5.78-9.282c-2.623-1.81-6.078-2.714-10.363-2.714
			c-3.01,0-5.689,0.614-8.038,1.843c-2.351,1.229-4.345,2.893-5.985,4.993c-1.643,2.101-2.886,4.523-3.729,7.271
			c-0.846,2.748-1.267,5.641-1.267,8.678c0,3.173,0.433,6.256,1.3,9.248c0.865,2.994,2.108,5.652,3.729,7.975
			c1.618,2.323,3.579,4.2,5.883,5.629c2.302,1.43,4.913,2.146,7.833,2.146c2.37,0,4.48-0.391,6.327-1.173
			c1.849-0.781,3.442-1.854,4.789-3.217c1.345-1.362,2.45-2.949,3.317-4.758c0.865-1.809,1.504-3.719,1.916-5.729h8.688
			c-0.456,3.575-1.357,6.78-2.702,9.617c-1.346,2.837-3.103,5.25-5.269,7.237c-2.166,1.988-4.709,3.508-7.627,4.557
			c-2.92,1.05-6.18,1.575-9.782,1.575c-3.011,0-5.759-0.459-8.243-1.374c-2.486-0.915-4.697-2.154-6.636-3.719
			c-1.938-1.563-3.614-3.418-5.027-5.562c-1.414-2.145-2.589-4.434-3.522-6.869c-0.937-2.435-1.631-4.981-2.086-7.64
			c-0.457-2.658-0.686-5.305-0.686-7.941c0-4.333,0.639-8.376,1.915-12.129c1.276-3.753,3.09-7.003,5.438-9.751
			c2.349-2.748,5.176-4.914,8.482-6.5c3.307-1.585,6.988-2.379,11.049-2.379c3.557,0,6.727,0.503,9.508,1.508
			c2.781,1.005,5.188,2.402,7.217,4.188c2.029,1.788,3.695,3.898,4.994,6.333c1.301,2.436,2.246,5.083,2.84,7.941L189.173,26.995
			L189.173,26.995z"/>
	</g>
	<text transform="matrix(1.0208 0 0 1 137.7295 69.4824)" font-family="'OriyaSangamMN'" font-size="137.2465">c</text>
</g>
<rect x="35" y="35.303" stroke="#000000" stroke-miterlimit="10" width="108.669" height="11.515"/>
<rect x="45" y="108" stroke="#000000" stroke-width="0.5" stroke-miterlimit="10" width="41" height="36"/>
<rect x="51.167" y="114" fill="#FFFFFF" width="10.667" height="32"/>
<rect x="70.167" y="114" fill="#FFFFFF" width="10.667" height="32"/>
<circle stroke="#000000" stroke-miterlimit="10" cx="66.75" cy="78.75" r="19.75"/>
<circle fill="#FFFFFF" stroke="#000000" stroke-miterlimit="10" cx="66.408" cy="78.987" r="14.408"/>
</svg>
