<?xml version="1.0" encoding="utf-8"?>
<!-- Generator: Adobe Illustrator 16.0.0, SVG Export Plug-In . SVG Version: 6.00 Build 0)  -->
<!DOCTYPE svg PUBLIC "-//W3C//DTD SVG 1.1//EN" "http://www.w3.org/Graphics/SVG/1.1/DTD/svg11.dtd">
<svg version="1.1" id="Layer_1" xmlns="http://www.w3.org/2000/svg" xmlns:xlink="http://www.w3.org/1999/xlink" x="0px" y="0px"
	 width="216px" height="161px" viewBox="0 0 216 161" enable-background="new 0 0 216 161" xml:space="preserve">
<text transform="matrix(1.1345 0 0 1 47 143.6387)" stroke="#000000" stroke-miterlimit="10" font-family="'MyanmarSangamMN'" font-size="156">T</text>
<g>
	<g>
		<linearGradient id="SVGID_1_" gradientUnits="userSpaceOnUse" x1="137.7295" y1="49.3442" x2="260.0566" y2="49.3442">
			<stop  offset="0" style="stop-color:#FFFFFF"/>
			<stop  offset="1" style="stop-color:#000000"/>
		</linearGradient>
		<path fill="url(#SVGID_1_)" d="M189.173,26.995c-1.231-4.378-3.159-7.472-5.781-9.282c-2.623-1.81-6.077-2.714-10.363-2.714
			c-3.01,0-5.689,0.614-8.038,1.843c-2.35,1.229-4.344,2.893-5.985,4.993c-1.643,2.101-2.886,4.523-3.729,7.271
			c-0.845,2.748-1.266,5.641-1.266,8.678c0,3.173,0.433,6.256,1.3,9.248c0.865,2.994,2.108,5.652,3.729,7.975
			c1.618,2.323,3.579,4.2,5.883,5.629c2.302,1.43,4.913,2.145,7.833,2.145c2.37,0,4.48-0.391,6.327-1.173
			c1.848-0.781,3.443-1.854,4.789-3.217c1.345-1.362,2.45-2.949,3.317-4.758c0.866-1.809,1.505-3.719,1.916-5.729h8.688
			c-0.456,3.575-1.357,6.78-2.702,9.617c-1.346,2.837-3.102,5.25-5.268,7.237c-2.167,1.988-4.709,3.508-7.628,4.557
			c-2.919,1.05-6.18,1.575-9.782,1.575c-3.01,0-5.758-0.459-8.243-1.374c-2.486-0.915-4.697-2.154-6.636-3.719
			c-1.938-1.563-3.614-3.418-5.027-5.562c-1.414-2.145-2.589-4.434-3.523-6.869c-0.936-2.435-1.631-4.981-2.086-7.64
			c-0.457-2.658-0.685-5.305-0.685-7.941c0-4.333,0.638-8.376,1.915-12.129c1.276-3.753,3.09-7.003,5.439-9.751
			c2.348-2.748,5.175-4.914,8.482-6.5c3.306-1.585,6.988-2.379,11.048-2.379c3.557,0,6.727,0.503,9.509,1.508
			c2.781,1.005,5.188,2.402,7.217,4.188c2.028,1.788,3.694,3.898,4.994,6.333c1.3,2.436,2.245,5.083,2.839,7.941H189.173z"/>
	</g>
	<text transform="matrix(1.0208 0 0 1 137.7295 69.4824)" font-family="'OriyaSangamMN'" font-size="137.2465">c</text>
</g>
<rect x="35" y="35.303" stroke="#000000" stroke-miterlimit="10" width="108.669" height="11.515"/>
<rect x="62" y="63.5" stroke="#000000" stroke-miterlimit="10" width="9" height="26.5"/>
<rect x="36" y="108" width="53" height="36"/>
<rect x="34.5" y="117" fill="#FFFFFF" width="9.5" height="27"/>
<rect x="53" y="117" fill="#FFFFFF" width="9" height="27"/>
<rect x="71" y="117" fill="#FFFFFF" width="9" height="27"/>
</svg>
